<?xml version="1.0" encoding="UTF-8"?>
<svg version="1.1" xmlns="http://www.w3.org/2000/svg" width="500" height="500">
<path d="M0 0 C165 0 330 0 500 0 C500 165 500 330 500 500 C335 500 170 500 0 500 C0 335 0 170 0 0 Z M168 90 C167.82169835 91.93208837 167.73206583 93.87271372 167.6875 95.8125 C167.65011719 96.87082031 167.61273438 97.92914063 167.57421875 99.01953125 C167.78367178 102.06103807 167.78367178 102.06103807 169.62890625 104.37109375 C172.69638638 106.47840712 174.56413382 106.41025505 178.25 106.25 C179.86648437 106.19585937 179.86648437 106.19585937 181.515625 106.140625 C182.33546875 106.09421875 183.1553125 106.0478125 184 106 C187.55778385 100.93285331 188.41635263 98.04286677 187.45703125 91.91796875 C187.06057317 89.93139156 187.06057317 89.93139156 186 88 C185.34 88 184.68 88 184 88 C184 87.34 184 86.68 184 86 C179.12863643 85.62527973 171.69287972 86.30712028 168 90 Z M191 86 C191 92.93 191 99.86 191 107 C192.65 107 194.3 107 196 107 C196.66 104.03 197.32 101.06 198 98 C200.31986973 100.15987871 201.95873219 101.92105288 203.4375 104.75 C203.953125 105.4925 204.46875 106.235 205 107 C206.65 107 208.3 107 210 107 C210 100.07 210 93.14 210 86 C208.35 86 206.7 86 205 86 C205 89.63 205 93.26 205 97 C201.32966073 93.72291137 199.30718811 90.28477792 197 86 C195.02 86 193.04 86 191 86 Z M224 86 C224 87.32 224 88.64 224 90 C225.65 90 227.3 90 229 90 C229 95.61 229 101.22 229 107 C230.65 107 232.3 107 234 107 C234 101.39 234 95.78 234 90 C235.65 90 237.3 90 239 90 C239 88.68 239 87.36 239 86 C234.05 86 229.1 86 224 86 Z M241 86 C241 92.93 241 99.86 241 107 C241.99 107 242.98 107 244 107 C245.4783226 104.04335481 245.06032783 101.25770263 245 98 C248.3 98 251.6 98 255 98 C255 100.97 255 103.94 255 107 C256.32 107 257.64 107 259 107 C260.32719886 100.03220597 260.08825381 93.07011089 260 86 C258.35 86 256.7 86 255 86 C255 88.64 255 91.28 255 94 C251.7 94 248.4 94 245 94 C245 91.36 245 88.72 245 86 C243.68 86 242.36 86 241 86 Z M263 86 C263 92.93 263 99.86 263 107 C267.29 107 271.58 107 276 107 C276 105.68 276 104.36 276 103 C273.36 103 270.72 103 268 103 C268 101.35 268 99.7 268 98 C270.31 98 272.62 98 275 98 C275 96.68 275 95.36 275 94 C272.69 94 270.38 94 268 94 C268 92.68 268 91.36 268 90 C270.64 90 273.28 90 276 90 C276 88.68 276 87.36 276 86 C271.71 86 267.42 86 263 86 Z M291.109375 90.01953125 C288.93843701 93.8951142 289.08771141 97.74265326 290 102 C291.64711687 105.39723654 291.64711687 105.39723654 295 107 C299.81389019 107.20997582 304.36707863 106.21975297 309 105 C309.02689216 103.52093108 309.04634621 102.04172517 309.0625 100.5625 C309.07410156 99.73878906 309.08570313 98.91507813 309.09765625 98.06640625 C309.23267348 96.00836062 309.23267348 96.00836062 308 95 C305.66702567 94.95907063 303.33294775 94.95758277 301 95 C301 96.32 301 97.64 301 99 C301.99 99 302.98 99 304 99 C304 99.99 304 100.98 304 102 C297.125 100.125 297.125 100.125 296 99 C295.95907063 96.66702567 295.95758277 94.33294775 296 92 C296.886875 91.855625 297.77375 91.71125 298.6875 91.5625 C301.47117646 91.08980022 304.23483757 90.56929815 307 90 C307 89.01 307 88.02 307 87 C300.70547502 84.98575201 295.61711156 84.91803369 291.109375 90.01953125 Z M316 86 C316 86.66 316 87.32 316 88 C314.02 88.99 314.02 88.99 312 90 C311.94597726 92.10388569 311.90719744 94.20816714 311.875 96.3125 C311.85179687 97.48425781 311.82859375 98.65601562 311.8046875 99.86328125 C311.74679382 103.16393661 311.74679382 103.16393661 314 106 C317.69400239 107.23133413 321.15882474 107.59095004 325 107 C327.33454661 105.16641665 327.33454661 105.16641665 329 103 C329.99 102.67 330.98 102.34 332 102 C333.48510626 96.59961359 332.48304533 92.8567054 330 88 C328.1371051 85.69939466 328.1371051 85.69939466 325.1796875 85.8046875 C324.08914063 85.82789062 322.99859375 85.85109375 321.875 85.875 C320.23144531 85.90207031 320.23144531 85.90207031 318.5546875 85.9296875 C317.71164062 85.95289062 316.86859375 85.97609375 316 86 Z M212 97 C212 97.99 212 98.98 212 100 C214.97 100 217.94 100 221 100 C221 99.01 221 98.02 221 97 C218.03 97 215.06 97 212 97 Z M279 97 C279 97.99 279 98.98 279 100 C281.97 100 284.94 100 288 100 C288 99.01 288 98.02 288 97 C285.03 97 282.06 97 279 97 Z M298.515625 127.171875 C293.22587279 133.55229776 293.55921873 141.9416204 294.08813477 149.80078125 C294.71953165 155.94573634 296.13530186 160.86209939 301 165 C304.24495379 166.74011873 307.50009489 167.89268539 311 169 C311.495 169.495 311.495 169.495 312 170 C319.12103312 170.7634148 325.15633702 170.35711714 331 166 C336.3485495 161.0890591 339.90313911 155.23618139 340.50390625 147.9140625 C340.74212633 140.28750372 340.83673511 133.9064107 335.7890625 127.734375 C329.03596774 121.18770672 323.50728737 119.68617198 314.2265625 119.7890625 C307.90057514 120.20262584 303.14474298 122.87638714 298.515625 127.171875 Z M176 121 C172.10528588 128.57698928 168.66576504 136.26875049 165.375 144.125 C164.89804688 145.25292969 164.42109375 146.38085938 163.9296875 147.54296875 C162.60487073 150.68940857 161.2957224 153.84147865 160 157 C159.6690332 157.80663086 159.33806641 158.61326172 158.99707031 159.44433594 C157.63408798 162.89733104 157 165.22903668 157 169 C160.63 169 164.26 169 168 169 C170.29045014 164.18790099 170.29045014 164.18790099 171 159 C178.26 159 185.52 159 193 159 C193.495 161.97 193.495 161.97 194 165 C194.66 166.32 195.32 167.64 196 169 C199.96 169 203.92 169 208 169 C206.30675994 162.22703975 204.1363894 156.02703801 200.90625 149.8359375 C199.65860047 147.30837164 198.85600625 144.68215293 198 142 C197.01204503 139.66070433 196.01178666 137.32891238 195 135 C194.46413895 133.75160437 193.92897795 132.50290802 193.39453125 131.25390625 C193.13349609 130.64482422 192.87246094 130.03574219 192.60351562 129.40820312 C191.40234375 126.60546875 190.20117188 123.80273438 189 121 C184.71 121 180.42 121 176 121 Z M213 121 C212.75563452 125.37321987 212.54128989 129.74664889 212.35302734 134.12255859 C212.28514373 135.60666818 212.20948509 137.0904456 212.12548828 138.57373047 C211.60102735 147.94452043 211.21693477 156.85817065 217.30029297 164.66967773 C221.01163611 168.57185477 223.61093717 169.19192112 228.92578125 169.33203125 C229.69277344 169.34621094 230.45976562 169.36039063 231.25 169.375 C232.37728516 169.43107422 232.37728516 169.43107422 233.52734375 169.48828125 C237.6701847 169.55335205 240.25196154 169.23633173 243.546875 166.6015625 C246.22868197 164.35343802 246.22868197 164.35343802 246 162 C246.99 161.67 247.98 161.34 249 161 C251.3995127 156.80758177 251.26083585 152.55125532 251.1953125 147.85546875 C251.19106766 146.7007885 251.19106766 146.7007885 251.18673706 145.52278137 C251.17559157 143.07752575 251.15049781 140.63264388 251.125 138.1875 C251.1149629 136.52409385 251.10583833 134.86068193 251.09765625 133.19726562 C251.07567073 129.13136763 251.04118014 125.06574706 251 121 C247.37 121 243.74 121 240 121 C239.90912109 123.5678125 239.90912109 123.5678125 239.81640625 126.1875 C239.73195352 128.45834013 239.64730792 130.7291731 239.5625 133 C239.52318359 134.12535156 239.48386719 135.25070313 239.44335938 136.41015625 C238.81610145 152.91186473 238.81610145 152.91186473 236.5 156 C233.83780658 157.06487737 232.18254227 157.10334593 229.34375 157.0625 C228.53099609 157.05347656 227.71824219 157.04445312 226.88085938 157.03515625 C226.26017578 157.02355469 225.63949219 157.01195312 225 157 C224.97494385 156.15816162 224.9498877 155.31632324 224.92407227 154.44897461 C224.82839721 151.29733856 224.72919924 148.14583774 224.62768555 144.99438477 C224.58462706 143.6357042 224.54293435 142.27697959 224.50268555 140.91821289 C224.44427107 138.95447697 224.38038197 136.99090636 224.31640625 135.02734375 C224.27974854 133.84906006 224.24309082 132.67077637 224.20532227 131.45678711 C223.9956707 127.92711235 223.5478502 124.49181389 223 121 C219.7 121 216.4 121 213 121 Z M255 121 C255 123.97 255 126.94 255 130 C258.96 130 262.92 130 267 130 C267 142.87 267 155.74 267 169 C270.3 169 273.6 169 277 169 C277 156.13 277 143.26 277 130 C280.96 130 284.92 130 289 130 C289 127.03 289 124.06 289 121 C277.78 121 266.56 121 255 121 Z M144.26171875 192.82543945 C143.89393311 193.88189163 143.52614746 194.93834381 143.1472168 196.02680969 C141.76639228 199.60543065 140.08691401 200.81573481 137 203 C135.30297652 205.02819684 135.30297652 205.02819684 133.88671875 207.22265625 C133.0987793 208.40118164 133.0987793 208.40118164 132.29492188 209.60351562 C131.76447266 210.41498047 131.23402344 211.22644531 130.6875 212.0625 C130.13771484 212.87783203 129.58792969 213.69316406 129.02148438 214.53320312 C125.89839027 218.89342838 125.89839027 218.89342838 125 224 C124.01 224.33 123.02 224.66 122 225 C122 226.32 122 227.64 122 229 C121.01 229 120.02 229 119 229 C117.23662238 231.25491146 115.67685847 233.47938291 114.125 235.875 C113.14659523 237.342524 112.16603838 238.80861494 111.18359375 240.2734375 C110.40991455 241.43117676 110.40991455 241.43117676 109.62060547 242.61230469 C106.8911734 246.63367342 104.04162762 250.56660123 101.1875 254.5 C100.6610791 255.22815918 100.1346582 255.95631836 99.59228516 256.70654297 C96.52848765 260.93290341 93.41234733 265.11091093 90.22314453 269.24365234 C88.31402721 271.98500764 87.63633832 273.65431258 88 277 C90.01340105 279.43392152 92.43666233 281.17654564 95 283 C100.04344298 286.59824587 104.20754324 290.15237973 108.20703125 294.90234375 C110.13250305 297.15501991 112.12661024 299.3080409 114.1875 301.4375 C114.82042969 302.09621094 115.45335938 302.75492187 116.10546875 303.43359375 C118.10810653 305.08938293 119.46014048 305.60015515 122 306 C122.14695312 306.89912109 122.14695312 306.89912109 122.296875 307.81640625 C123.14252379 310.44261555 124.10010818 311.25030229 126.25 312.9375 C130.34882788 316.27511699 133.99024033 319.74462311 137.3125 323.875 C139.88712825 327.03073556 142.85884707 329.57224196 145.953125 332.20703125 C147.93309776 333.9413967 149.78272613 335.74604369 151.625 337.625 C153.71172641 339.74966689 155.8180483 341.74177412 158.125 343.625 C162.29175229 347.06709972 165.87350821 350.83552966 169.375 354.9375 C172.15903862 358.16335344 175.09894702 360.87302749 178.38671875 363.5703125 C180 365 180 365 182.4375 368 C185.56565639 371.66223187 189.09401204 374.23078768 193 377 C195.97433307 369.90173903 198.45790742 362.73897028 200.6875 355.375 C200.99494141 354.39015625 201.30238281 353.4053125 201.61914062 352.390625 C203.29079374 346.9037986 204.49088719 341.71563978 205 336 C205.99 335.67 206.98 335.34 208 335 C208.10957031 334.35933594 208.21914062 333.71867188 208.33203125 333.05859375 C209.08702213 328.93990365 209.846725 325.34333601 211.5625 321.5 C213.75526491 316.16109414 214.6927993 310.71346394 213.25 305.0625 C212.01282588 303.02116271 210.71414721 301.6427244 209 300 C208.72027344 299.37996094 208.44054687 298.75992188 208.15234375 298.12109375 C206.7949879 295.62263874 205.28216101 294.3858484 203.0625 292.625 C198.93403717 289.08096566 196.27126305 286.23429023 195.796875 280.578125 C195.72063396 276.2832131 195.88727792 272.17270781 197 268 C199.31 268.33 201.62 268.66 204 269 C204.33 269.99 204.66 270.98 205 272 C207.31 272.33 209.62 272.66 212 273 C212.45375 271.845 212.9075 270.69 213.375 269.5 C213.75785156 268.52546875 213.75785156 268.52546875 214.1484375 267.53125 C215.07462567 264.77817691 215.76061187 261.99285058 216.44677734 259.171875 C217.57625547 254.73770138 218.96742349 250.3741938 220.3203125 246.00390625 C221.38090047 242.4875521 222 239.7051751 222 236 C222.66 236 223.32 236 224 236 C224 235.34 224 234.68 224 234 C225.58294782 233.94562393 227.16644256 233.90703729 228.75 233.875 C230.07257813 233.84019531 230.07257813 233.84019531 231.421875 233.8046875 C234.19221088 234.01456143 235.71391367 234.43583567 238 236 C239.36258026 238.24724057 240.08046065 240.51724376 241 243 C241.61875 242.505 242.2375 242.01 242.875 241.5 C247.38244472 239.33642653 251.02636676 239.80105467 256 240 C256.99 242.97 257.98 245.94 259 249 C260.13888672 249.03867188 260.13888672 249.03867188 261.30078125 249.078125 C262.79158203 249.16320312 262.79158203 249.16320312 264.3125 249.25 C265.29863281 249.29640625 266.28476562 249.3428125 267.30078125 249.390625 C270 250 270 250 271.78125 251.8125 C273.41738 254.74914359 274.18772956 257.75091822 275 261 C275.66 260.67 276.32 260.34 277 260 C280.66716856 259.86234352 284.33103022 259.95733756 288 260 C288.46969576 268.806057 287.2692692 276.16265937 284.6875 284.5625 C284.06613171 286.66788774 283.44503589 288.77335592 282.82421875 290.87890625 C282.51790527 291.8961377 282.2115918 292.91336914 281.89599609 293.96142578 C280.76328304 297.80277365 279.73295489 301.66777832 278.72192383 305.54272461 C276.35112724 313.61241268 271.9751244 320.18384268 265 325 C264.38068604 325.29318115 263.76137207 325.5863623 263.12329102 325.88842773 C258.65185452 328.16050128 256.51407832 330.13786418 254.86328125 334.9296875 C254.3134753 336.90258959 253.79824215 338.88535586 253.3125 340.875 C253.02906738 341.93130615 252.74563477 342.9876123 252.45361328 344.07592773 C250.28943812 352.31239426 248.49558731 360.63189134 246.77490234 368.97070312 C245.37197521 375.66675503 243.47749933 381.92888201 241.19921875 388.3828125 C236.02018376 403.91553267 236.02018376 403.91553267 235 420 C236.91422496 422.91542329 236.91422496 422.91542329 240 425 C241.17500369 426.26312897 242.34131302 427.53438695 243.5 428.8125 C245.66338344 430.9524702 246.66407437 431.90402125 249.625 432.75 C252.29528552 431.90675194 253.62898126 430.69839808 255.47265625 428.625 C258.08225195 425.84855035 261.08780982 423.4999098 264.01171875 421.0625 C266.16313128 419.1015267 266.16313128 419.1015267 267.01953125 416.3125 C267.50486328 415.1678125 267.50486328 415.1678125 268 414 C269.32097945 413.6206556 270.6565462 413.28986339 272 413 C273.75466701 411.13321385 273.75466701 411.13321385 275.3125 408.8125 C278.04444677 405.11530437 280.81046665 402.27140098 284.37890625 399.40234375 C285.99833366 398.00144149 287.24734347 396.559913 288.5625 394.875 C291.13282787 391.84333123 293.67862274 390.14505615 297 388 C299.83459483 385.50041345 299.83459483 385.50041345 302 383 C302 382.34 302 381.68 302 381 C302.556875 380.7525 303.11375 380.505 303.6875 380.25 C307.18656627 378.35861283 310.41864399 376.60990894 311.8125 372.75 C311.874375 372.1725 311.93625 371.595 312 371 C313.32 370.67 314.64 370.34 316 370 C316 369.34 316 368.68 316 368 C316.5775 367.773125 317.155 367.54625 317.75 367.3125 C320.59591381 365.65238361 321.99841921 363.60812043 324 361 C328.77894555 356.05505817 333.8765899 351.43934897 338.94140625 346.79101562 C343.05907597 342.96746517 346.81099427 339.03203242 350.36376953 334.67504883 C352 333 352 333 354.07373047 331.96362305 C357.0513908 330.47403809 358.19860498 327.73114728 360 325 C360.99 324.67 361.98 324.34 363 324 C364.26569753 322.53957977 365.52729138 321.07403635 366.7265625 319.55859375 C368 318 368 318 370.3125 315.75 C372.23137852 314.16523212 372.23137852 314.16523212 372 312 C372.66 312 373.32 312 374 312 C374 311.34 374 310.68 374 310 C374.5775 309.95875 375.155 309.9175 375.75 309.875 C379.09260279 308.57509891 380.05640213 305.94484525 382 303 C382.75023437 302.5565625 383.50046875 302.113125 384.2734375 301.65625 C387.56150571 299.65891344 390.04882981 297.1321411 392.6875 294.375 C397.76115242 289.11942379 397.76115242 289.11942379 400 288 C400.45375 287.195625 400.9075 286.39125 401.375 285.5625 C403.14510491 282.77118071 404.13836165 282.38466372 407 281 C408.13350534 278.98330173 408.13350534 278.98330173 409 277 C409.66 276.67 410.32 276.34 411 276 C409.66525879 269.58984159 406.71743541 265.31044817 402.8125 260.125 C402.22460693 259.32707031 401.63671387 258.52914062 401.03100586 257.70703125 C397.60627352 253.07694089 394.08917641 248.52957378 390.48828125 244.03515625 C388.14125358 240.82570371 386.25169334 237.36337787 384.359375 233.87109375 C383.68648438 232.94490234 383.68648438 232.94490234 383 232 C382.01 232 381.02 232 380 232 C379.67 230.02 379.34 228.04 379 226 C378.01 226 377.02 226 376 226 C375.87625 225.236875 375.7525 224.47375 375.625 223.6875 C375.11897208 220.79732864 375.11897208 220.79732864 373 218 C372.01 218 371.02 218 370 218 C369.814375 216.989375 369.62875 215.97875 369.4375 214.9375 C368.27197746 210.77491951 365.92619652 208.81826031 362.8046875 205.96875 C360.13711552 203.05867148 358.75917301 199.74814537 357.23828125 196.13671875 C355.77048736 193.603964 354.55095846 193.27288151 352 192 C351.38012695 189.94018555 351.38012695 189.94018555 351 188 C331.26364368 187.65494765 311.52723977 187.40158258 291.78878784 187.21247864 C279.95827759 187.09682932 268.12892506 186.94598189 256.29931641 186.75927734 C243.7292923 186.56111941 231.15945041 186.41188394 218.58827877 186.30907249 C211.59131906 186.25044875 204.59592881 186.17012419 197.59994507 186.03759766 C190.92445383 185.91117393 184.25111766 185.84653309 177.57434654 185.82203102 C175.08707396 185.80281551 172.59986607 185.76275874 170.11329079 185.70081139 C155.08347595 184.4281517 155.08347595 184.4281517 144.26171875 192.82543945 Z " fill="#000000" transform="translate(0,0)"/>
<path d="M0 0 C0.83241855 3.32967418 1.2757381 5.75266665 0 9 C-3.04300316 10.52150158 -5.654085 10.23899393 -9 10 C-11.31361802 6.52957297 -11.51020728 5.08165827 -11 1 C-7.67346859 -3.2579602 -4.59042108 -1.67726924 0 0 Z " fill="#000000" transform="translate(183,92)"/>
<path d="M0 0 C2.31 0 4.62 0 7 0 C8.625 2.75 8.625 2.75 10 6 C9.14678163 8.79235104 8.07142404 9.92857596 6 12 C3.69 11.34 1.38 10.68 -1 10 C-1.125 2.25 -1.125 2.25 0 0 Z " fill="#000000" transform="translate(317,91)"/>
<path d="M0 0 C3.81913775 2.42368357 4.67634576 3.89957559 5.9375 8.1875 C6.03422055 14.08745384 5.71771898 19.79917255 2 24.5625 C-1.95418099 27.40456758 -4.63994306 27.18380033 -9.3828125 26.61328125 C-13.74860174 25.59025303 -16.55879885 23.78756057 -19 20 C-20.69040674 14.51036226 -20.67102347 9.61270059 -18.25 4.375 C-14.75931221 -2.00722767 -6.37895419 -0.69544989 0 0 Z " fill="#000000" transform="translate(324,132)"/>
<path d="M0 0 C2 1 2 1 2.8515625 2.9609375 C3.10679687 3.75757813 3.36203125 4.55421875 3.625 5.375 C3.88539063 6.16648438 4.14578125 6.95796875 4.4140625 7.7734375 C5 10 5 10 5 13 C1.37 13 -2.26 13 -6 13 C-6 11.35 -6 9.7 -6 8 C-5.34 7.67 -4.68 7.34 -4 7 C-2.96708324 5.01679982 -1.9662501 3.01652194 -1 1 C-0.67 0.67 -0.34 0.34 0 0 Z " fill="#000000" transform="translate(183,136)"/>
<path d="M0 0 C6.75792326 5.84159468 10.44288236 10.43757998 11.125 19.5 C11.20878906 20.58667969 11.29257813 21.67335937 11.37890625 22.79296875 C11.43949219 23.62441406 11.50007813 24.45585937 11.5625 25.3125 C12.1915625 25.54324219 12.820625 25.77398437 13.46875 26.01171875 C19.28223217 28.22679554 24.42230211 30.8091249 29.5625 34.3125 C29.36914062 35.00214844 29.17578125 35.69179687 28.9765625 36.40234375 C27.33011853 42.34421334 25.84764381 48.28220983 24.5625 54.3125 C20.43498551 53.70551257 17.2303852 52.27439209 13.5625 50.3125 C13.5625 49.6525 13.5625 48.9925 13.5625 48.3125 C12.655 48.02375 11.7475 47.735 10.8125 47.4375 C7.5625 46.3125 7.5625 46.3125 5.625 45.1875 C1.66158972 43.50605322 -2.20523998 43.86440545 -6.1875 45.3125 C-11.9470688 47.08467502 -17.92466074 47.19938444 -23.625 45.1875 C-36.29464286 36.74107143 -36.29464286 36.74107143 -38.4375 30.3125 C-38.56531786 27.63855036 -38.48141871 24.99154143 -38.4375 22.3125 C-34.70898323 23.31283377 -32.06938891 24.50906709 -29.125 26.9375 C-25.07898762 30.03097583 -21.34798887 29.81357029 -16.4375 29.3125 C-15.42605432 27.08792155 -14.42829735 24.85875709 -13.4375 22.625 C-13.15132812 21.99916016 -12.86515625 21.37332031 -12.5703125 20.72851562 C-10.27798962 15.67527046 -10.27798962 15.67527046 -10.4375 10.3125 C-12.82046517 8.2782934 -12.82046517 8.2782934 -15.875 6.6875 C-21.34101337 3.60195988 -21.34101337 3.60195988 -22.4375 0.3125 C-23.4275 0.3125 -24.4175 0.3125 -25.4375 0.3125 C-24.8125 -1.625 -24.8125 -1.625 -23.4375 -3.6875 C-15.6895024 -5.60197615 -6.57713389 -4.73959167 0 0 Z " fill="#000000" transform="translate(186.4375,205.6875)"/>
<path d="M0 0 C2.37491987 0.89059495 4.62041511 1.75676267 6.76171875 3.12890625 C9.73006447 4.95326478 11.78571503 6.2150083 15.31640625 5.58984375 C16.98102527 5.01537651 18.64105133 4.42747222 20.296875 3.828125 C27.12356849 1.73671023 33.92005186 2.13348492 40.4375 5 C45.31400111 7.75084678 47.53975792 11.0980837 50 16 C50.54269531 16.77472656 51.08539063 17.54945313 51.64453125 18.34765625 C53.35762224 21.69978531 53.15269831 23.72129492 52.75 27.4375 C52.64171875 28.52933594 52.5334375 29.62117188 52.421875 30.74609375 C51.17939322 40.32930969 51.17939322 40.32930969 48 43 C47.34 43.99 46.68 44.98 46 46 C43.67699152 47.41961629 41.40654702 48.74595545 39 50 C38.401875 50.35964844 37.80375 50.71929687 37.1875 51.08984375 C31.37985493 53.50623893 23.84322939 53.0526317 18.03515625 50.90234375 C12.91161324 48.01312777 8.22409098 44.59001439 6 39 C5.41236227 35.62516385 5.0042341 32.30689571 4.75 28.890625 C4.27556367 25.81952394 4.27556367 25.81952394 1.625 24.234375 C0.75875 23.82703125 -0.1075 23.4196875 -1 23 C-1.99 22.34 -2.98 21.68 -4 21 C-2.07289294 6.21867882 -2.07289294 6.21867882 0 0 Z M16 17.0625 C14.83465414 19.52841158 14.83465414 19.52841158 14 22 C13.4225 23.134375 12.845 24.26875 12.25 25.4375 C11.85619451 31.04922824 14.90603864 34.51411663 18 39 C18.43183594 39.91652344 18.86367188 40.83304687 19.30859375 41.77734375 C20.84668164 44.31334127 20.84668164 44.31334127 23.9609375 44.55859375 C25.08757812 44.51863281 26.21421875 44.47867188 27.375 44.4375 C29.05722656 44.40462891 29.05722656 44.40462891 30.7734375 44.37109375 C35.53254415 43.82373887 38.00569305 43.24571916 41.0546875 39.42578125 C44.830287 33.13762254 44.830287 33.13762254 46.1875 26.0625 C44.89499682 22.72920231 43.37547324 20.65494068 41 18 C40.64292969 17.1440625 40.28585937 16.288125 39.91796875 15.40625 C37.73117001 12.66273061 37.3017148 12.58417382 33.98046875 12.1953125 C32.38391281 12.13156345 30.78525663 12.10988178 29.1875 12.125 C27.96063477 12.13164673 27.96063477 12.13164673 26.70898438 12.13842773 C21.81616897 12.37229007 18.91030264 12.77401878 16 17.0625 Z " fill="#000000" transform="translate(290,285)"/>
</svg>
