<?xml version="1.0" encoding="UTF-8"?>
<svg version="1.1" xmlns="http://www.w3.org/2000/svg" width="500" height="500">
<path d="M0 0 C165 0 330 0 500 0 C500 165 500 330 500 500 C335 500 170 500 0 500 C0 335 0 170 0 0 Z " fill="#3B3B5F" transform="translate(0,0)"/>
<path d="M0 0 C0.77140735 0.02038989 1.5428147 0.04077978 2.33759803 0.06178755 C3.58132258 0.05281608 3.58132258 0.05281608 4.85017288 0.04366338 C7.62726757 0.03213674 10.40139843 0.07061822 13.17821997 0.10889143 C15.16907925 0.11086603 17.15994362 0.10975744 19.15079993 0.10579389 C24.5557361 0.10378378 29.95958692 0.14496497 35.36427063 0.1938116 C41.01233686 0.23754319 46.66042743 0.24168055 52.30863684 0.24998945 C63.00433268 0.27175438 73.69952823 0.32920892 84.39500368 0.39943588 C96.57135894 0.47765242 108.74773799 0.51615915 120.9242819 0.55130392 C145.97234015 0.6244904 171.01995419 0.74763096 196.06762427 0.90356916 C196.39762427 2.22356916 196.72762427 3.54356916 197.06762427 4.90356916 C197.72762427 4.90356916 198.38762427 4.90356916 199.06762427 4.90356916 C200.54809302 6.99341291 200.54809302 6.99341291 202.25512427 9.84106916 C204.60783348 13.6703741 207.03970113 17.23387678 209.88012427 20.71606916 C212.49230462 23.97250924 214.11342564 26.76870844 215.06762427 30.90356916 C215.72762427 30.90356916 216.38762427 30.90356916 217.06762427 30.90356916 C221.06762427 36.31533387 221.06762427 36.31533387 221.06762427 38.90356916 C221.72762427 38.90356916 222.38762427 38.90356916 223.06762427 38.90356916 C225.06762427 41.90356916 225.06762427 41.90356916 225.06762427 44.90356916 C225.72762427 44.90356916 226.38762427 44.90356916 227.06762427 44.90356916 C228.9230335 47.32633494 230.66308309 49.7597487 232.38012427 52.27856916 C233.45850193 53.83528623 234.53796729 55.39125027 235.61840552 56.94653791 C236.18124243 57.75913069 236.74407935 58.57172346 237.32397193 59.40894026 C240.71810217 64.26489417 244.21590576 69.04630496 247.70165747 73.83667463 C249.1649001 75.85343368 250.61903129 77.87626955 252.06762427 79.90356916 C252.69217505 80.76716047 252.69217505 80.76716047 253.32934302 81.64819807 C255.20456745 84.32203782 256.06762427 85.55523089 256.06762427 88.90356916 C255.40762427 88.90356916 254.74762427 88.90356916 254.06762427 88.90356916 C253.72731177 89.73888166 253.72731177 89.73888166 253.38012427 90.59106916 C250.1891316 96.21329434 244.40886539 100.29734015 239.64184302 104.54419416 C236.52208344 107.40357927 233.57743428 110.40452708 230.66137427 113.46997541 C229.06762427 114.90356916 229.06762427 114.90356916 227.06762427 114.90356916 C226.69637427 115.76981916 226.69637427 115.76981916 226.31762427 116.65356916 C224.88462439 119.23296895 223.28337751 120.96478508 221.06762427 122.90356916 C220.40762427 122.90356916 219.74762427 122.90356916 219.06762427 122.90356916 C219.06762427 123.56356916 219.06762427 124.22356916 219.06762427 124.90356916 C216.49560383 127.70253259 213.75662897 130.1915919 210.81762427 132.59106916 C208.05020233 134.60780136 208.05020233 134.60780136 207.06762427 136.90356916 C206.40762427 136.90356916 205.74762427 136.90356916 205.06762427 136.90356916 C204.8533982 137.45561018 204.63917212 138.00765119 204.41845435 138.57642072 C202.61399859 141.68505479 200.12104531 143.78986568 197.45434302 146.13794416 C192.17535781 150.89698309 187.08645204 155.80485891 182.08715552 160.85669416 C181.41497992 161.53453962 180.74280432 162.21238508 180.05025977 162.91077131 C177.27894764 165.70906158 174.51208722 168.51168767 171.74902076 171.31811994 C169.69934469 173.39776135 167.64367769 175.4713259 165.58715552 177.54419416 C164.6466812 178.50485792 164.6466812 178.50485792 163.6872074 179.48492903 C162.18485802 180.99605245 160.63085043 182.45551127 159.06762427 183.90356916 C158.40762427 183.90356916 157.74762427 183.90356916 157.06762427 183.90356916 C156.84074927 184.48106916 156.61387427 185.05856916 156.38012427 185.65356916 C154.72978949 188.4827145 152.63503851 189.88631512 150.06762427 191.90356916 C149.46949927 192.66669416 148.87137427 193.42981916 148.25512427 194.21606916 C145.77414942 197.26412398 143.01795615 199.64800274 140.03246802 202.18872541 C138.32768558 203.67659717 136.75359699 205.20598497 135.19262427 206.84106916 C133.06762427 208.90356916 133.06762427 208.90356916 131.06762427 208.90356916 C130.86137427 209.43981916 130.65512427 209.97606916 130.44262427 210.52856916 C128.53512001 213.82334925 126.01943043 216.49720544 123.06762427 218.90356916 C122.40762427 218.90356916 121.74762427 218.90356916 121.06762427 218.90356916 C120.82012427 219.48106916 120.57262427 220.05856916 120.31762427 220.65356916 C118.88462439 223.23296895 117.28337751 224.96478508 115.06762427 226.90356916 C114.40762427 226.90356916 113.74762427 226.90356916 113.06762427 226.90356916 C112.84074927 227.48106916 112.61387427 228.05856916 112.38012427 228.65356916 C110.72978949 231.4827145 108.63503851 232.88631512 106.06762427 234.90356916 C105.10856177 236.11013166 105.10856177 236.11013166 104.13012427 237.34106916 C101.63469228 240.44145436 99.32349159 242.59732981 96.06762427 244.90356916 C94.00512427 245.02856916 94.00512427 245.02856916 92.06762427 243.90356916 C89.75512427 241.77856916 89.75512427 241.77856916 87.06762427 238.90356916 C86.42567115 238.40856916 85.78371802 237.91356916 85.12231177 237.40356916 C82.99840236 235.67112541 81.54259248 234.2189691 80.06762427 231.90356916 C80.10278052 229.54956526 80.10278052 229.54956526 80.69262427 226.92700666 C81.0088877 225.47028547 81.0088877 225.47028547 81.33154029 223.98413557 C81.574448 222.96754865 81.81735572 221.95096174 82.06762427 220.90356916 C82.29570777 219.90374006 82.52379126 218.90391096 82.75878638 217.87378401 C83.47770382 214.79228619 84.2358643 211.7228583 85.00512427 208.65356916 C85.25713599 207.61716291 85.50914771 206.58075666 85.76879615 205.51294416 C86.82838093 201.26376528 87.8970114 197.29827058 89.63793677 193.27075666 C91.44705519 189.00993677 92.1978531 184.81817025 93.00512427 180.27856916 C94.31070286 173.361271 95.83371631 166.68774448 98.08715552 160.00513166 C99.14227974 156.82639777 99.14227974 156.82639777 99.89184302 153.17700666 C102.04306229 143.77393964 102.04306229 143.77393964 105.04028052 141.22778791 C106.57213051 140.46317668 108.12570222 139.74076936 109.69653052 139.05981916 C117.63351738 135.18939394 121.168912 127.33808554 123.9836399 119.41553205 C126.24601099 112.68373156 128.14742084 105.8447023 129.96606177 98.98169416 C130.83441978 95.70922925 131.82408154 92.49604513 132.88012427 89.27856916 C134.59154911 83.67051038 134.6202986 78.58836064 133.06762427 72.90356916 C131.27603938 72.87660551 129.48433954 72.85718999 127.69262427 72.84106916 C126.6948899 72.8294676 125.69715552 72.81786604 124.66918677 72.80591291 C122.08329974 72.72350314 122.08329974 72.72350314 120.06762427 73.90356916 C119.95547583 72.98124494 119.95547583 72.98124494 119.84106177 72.04028791 C119.02746446 66.68880949 119.02746446 66.68880949 115.44262427 62.84106916 C111.40628272 61.71986318 108.24187403 61.68765969 104.06762427 61.90356916 C103.66543677 60.51138166 103.66543677 60.51138166 103.25512427 59.09106916 C101.97102993 55.29602506 101.97102993 55.29602506 99.06762427 52.90356916 C93.64427124 52.37872855 90.55241416 52.53997674 86.06762427 55.90356916 C85.4165826 54.14575666 84.76554094 52.38794416 84.11449927 50.63013166 C82.72385512 48.33660661 81.58629539 47.79042519 79.06762427 46.90356916 C76.47607508 46.66326957 76.47607508 46.66326957 73.81762427 46.77856916 C72.92559302 46.79661604 72.03356177 46.81466291 71.11449927 46.83325666 C70.43903052 46.85645979 69.76356177 46.87966291 69.06762427 46.90356916 C69.06762427 47.56356916 69.06762427 48.22356916 69.06762427 48.90356916 C68.40762427 48.90356916 67.74762427 48.90356916 67.06762427 48.90356916 C66.93871802 49.76337385 66.80981177 50.62317854 66.67699927 51.50903791 C66.08009528 54.83409925 65.26482131 57.97463666 64.31762427 61.21606916 C63.96699927 62.4213426 63.61637427 63.62661604 63.25512427 64.86841291 C62.85955705 66.21354328 62.46370708 67.55859052 62.06762427 68.90356916 C61.60919138 70.46734206 61.15086142 72.03114514 60.69262427 73.59497541 C59.48859564 77.69911673 58.27931887 81.80168498 57.06762427 85.90356916 C54.42762427 85.24356916 51.78762427 84.58356916 49.06762427 83.90356916 C49.06762427 83.24356916 49.06762427 82.58356916 49.06762427 81.90356916 C46.75762427 81.57356916 44.44762427 81.24356916 42.06762427 80.90356916 C40.01417291 85.90885684 39.07226072 90.5656018 40.06762427 95.90356916 C42.71682909 101.61680091 46.57146661 105.48515795 51.38793677 109.39185041 C55.0670623 112.70306339 57.64147719 116.39133068 58.47778052 121.32153791 C58.66052222 126.4462507 57.73074199 130.74871352 55.93481177 135.52075666 C54.34494964 139.88929676 53.2515963 144.41119301 52.06762427 148.90356916 C51.40762427 148.90356916 50.74762427 148.90356916 50.06762427 148.90356916 C49.96965552 149.47752424 49.87168677 150.05147932 49.77074927 150.64282697 C48.4447331 157.85303989 46.35620165 164.6966256 44.06762427 171.65356916 C43.71184302 172.75056135 43.35606177 173.84755354 42.98949927 174.97778791 C41.37088239 179.96047048 39.72709097 184.93434753 38.06762427 189.90356916 C32.93151927 185.61021007 28.14346973 181.10401929 23.44262427 176.34106916 C22.80067115 175.69460432 22.15871802 175.04813947 21.49731177 174.38208479 C18.76910358 171.63430953 16.04595163 168.88161867 13.32543677 166.12622541 C11.46015145 164.28998433 9.57949774 162.57380374 7.56762427 160.90356916 C5.10513487 158.85923834 2.83631591 156.68566358 0.57888526 154.41806501 C-1.08678175 152.74883263 -2.76140577 151.08893934 -4.43750268 149.43018049 C-7.95686388 145.94630158 -11.47020623 142.45642112 -14.98144799 138.96436018 C-16.49759228 137.45835513 -18.01551459 135.95413808 -19.53515893 134.45166487 C-21.73082763 132.2801218 -23.92009111 130.1023005 -26.10815698 127.92310041 C-26.79243264 127.24914732 -27.47670831 126.57519422 -28.1817196 125.88081831 C-28.80624521 125.25644377 -29.43077081 124.63206922 -30.07422143 123.98877424 C-30.62761697 123.43981992 -31.18101251 122.89086561 -31.75117761 122.32527632 C-32.93237573 120.90356916 -32.93237573 120.90356916 -32.93237573 118.90356916 C-33.98425073 118.62513166 -33.98425073 118.62513166 -35.05737573 118.34106916 C-38.45008455 116.64471475 -39.97976666 114.67903849 -42.32690698 111.77075666 C-44.42743765 109.32780371 -46.79434087 107.3574727 -49.27221948 105.30981916 C-51.62972322 103.31287481 -53.74864132 101.08730358 -55.93237573 98.90356916 C-56.77800073 98.24356916 -57.62362573 97.58356916 -58.49487573 96.90356916 C-61.05965035 94.7991387 -62.8924621 92.50621759 -64.93237573 89.90356916 C-65.59237573 89.57356916 -66.25237573 89.24356916 -66.93237573 88.90356916 C-66.33135384 85.80664876 -65.37979835 83.85247746 -63.45581323 81.36450666 C-62.95348169 80.70684309 -62.45115014 80.04917951 -61.93359643 79.37158674 C-61.3969436 78.68089094 -60.86029077 77.99019514 -60.30737573 77.27856916 C-59.2033724 75.83282344 -58.10050242 74.38621155 -56.99878198 72.93872541 C-56.20044946 71.89289289 -56.20044946 71.89289289 -55.38598901 70.82593244 C-52.44533236 66.93699551 -49.68942099 62.92347869 -46.93237573 58.90356916 C-45.75410905 57.19531493 -44.57443472 55.48804307 -43.39404565 53.78125471 C-42.24378013 52.11739088 -41.09582484 50.45193064 -39.94800073 48.78638166 C-39.28284448 47.83505354 -38.61768823 46.88372541 -37.93237573 45.90356916 C-37.39096948 45.11724104 -36.84956323 44.33091291 -36.29175073 43.52075666 C-35.84315698 42.98708479 -35.39456323 42.45341291 -34.93237573 41.90356916 C-34.27237573 41.90356916 -33.61237573 41.90356916 -32.93237573 41.90356916 C-32.60237573 40.25356916 -32.27237573 38.60356916 -31.93237573 36.90356916 C-31.27237573 36.90356916 -30.61237573 36.90356916 -29.93237573 36.90356916 C-29.77478784 36.04529524 -29.77478784 36.04529524 -29.61401635 35.16968244 C-28.82142082 32.53469973 -27.66096287 30.85535668 -26.02612573 28.64575666 C-25.15794214 27.46046369 -25.15794214 27.46046369 -24.27221948 26.25122541 C-23.66507104 25.43524885 -23.0579226 24.61927229 -22.43237573 23.77856916 C-21.23331006 22.15181128 -20.03533882 20.52424597 -18.83862573 18.89575666 C-18.30559839 18.17758772 -17.77257104 17.45941877 -17.22339135 16.71948713 C-15.88250397 14.93196976 -15.88250397 14.93196976 -14.93237573 12.90356916 C-14.27237573 12.90356916 -13.61237573 12.90356916 -12.93237573 12.90356916 C-12.59206323 11.88263166 -12.59206323 11.88263166 -12.24487573 10.84106916 C-7.46614795 0.14582128 -7.46614795 0.14582128 0 0 Z " fill="#FDFDFD" transform="translate(154.93237572908401,187.09643083810806)"/>
<path d="M0 0 C0.9837291 3.46126905 0.73757891 5.4760119 0 9 C-0.30592124 13.65941009 -0.30592124 13.65941009 1 18 C0.71887936 20.00800456 0.38932033 22.01014051 0 24 C1.11375 24.433125 1.11375 24.433125 2.25 24.875 C3.61125 25.431875 3.61125 25.431875 5 26 C6.06154297 26.38865234 6.06154297 26.38865234 7.14453125 26.78515625 C9 28 9 28 9.43359375 30.06640625 C9.43552734 31.30197266 9.43552734 31.30197266 9.4375 32.5625 C9.88510483 39.6021032 12.6901768 45.24509811 18 49.9375 C24.47869711 54.39160426 30.29945068 54.68517504 38 54 C40.62037061 53.26553808 42.56522138 52.29192335 45 51 C45.928125 50.690625 46.85625 50.38125 47.8125 50.0625 C50.49410016 48.76000849 50.83338072 47.66655836 52 45 C52.99 44.34 53.98 43.68 55 43 C55 43.66 55 44.32 55 45 C56.1446875 45.185625 56.1446875 45.185625 57.3125 45.375 C60 46 60 46 63 48 C62.505 48.99 62.505 48.99 62 50 C62.66 50 63.32 50 64 50 C64.495 49.01 64.495 49.01 65 48 C65.66 48.66 66.32 49.32 67 50 C61.48939605 55.56115364 55.97109214 61.11457778 50.44726562 66.66259766 C48.56695066 68.55186844 46.68962782 70.44398189 44.81347656 72.33740234 C42.12249981 75.05253253 39.42521238 77.76124899 36.7265625 80.46875 C35.88380768 81.32182739 35.04105286 82.17490479 34.17276001 83.05383301 C33.39210175 83.83464233 32.61144348 84.61545166 31.80712891 85.41992188 C31.11873932 86.11275269 30.43034973 86.8055835 29.72109985 87.51940918 C28 89 28 89 26 89 C25.773125 89.5775 25.54625 90.155 25.3125 90.75 C23.66216522 93.57914534 21.56741423 94.98274596 19 97 C18.401875 97.763125 17.80375 98.52625 17.1875 99.3125 C14.70652515 102.36055482 11.95033188 104.74443358 8.96484375 107.28515625 C7.26006131 108.773028 5.68597272 110.30241581 4.125 111.9375 C2 114 2 114 0 114 C-0.20625 114.53625 -0.4125 115.0725 -0.625 115.625 C-2.53250426 118.91978009 -5.04819384 121.59363628 -8 124 C-8.66 124 -9.32 124 -10 124 C-10.2475 124.5775 -10.495 125.155 -10.75 125.75 C-12.18299988 128.32939979 -13.78424676 130.06121592 -16 132 C-16.66 132 -17.32 132 -18 132 C-18.226875 132.5775 -18.45375 133.155 -18.6875 133.75 C-20.33783478 136.57914534 -22.43258577 137.98274596 -25 140 C-25.639375 140.804375 -26.27875 141.60875 -26.9375 142.4375 C-29.43293199 145.5378852 -31.74413268 147.69376065 -35 150 C-37.0625 150.125 -37.0625 150.125 -39 149 C-41.3125 146.875 -41.3125 146.875 -44 144 C-44.96292969 143.2575 -44.96292969 143.2575 -45.9453125 142.5 C-48.06922191 140.76755625 -49.52503179 139.31539994 -51 137 C-50.96484375 134.64599609 -50.96484375 134.64599609 -50.375 132.0234375 C-50.16415771 131.05229004 -49.95331543 130.08114258 -49.73608398 129.08056641 C-49.49317627 128.06397949 -49.25026855 127.04739258 -49 126 C-48.65787476 124.50025635 -48.65787476 124.50025635 -48.30883789 122.97021484 C-47.58992045 119.88871702 -46.83175997 116.81928914 -46.0625 113.75 C-45.68448242 112.19539063 -45.68448242 112.19539063 -45.29882812 110.609375 C-44.23924334 106.36019612 -43.17061287 102.39470141 -41.4296875 98.3671875 C-39.62056908 94.10636761 -38.86977117 89.91460109 -38.0625 85.375 C-36.75692141 78.45770184 -35.23390796 71.78417532 -32.98046875 65.1015625 C-31.92534453 61.92282861 -31.92534453 61.92282861 -31.17578125 58.2734375 C-29.02456198 48.87037048 -29.02456198 48.87037048 -26.02734375 46.32421875 C-24.49549376 45.55960752 -22.94192205 44.8372002 -21.37109375 44.15625 C-13.44075617 40.28906726 -9.90730001 32.4487676 -7.09057617 24.53393555 C-4.37544007 16.46198567 -2.15436411 8.23615307 0 0 Z " fill="#FCFCFC" transform="translate(286,282)"/>
<path d="M0 0 C4.13497049 0.80636613 7.15721765 2.81897876 10.68359375 5.0390625 C14.43189881 6.59400861 17.10344841 5.34639493 20.75 3.9375 C28.817234 1.61041327 35.66953066 3.03307351 43 7 C45.9375 9.5 45.9375 9.5 48 12 C48.556875 12.66 49.11375 13.32 49.6875 14 C53.64415715 20.02919184 53.59081745 26.00108556 53 33 C51.42001609 40.03496485 47.98234707 44.85426007 42 48.75 C35.69154962 52.64349672 29.2644186 52.52796582 22 52 C15.61614306 49.83189764 9.92368539 45.16612053 6.625 39.25 C5.11035934 35.99540024 4.84448633 33.31948343 4.75 29.75 C4.70599607 27.23745819 4.70599607 27.23745819 4 25 C1.55354273 22.96563254 -0.97378401 21.92371969 -4 21 C-3.54034292 13.69303751 -2.11670277 7.00242552 0 0 Z " fill="#3D415B" transform="translate(290,285)"/>
<path d="M0 0 C4.84967783 4.51649386 8.70897036 8.87312338 9.3359375 15.609375 C9.55857049 25.70328713 8.6327996 32.24149773 1.6875 39.8125 C-3.75981657 44.86742512 -9.16004965 46.58997182 -16.5078125 46.35546875 C-20.53852945 45.78055458 -23.60500677 44.17705844 -27 42 C-27.886875 41.46375 -28.77375 40.9275 -29.6875 40.375 C-35.47598583 34.43006861 -37.51440616 28.12282137 -37.625 19.875 C-37.50880454 13.43732462 -36.6695133 8.62647631 -32 4 C-22.5327933 -4.59123739 -11.38633226 -7.59088817 0 0 Z " fill="#F3F3F5" transform="translate(331,124)"/>
<path d="M0 0 C6.78719261 4.25863066 13.13841802 8.94027753 15.1875 17 C15.39709938 20.68296047 15.36733887 24.31663342 15.1875 28 C15.72117188 28.14695313 16.25484375 28.29390625 16.8046875 28.4453125 C23.22938599 30.37939129 28.56532622 33.37316973 34.1875 37 C33.54096673 43.95023264 31.32722752 50.38177303 29.1875 57 C25.65130017 56.43024451 22.97249849 55.53941412 19.875 53.75 C19.09769531 53.30914062 18.32039063 52.86828125 17.51953125 52.4140625 C16.00817288 51.49762744 14.52309161 50.5357738 13.07421875 49.5234375 C9.51077495 47.04632511 7.90755796 45.98799903 3.4375 46.0625 C0.33441625 46.82919608 0.33441625 46.82919608 -1.71484375 48.04296875 C-6.56184439 50.25435638 -12.4134535 49.26083918 -17.5 48.3125 C-23.51425099 45.92949489 -28.22255446 42.45139878 -31.8125 37 C-33.574057 32.86034104 -34.02593713 29.48217981 -33.8125 25 C-29.70158298 26.05408129 -26.76636472 27.6627763 -23.375 30.125 C-19.21519765 33.02981113 -16.80949578 33.63791435 -11.8125 33 C-11.6990625 32.42894531 -11.585625 31.85789063 -11.46875 31.26953125 C-10.52544282 28.00726059 -8.74405621 25.38626979 -6.96875 22.51171875 C-5.52376875 19.37278988 -5.17892577 16.41858591 -4.8125 13 C-6.22015625 12.16855469 -6.22015625 12.16855469 -7.65625 11.3203125 C-8.87522984 10.5889246 -10.09396745 9.85713286 -11.3125 9.125 C-12.24255859 8.57779297 -12.24255859 8.57779297 -13.19140625 8.01953125 C-14.76617458 7.0677482 -16.29379053 6.03889741 -17.8125 5 C-17.8125 4.34 -17.8125 3.68 -17.8125 3 C-18.8025 3 -19.7925 3 -20.8125 3 C-20.4825 2.01 -20.1525 1.02 -19.8125 0 C-14.3110562 -2.7507219 -5.75351918 -1.50911978 0 0 Z " fill="#3B3E5D" transform="translate(181.8125,203)"/>
<path d="M0 0 C3.96 0 7.92 0 12 0 C16.00784366 7.64544772 19.07581271 15.586982 22.20117188 23.625 C24.51966988 29.51620668 26.98587904 35.18983178 29.98657227 40.76806641 C31 43 31 43 32 48 C28.37 48 24.74 48 21 48 C17 41.375 17 41.375 17 38 C9.74 38 2.48 38 -5 38 C-5.495 40.475 -5.495 40.475 -6 43 C-6.99 45.475 -6.99 45.475 -8 48 C-11.63 48 -15.26 48 -19 48 C-18.62188138 44.31334344 -17.76684723 41.26099386 -16.23046875 37.921875 C-13.93867185 32.87242289 -11.74365445 27.78559186 -9.5625 22.6875 C-9.17070557 21.77266846 -8.77891113 20.85783691 -8.37524414 19.9152832 C-5.5431908 13.29309517 -2.75124163 6.65622975 0 0 Z " fill="#F5F4F7" transform="translate(176,121)"/>
<path d="M0 0 C3.3 0 6.6 0 10 0 C10.02505615 0.91289795 10.0501123 1.8257959 10.07592773 2.76635742 C10.17131607 6.16767631 10.27053402 9.56883939 10.37231445 12.9699707 C10.41550705 14.43932768 10.45719256 15.9087298 10.49731445 17.37817383 C10.55539882 19.49574355 10.61898098 21.61308937 10.68359375 23.73046875 C10.72025146 25.00301514 10.75690918 26.27556152 10.79467773 27.58666992 C10.9700792 30.50258896 11.33392883 33.16267905 12 36 C15.59264452 37.19754817 18.22717474 37.33094958 22 37 C24.33524444 35.52080021 24.33524444 35.52080021 26 33 C26.41801769 30.3326134 26.60469958 28.05891019 26.609375 25.390625 C26.62591125 24.66381531 26.64244751 23.93700562 26.65948486 23.18817139 C26.70792361 20.87536131 26.72932489 18.56320843 26.75 16.25 C26.77816341 14.67835243 26.80809137 13.10673541 26.83984375 11.53515625 C26.91368047 7.69015831 26.96327948 3.84552428 27 0 C30.63 0 34.26 0 38 0 C38.074557 4.71391399 38.12879273 9.42747929 38.16479492 14.1418457 C38.17981466 15.74314356 38.20023663 17.34440075 38.22631836 18.94555664 C38.26300438 21.25677571 38.27979435 23.56744756 38.29296875 25.87890625 C38.30845261 26.58648575 38.32393646 27.29406525 38.33988953 28.02308655 C38.34159235 33.13453213 37.22352108 36.5093594 35 41 C34.34 41 33.68 41 33 41 C32.61908203 41.92039062 32.61908203 41.92039062 32.23046875 42.859375 C30.15640528 46.467587 26.82043377 47.65242882 23 49 C16.89249849 49.6428949 11.58519063 48.56313852 6.3125 45.375 C1.67927793 40.61655571 -0.45604246 35.37661649 -0.45318604 28.75732422 C-0.43254089 28.03303223 -0.41189575 27.30874023 -0.390625 26.5625 C-0.38213531 25.41418701 -0.38213531 25.41418701 -0.37347412 24.24267578 C-0.35130835 21.82777979 -0.30115539 19.41443777 -0.25 17 C-0.22990915 15.35028204 -0.21166294 13.70054052 -0.1953125 12.05078125 C-0.15150943 8.03326695 -0.08262602 4.01689574 0 0 Z " fill="#F2F2F4" transform="translate(213,121)"/>
<path d="M0 0 C2.43987682 -0.11195394 4.80398089 -0.04405627 7.24169922 0.10449219 C8.50240234 0.14509766 8.50240234 0.14509766 9.78857422 0.18652344 C11.85738555 0.2570511 13.92487314 0.36466852 15.99169922 0.47949219 C17.3899006 2.69681154 18.7593328 4.92487372 20.11669922 7.16699219 C20.51501953 7.79283203 20.91333984 8.41867187 21.32373047 9.06347656 C24.14448211 13.78947273 24.14448211 13.78947273 23.39404297 17.17871094 C22.93126953 17.93796875 22.46849609 18.69722656 21.99169922 19.47949219 C21.57791016 20.18332031 21.16412109 20.88714844 20.73779297 21.61230469 C20.09003906 22.5984375 20.09003906 22.5984375 19.42919922 23.60449219 C17.87359198 25.97713943 16.90025597 27.75382193 15.99169922 30.47949219 C-0.14916248 32.00221499 -0.14916248 32.00221499 -4.46923828 28.46386719 C-6.01480219 25.8434695 -7.06077689 23.36552827 -8.00830078 20.47949219 C-8.81267578 18.93261719 -8.81267578 18.93261719 -9.63330078 17.35449219 C-10.20675347 12.95802156 -8.30608626 10.13444921 -6.00830078 6.47949219 C-5.23099609 4.88234375 -5.23099609 4.88234375 -4.43798828 3.25292969 C-2.00830078 0.47949219 -2.00830078 0.47949219 0 0 Z " fill="#F7F6F8" transform="translate(312.00830078125,297.5205078125)"/>
<path d="M0 0 C11.22 0 22.44 0 34 0 C34 2.97 34 5.94 34 9 C30.04 9 26.08 9 22 9 C22 21.87 22 34.74 22 48 C18.7 48 15.4 48 12 48 C12 35.13 12 22.26 12 9 C8.04 9 4.08 9 0 9 C0 6.03 0 3.06 0 0 Z " fill="#FAF9FB" transform="translate(255,121)"/>
<path d="M0 0 C2.31 0 4.62 0 7 0 C7 0.66 7 1.32 7 2 C8.32 2 9.64 2 11 2 C10.67 4.64 10.34 7.28 10 10 C12.97 10 15.94 10 19 10 C19 7.69 19 5.38 19 3 C20.65 3 22.3 3 24 3 C24 9.93 24 16.86 24 24 C22.35 24 20.7 24 19 24 C19 21.03 19 18.06 19 15 C15.7 15 12.4 15 9 15 C9 17.97 9 20.94 9 24 C8.01 24 7.02 24 6 24 C5.67 24.99 5.34 25.98 5 27 C1.7 27.66 -1.6 28.32 -5 29 C-5.33 28.01 -5.66 27.02 -6 26 C-6.33 25.34 -6.66 24.68 -7 24 C-7.07194869 21.11629667 -7.09291708 18.25760336 -7.0625 15.375 C-7.05798828 14.57320312 -7.05347656 13.77140625 -7.04882812 12.9453125 C-7.03703168 10.96350994 -7.01909605 8.98174567 -7 7 C-8.98 7 -10.96 7 -13 7 C-13 5.35 -13 3.7 -13 2 C-8.71 2 -4.42 2 0 2 C0 1.34 0 0.68 0 0 Z " fill="#3C3E5B" transform="translate(236,83)"/>
<path d="M0 0 C3.81642542 3.58512691 5.21102783 7.86006645 5.4375 13 C4.97538199 17.85223908 3.65959139 21.00768123 0.5625 24.75 C-2.75892549 27.37946184 -6.59743143 27.32864888 -10.6484375 27.2890625 C-14.59795068 26.68248198 -16.23951195 24.83290181 -18.9375 21.9375 C-21.67411003 17.45770687 -21.45332708 13.03935221 -20.9375 7.9375 C-19.7137146 4.39496332 -18.62833992 2.56553629 -15.875 0.0625 C-10.62040144 -1.94989945 -5.28399675 -1.91123287 0 0 Z " fill="#3B3F5C" transform="translate(324.9375,132.0625)"/>
<path d="M0 0 C3.3 0 6.6 0 10 0 C10.02505615 0.91289795 10.0501123 1.8257959 10.07592773 2.76635742 C10.17131607 6.16767631 10.27053402 9.56883939 10.37231445 12.9699707 C10.41550705 14.43932768 10.45719256 15.9087298 10.49731445 17.37817383 C10.55539882 19.49574355 10.61898098 21.61308937 10.68359375 23.73046875 C10.72025146 25.00301514 10.75690918 26.27556152 10.79467773 27.58666992 C10.9700792 30.50258896 11.33392883 33.16267905 12 36 C12.99 36.33 13.98 36.66 15 37 C11.71536341 39.18975773 8.79303725 39.99806563 5 41 C0.03958944 36.19960269 0.03958944 36.19960269 -0.11352539 31.56005859 C-0.11336685 30.08950872 -0.10770544 28.61895304 -0.09765625 27.1484375 C-0.0962413 26.37440582 -0.09482635 25.60037415 -0.09336853 24.80288696 C-0.08776403 22.32688558 -0.07521083 19.85097412 -0.0625 17.375 C-0.05748558 15.69791797 -0.05292257 14.02083453 -0.04882812 12.34375 C-0.03779315 8.22913194 -0.02052554 4.11458122 0 0 Z " fill="#F9F9FB" transform="translate(213,121)"/>
<path d="M0 0 C3.70963707 -0.28781667 7.29923389 -0.44259883 11 0 C14.59531039 3.25289987 15.86543131 5.99073485 16.5 10.75 C16.46155656 13.38337592 16.2237995 14.6752178 14.71875 16.859375 C11.71280885 19.72868246 9.07070408 21.39236492 4.875 21.6875 C1 21 1 21 -1.9375 19.0625 C-4.61751009 15.08309107 -5.31929118 11.77210875 -5 7 C-3.6875 3.9375 -3.6875 3.9375 -2 2 C-1.34 2 -0.68 2 0 2 C0 1.34 0 0.68 0 0 Z " fill="#E7E6E7" transform="translate(316,86)"/>
<path d="M0 0 C0 0.66 0 1.32 0 2 C0.66 2 1.32 2 2 2 C4.84679644 6.27019466 4.72994375 9.99134341 4 15 C2.73823951 18.11765092 1.81215299 18.81914666 -1 21 C-4.17291032 21.78605554 -6.82793581 21.79301605 -10 21 C-13 18.5625 -13 18.5625 -15 16 C-15.33 15.67 -15.66 15.34 -16 15 C-16.49786508 11.59687161 -16.53151009 8.39955961 -16 5 C-11.56051668 -0.84142542 -6.97331323 -0.62015631 0 0 Z " fill="#ECECF2" transform="translate(184,86)"/>
<path d="M0 0 C1.65 0 3.3 0 5 0 C6.94921875 2.15234375 6.94921875 2.15234375 8.6875 4.9375 C10.77820723 8.58326346 10.77820723 8.58326346 14 11 C14 7.37 14 3.74 14 0 C15.65 0 17.3 0 19 0 C19 6.93 19 13.86 19 21 C17.35 21 15.7 21 14 21 C11.1875 18.1875 11.1875 18.1875 9 15 C9 14.01 9 13.02 9 12 C8.34 12 7.68 12 7 12 C6.67 11.34 6.34 10.68 6 10 C5.67 13.63 5.34 17.26 5 21 C3.35 21 1.7 21 0 21 C0 14.07 0 7.14 0 0 Z " fill="#D5D5D9" transform="translate(191,86)"/>
<path d="M0 0 C3.96 0 7.92 0 12 0 C17.01246883 9.85785536 17.01246883 9.85785536 18 13 C17.67 13.99 17.34 14.98 17 16 C15.17801778 20.546172 15.17801778 20.546172 16 25 C15.34 25 14.68 25 14 25 C13.34 25.99 12.68 26.98 12 28 C11.18457569 25.91780951 10.37276811 23.83420239 9.5625 21.75 C8.88380859 20.00976562 8.88380859 20.00976562 8.19140625 18.234375 C7.29849367 15.81033692 6.54205635 13.51713525 6 11 C4.35 11.33 2.7 11.66 1 12 C-0.6040687 7.18779389 -1.02622323 5.13111614 0 0 Z " fill="#F4F6F7" transform="translate(176,121)"/>
<path d="M0 0 C1.32 0 2.64 0 4 0 C4 2.64 4 5.28 4 8 C7.3 8 10.6 8 14 8 C14 5.36 14 2.72 14 0 C15.65 0 17.3 0 19 0 C19 6.93 19 13.86 19 21 C17.35 21 15.7 21 14 21 C14 18.03 14 15.06 14 12 C10.7 12 7.4 12 4 12 C4 14.97 4 17.94 4 21 C2.68 21 1.36 21 0 21 C0 14.07 0 7.14 0 0 Z " fill="#EDEDEE" transform="translate(241,86)"/>
<path d="M0 0 C0.680625 -0.00515625 1.36125 -0.0103125 2.0625 -0.015625 C4 0.25 4 0.25 7 2.25 C6.67 3.24 6.34 4.23 6 5.25 C2.7 5.25 -0.6 5.25 -4 5.25 C-4.020625 6.714375 -4.04125 8.17875 -4.0625 9.6875 C-4.07410156 10.51121094 -4.08570313 11.33492187 -4.09765625 12.18359375 C-4.23267348 14.24163938 -4.23267348 14.24163938 -3 15.25 C-0.67182036 15.61760731 1.6618385 15.95241581 4 16.25 C4 15.26 4 14.27 4 13.25 C3.01 13.25 2.02 13.25 1 13.25 C1 11.93 1 10.61 1 9.25 C3.64 9.25 6.28 9.25 9 9.25 C9.28781083 12.30079478 9.41543631 15.20706395 9 18.25 C6.26694669 21.06846123 3.72004345 21.43410528 -0.0625 21.625 C-3.9798494 21.2519191 -5.37934195 21.07224714 -8 18.25 C-10.49760976 14.75334633 -10.36771499 11.44195086 -10 7.25 C-7.79351903 2.52182648 -5.37784133 -0.04074122 0 0 Z " fill="#F2F2F6" transform="translate(300,85.75)"/>
<path d="M0 0 C0.66 0.99 1.32 1.98 2 3 C2.66 2.67 3.32 2.34 4 2 C5.125 5.75 5.125 5.75 4 8 C3.92883618 10.37402501 3.91590915 12.75000677 3.9375 15.125 C3.94652344 16.40632813 3.95554687 17.68765625 3.96484375 19.0078125 C3.97644531 19.99523437 3.98804688 20.98265625 4 22 C0.25 24 0.25 24 -2 24 C-2 24.66 -2 25.32 -2 26 C-5 25 -5 25 -6.1796875 22.95703125 C-7.22942974 19.17296043 -7.21536531 15.57668381 -7.125 11.6875 C-7.11597656 10.94693359 -7.10695313 10.20636719 -7.09765625 9.44335938 C-7.07424213 7.62876533 -7.03837615 5.81433929 -7 4 C-4.69 2.68 -2.38 1.36 0 0 Z " fill="#F5F4F9" transform="translate(301,132)"/>
<path d="M0 0 C4.29 0 8.58 0 13 0 C13 1.32 13 2.64 13 4 C10.36 4 7.72 4 5 4 C5 5.32 5 6.64 5 8 C7.31 8 9.62 8 12 8 C12 9.32 12 10.64 12 12 C9.69 12 7.38 12 5 12 C5 13.65 5 15.3 5 17 C7.64 17 10.28 17 13 17 C13 18.32 13 19.64 13 21 C8.71 21 4.42 21 0 21 C0 14.07 0 7.14 0 0 Z " fill="#F1F2F4" transform="translate(263,86)"/>
<path d="M0 0 C0.33 0.66 0.66 1.32 1 2 C2.66321482 2.35015049 4.33034549 2.68197057 6 3 C6.99 3.66 7.98 4.32 9 5 C8.67 5.66 8.34 6.32 8 7 C8.66 7 9.32 7 10 7 C10.33 6.34 10.66 5.68 11 5 C11.66 5.66 12.32 6.32 13 7 C8.38 11.62 3.76 16.24 -1 21 C-1.33 20.34 -1.66 19.68 -2 19 C-1.67 18.34 -1.34 17.68 -1 17 C-1.66 17 -2.32 17 -3 17 C-3.33 15.35 -3.66 13.7 -4 12 C-6.31 11.34 -8.62 10.68 -11 10 C-6.25 6 -6.25 6 -4 6 C-3.71125 5.38125 -3.4225 4.7625 -3.125 4.125 C-2 2 -2 2 0 0 Z " fill="#F3F4F5" transform="translate(340,325)"/>
<path d="M0 0 C5.80306012 2.1544295 10.48762678 4.53775356 13.359375 10.28125 C12.369375 10.77625 12.369375 10.77625 11.359375 11.28125 C11.689375 12.60125 12.019375 13.92125 12.359375 15.28125 C11.369375 15.28125 10.379375 15.28125 9.359375 15.28125 C9.23820312 14.64316406 9.11703125 14.00507813 8.9921875 13.34765625 C8.82460938 12.52136719 8.65703125 11.69507813 8.484375 10.84375 C8.32195312 10.02003906 8.15953125 9.19632812 7.9921875 8.34765625 C7.67894531 7.32478516 7.67894531 7.32478516 7.359375 6.28125 C6.699375 5.95125 6.039375 5.62125 5.359375 5.28125 C5.029375 7.92125 4.699375 10.56125 4.359375 13.28125 C3.699375 11.96125 3.039375 10.64125 2.359375 9.28125 C-3.580625 9.28125 -9.520625 9.28125 -15.640625 9.28125 C-15.640625 8.95125 -15.640625 8.62125 -15.640625 8.28125 C-12.175625 7.78625 -12.175625 7.78625 -8.640625 7.28125 C-9.630625 6.62125 -10.620625 5.96125 -11.640625 5.28125 C-8.340625 4.95125 -5.040625 4.62125 -1.640625 4.28125 C-1.640625 3.62125 -1.640625 2.96125 -1.640625 2.28125 C-2.5378125 2.5596875 -2.5378125 2.5596875 -3.453125 2.84375 C-5.640625 3.28125 -5.640625 3.28125 -8.640625 2.28125 C-10.30684116 2.24250079 -11.97456672 2.2362214 -13.640625 2.28125 C-13.640625 1.62125 -13.640625 0.96125 -13.640625 0.28125 C-9.41096935 -1.83357783 -4.45012935 -1.21127781 0 0 Z " fill="#474A5F" transform="translate(325.640625,288.71875)"/>
<path d="M0 0 C0.8971875 0.309375 0.8971875 0.309375 1.8125 0.625 C0.8225 0.955 -0.1675 1.285 -1.1875 1.625 C-1.1875 2.285 -1.1875 2.945 -1.1875 3.625 C-0.1975 3.955 0.7925 4.285 1.8125 4.625 C1.8125 5.945 1.8125 7.265 1.8125 8.625 C5.7725 8.625 9.7325 8.625 13.8125 8.625 C14.1425 9.615 14.4725 10.605 14.8125 11.625 C13.8225 11.295 12.8325 10.965 11.8125 10.625 C6.51447223 10.23887255 1.61069403 10.06596318 -3.1875 12.625 C-3.1875 13.285 -3.1875 13.945 -3.1875 14.625 C-4.5075 14.625 -5.8275 14.625 -7.1875 14.625 C-7.8475 13.635 -8.5075 12.645 -9.1875 11.625 C-10.8375 12.285 -12.4875 12.945 -14.1875 13.625 C-13.70180343 9.34939836 -12.62790072 7.63961231 -9.3125 4.9375 C-8.61382812 4.35613281 -7.91515625 3.77476563 -7.1953125 3.17578125 C-2.5235033 -0.43260057 -2.5235033 -0.43260057 0 0 Z " fill="#E2E1E8" transform="translate(310.1875,121.375)"/>
<path d="M0 0 C4.95 0 9.9 0 15 0 C15 1.32 15 2.64 15 4 C13.35 4 11.7 4 10 4 C10 9.61 10 15.22 10 21 C8.35 21 6.7 21 5 21 C5 15.39 5 9.78 5 4 C3.35 4 1.7 4 0 4 C0 2.68 0 1.36 0 0 Z " fill="#EBEDF4" transform="translate(224,86)"/>
<path d="M0 0 C0.99 0.33 1.98 0.66 3 1 C0.32466784 12.10487036 -2.69796171 23.0653814 -6 34 C-6.33 34 -6.66 34 -7 34 C-7.125 28.25 -7.125 28.25 -6 26 C-6.99 26 -7.98 26 -9 26 C-9.33 24.35 -9.66 22.7 -10 21 C-9.01 21 -8.02 21 -7 21 C-6.9175 19.9275 -6.835 18.855 -6.75 17.75 C-6.03391335 11.96941649 -4.27036139 6.35462591 -2 1 C-1.34 0.67 -0.68 0.34 0 0 Z " fill="#EAE7EF" transform="translate(218,239)"/>
<path d="M0 0 C1.21236328 0.04060547 1.21236328 0.04060547 2.44921875 0.08203125 C3.06410156 0.11683594 3.67898438 0.15164062 4.3125 0.1875 C3.9825 1.5075 3.6525 2.8275 3.3125 4.1875 C3.9621875 3.445 3.9621875 3.445 4.625 2.6875 C6.3125 1.1875 6.3125 1.1875 9.3125 1.1875 C9.291875 2.425 9.27125 3.6625 9.25 4.9375 C9.24483319 7.8515825 9.38234442 10.39703327 10.3125 13.1875 C8.9925 13.1875 7.6725 13.1875 6.3125 13.1875 C6.3125 10.5475 6.3125 7.9075 6.3125 5.1875 C3.6725 5.1875 1.0325 5.1875 -1.6875 5.1875 C-1.6875 6.5075 -1.6875 7.8275 -1.6875 9.1875 C-0.6975 9.1875 0.2925 9.1875 1.3125 9.1875 C1.3125 10.1775 1.3125 11.1675 1.3125 12.1875 C-2.0625 12.3125 -2.0625 12.3125 -5.6875 12.1875 C-7.6875 10.1875 -7.6875 10.1875 -8 6.75 C-7.6875 3.1875 -7.6875 3.1875 -6.4609375 1.4765625 C-4.16445154 -0.19268941 -2.80776158 -0.12207659 0 0 Z " fill="#4C4B5D" transform="translate(302.6875,89.8125)"/>
<path d="M0 0 C0.61875 0.63228516 0.61875 0.63228516 1.25 1.27734375 C5.79817661 5.59202022 8.73902584 6.7803167 15 7 C15 7.33 15 7.66 15 8 C12.36 8 9.72 8 7 8 C6.67 9.32 6.34 10.64 6 12 C4.68 12 3.36 12 2 12 C2.33 13.32 2.66 14.64 3 16 C1.53426066 15.09522263 0.07764244 14.17565859 -1.375 13.25 C-2.18710937 12.73953125 -2.99921875 12.2290625 -3.8359375 11.703125 C-6.08555679 9.9326665 -6.95906848 8.63092581 -8 6 C-7.34 6 -6.68 6 -6 6 C-6 5.34 -6 4.68 -6 4 C-4.7934375 3.566875 -4.7934375 3.566875 -3.5625 3.125 C-0.8673532 2.26737432 -0.8673532 2.26737432 0 0 Z " fill="#EBEAEE" transform="translate(305,152)"/>
<path d="M0 0 C2 3 2 3 1.8125 6.5625 C1 10 1 10 -2 12 C-5.0625 11.875 -5.0625 11.875 -8 11 C-9.72603383 8.80322967 -9.97211055 7.1905779 -10.375 4.4375 C-10 2 -10 2 -8.375 0.125 C-5.16017375 -1.39781243 -3.36182684 -1.02316469 0 0 Z " fill="#4F485E" transform="translate(182,91)"/>
<path d="M0 0 C11.55 0 23.1 0 35 0 C35 0.99 35 1.98 35 3 C35.598125 2.835 36.19625 2.67 36.8125 2.5 C38.93780631 2.0142157 40.82242488 2 43 2 C43.75 5.0625 43.75 5.0625 44 9 C43.3503125 10.0415625 42.700625 11.083125 42.03125 12.15625 C39.37224463 16.52403337 39.54081261 20.44516245 39.75 25.4375 C39.76804687 26.26443359 39.78609375 27.09136719 39.8046875 27.94335938 C39.8513786 29.96274933 39.92310607 31.98153445 40 34 C39.01 33.505 39.01 33.505 38 33 C37.67 26.73 37.34 20.46 37 14 C37.66 13.67 38.32 13.34 39 13 C38.505 8.545 38.505 8.545 38 4 C37.34 4 36.68 4 36 4 C35.67 5.98 35.34 7.96 35 10 C34.67 10 34.34 10 34 10 C34 7.03 34 4.06 34 1 C22.78 1 11.56 1 0 1 C0 0.67 0 0.34 0 0 Z " fill="#5C5E73" transform="translate(255,120)"/>
<path d="M0 0 C2 2 2 2 2.3125 5.4375 C2 9 2 9 0.875 11 C-1.96146925 12.5127836 -3.96742965 11.77427328 -7 11 C-7.66 10.67 -8.32 10.34 -9 10 C-9.4856661 2.59359191 -9.4856661 2.59359191 -7.3125 -0.0625 C-4.3979332 -1.24408113 -2.95034182 -1.00932746 0 0 Z " fill="#45415D" transform="translate(325,91)"/>
<path d="M0 0 C0.9837291 3.46126905 0.73757891 5.4760119 0 9 C-0.30592124 13.65941009 -0.30592124 13.65941009 1 18 C0.71887936 20.00800456 0.38932033 22.01014051 0 24 C1.11375 24.433125 1.11375 24.433125 2.25 24.875 C4.56739797 25.82302644 6.77917115 26.84845911 9 28 C9 29.65 9 31.3 9 33 C7 30 7 30 7 28 C6.34 28 5.68 28 5 28 C4.67 28.66 4.34 29.32 4 30 C4 29.01 4 28.02 4 27 C2.7625 27.144375 1.525 27.28875 0.25 27.4375 C-0.44609375 27.51871094 -1.1421875 27.59992188 -1.859375 27.68359375 C-3.95512663 27.99336726 -5.95497613 28.45189676 -8 29 C-5.37771781 19.3210072 -2.68883034 9.66065922 0 0 Z " fill="#D4D7D9" transform="translate(286,282)"/>
<path d="M0 0 C5 0 5 0 7.3125 2.25 C9 5 9 5 9 9 C7.35 8.67 5.7 8.34 4 8 C4 12.29 4 16.58 4 21 C2.68 21 1.36 21 0 21 C0 14.07 0 7.14 0 0 Z " fill="#F9F7FB" transform="translate(191,86)"/>
<path d="M0 0 C1.32 0 2.64 0 4 0 C4 2.64 4 5.28 4 8 C7.3 8 10.6 8 14 8 C9.69230769 11.93846154 9.69230769 11.93846154 6.1875 12.25 C5.1046875 12.12625 5.1046875 12.12625 4 12 C4 14.97 4 17.94 4 21 C2.68 21 1.36 21 0 21 C0 14.07 0 7.14 0 0 Z " fill="#F6F4FA" transform="translate(241,86)"/>
<path d="M0 0 C0.66 0 1.32 0 2 0 C3.30459914 2.60919828 3.1326594 4.58942615 3.125 7.5 C3.12757813 8.4796875 3.13015625 9.459375 3.1328125 10.46875 C3 13 3 13 2 15 C2.99 14.67 3.98 14.34 5 14 C5.33 17.63 5.66 21.26 6 25 C4.68 24.67 3.36 24.34 2 24 C1.89042969 24.75925781 1.78085937 25.51851563 1.66796875 26.30078125 C1.50941406 27.29464844 1.35085938 28.28851563 1.1875 29.3125 C1.03667969 30.29863281 0.88585937 31.28476562 0.73046875 32.30078125 C-0.03436705 35.12699269 -0.75258762 36.1959128 -3 38 C-3.25763718 30.97938697 -2.0377429 24.86833668 -0.421875 18.06640625 C0.96915027 11.93595915 2.03781177 6.11343532 0 0 Z " fill="#F0F2F0" transform="translate(288,261)"/>
<path d="M0 0 C-0.33 1.98 -0.66 3.96 -1 6 C-0.34 5.67 0.32 5.34 1 5 C2.54023996 4.93049459 4.08334988 4.91547643 5.625 4.9375 C6.85089844 4.95103516 6.85089844 4.95103516 8.1015625 4.96484375 C9.04128906 4.98224609 9.04128906 4.98224609 10 5 C10 5.99 10 6.98 10 8 C6.37 8 2.74 8 -1 8 C-0.67 9.98 -0.34 11.96 0 14 C-0.99 14.495 -0.99 14.495 -2 15 C-2 13.68 -2 12.36 -2 11 C-4.64 11 -7.28 11 -10 11 C-10 9.35 -10 7.7 -10 6 C-7.69 6 -5.38 6 -3 6 C-3 4.68 -3 3.36 -3 2 C-5.31 2 -7.62 2 -10 2 C-10 1.67 -10 1.34 -10 1 C-2.25 0 -2.25 0 0 0 Z " fill="#4E505F" transform="translate(278,92)"/>
<path d="M0 0 C1.24652344 -0.01417969 2.49304688 -0.02835938 3.77734375 -0.04296875 C7.0625 0.1875 7.0625 0.1875 10.0625 2.1875 C8.4125 2.8475 6.7625 3.5075 5.0625 4.1875 C5.0625 3.5275 5.0625 2.8675 5.0625 2.1875 C2.06917261 3.1852758 1.11483685 3.9397025 -0.9375 6.1875 C0.3825 6.8475 1.7025 7.5075 3.0625 8.1875 C3.0625 8.8475 3.0625 9.5075 3.0625 10.1875 C4.3825 10.1875 5.7025 10.1875 7.0625 10.1875 C6.7325 11.5075 6.4025 12.8275 6.0625 14.1875 C3.89028513 12.904461 1.7249676 11.61177887 -0.4375 10.3125 C-1.05753906 9.94769531 -1.67757812 9.58289063 -2.31640625 9.20703125 C-3.89117458 8.2552482 -5.41879053 7.22639741 -6.9375 6.1875 C-6.9375 5.5275 -6.9375 4.8675 -6.9375 4.1875 C-7.9275 4.1875 -8.9175 4.1875 -9.9375 4.1875 C-9.6075 3.1975 -9.2775 2.2075 -8.9375 1.1875 C-5.98162889 -0.29043555 -3.28752355 0.01696349 0 0 Z " fill="#3E4255" transform="translate(170.9375,201.8125)"/>
<path d="M0 0 C0.67095703 0.58007812 0.67095703 0.58007812 1.35546875 1.171875 C4.09409331 3.53094605 6.81900005 5.86109306 9.6875 8.0625 C12.19363149 10.16223179 13.99130932 12.42636506 16 15 C17.64783606 16.68528688 19.31002677 18.35697047 21 20 C17.7 19.34 14.4 18.68 11 18 C11 17.34 11 16.68 11 16 C9.35 16.33 7.7 16.66 6 17 C6 14.03 6 11.06 6 8 C5.34 8 4.68 8 4 8 C4 7.34 4 6.68 4 6 C3.34 6 2.68 6 2 6 C1.67 6.66 1.34 7.32 1 8 C-0.35439668 5.29120665 -0.06501451 2.99066732 0 0 Z M10 13 C10.99 14.485 10.99 14.485 12 16 C12 15.01 12 14.02 12 13 C11.34 13 10.68 13 10 13 Z " fill="#43465E" transform="translate(147,333)"/>
<path d="M0 0 C0.99 0.33 1.98 0.66 3 1 C-3.27 7.27 -9.54 13.54 -16 20 C-16.33 19.34 -16.66 18.68 -17 18 C-16.67 17.34 -16.34 16.68 -16 16 C-15.34 16 -14.68 16 -14 16 C-14.33 15.01 -14.66 14.02 -15 13 C-14.83988879 10.29876894 -14.39559392 7.68124769 -14 5 C-8.555 4.505 -8.555 4.505 -3 4 C-2.67 3.01 -2.34 2.02 -2 1 C-1.34 0.67 -0.68 0.34 0 0 Z " fill="#F1F0F0" transform="translate(334,347)"/>
<path d="M0 0 C1.65 0 3.3 0 5 0 C5 0.66 5 1.32 5 2 C5.66 2 6.32 2 7 2 C9.14553377 5.21830065 9.29583868 6.26786507 9.3125 10 C9.32925781 10.86625 9.34601563 11.7325 9.36328125 12.625 C8.93703947 15.4116129 8.16168863 16.26608617 6 18 C6 17.34 6 16.68 6 16 C4.35 16.33 2.7 16.66 1 17 C1.33 16.34 1.66 15.68 2 15 C2.66 15 3.32 15 4 15 C4.39909856 10.3199914 4.39909856 10.3199914 2.8125 6.0625 C0.43958382 4.67148017 -1.29686424 4.78082683 -4 5 C-4 4.34 -4 3.68 -4 3 C-3.01 2.67 -2.02 2.34 -1 2 C-0.67 1.34 -0.34 0.68 0 0 Z " fill="#E7E5EB" transform="translate(179,86)"/>
<path d="M0 0 C2.92586433 1.46293216 3.05946588 3.40270098 4.125 6.4375 C4.47820312 7.42621094 4.83140625 8.41492188 5.1953125 9.43359375 C6 12 6 12 6 14 C2.37 14 -1.26 14 -5 14 C-5 12.35 -5 10.7 -5 9 C-4.34 9 -3.68 9 -3 9 C-2.87625 8.071875 -2.7525 7.14375 -2.625 6.1875 C-2 3 -2 3 0 0 Z " fill="#46485C" transform="translate(182,135)"/>
<path d="M0 0 C0.66 0 1.32 0 2 0 C2.33 1.98 2.66 3.96 3 6 C4.65 5.67 6.3 5.34 8 5 C8.66 6.32 9.32 7.64 10 9 C9.54625 9.37125 9.0925 9.7425 8.625 10.125 C6.52970606 12.54264685 5.87986715 14.95430602 5 18 C4.855625 17.401875 4.71125 16.80375 4.5625 16.1875 C4.1127561 14.43849596 3.57107659 12.71322977 3 11 C2.34 10.67 1.68 10.34 1 10 C0.67 10.99 0.34 11.98 0 13 C0 12.01 0 11.02 0 10 C-0.99 10.99 -1.98 11.98 -3 13 C-3.66 12.67 -4.32 12.34 -5 12 C-3.35 8.04 -1.7 4.08 0 0 Z " fill="#EDEEF1" transform="translate(174,126)"/>
<path d="M0 0 C0.66 0.33 1.32 0.66 2 1 C1.67 1.99 1.34 2.98 1 4 C-0.65 3.67 -2.3 3.34 -4 3 C-4 6.63 -4 10.26 -4 14 C-7.69790046 12.76736651 -7.9354846 11.79947549 -9.6875 8.4375 C-10.12449219 7.61121094 -10.56148437 6.78492187 -11.01171875 5.93359375 C-11.33785156 5.29550781 -11.66398438 4.65742187 -12 4 C-8.80059646 -0.79910531 -5.42798161 -0.19738115 0 0 Z " fill="#434562" transform="translate(209,83)"/>
<path d="M0 0 C2.39468331 2.39468331 3.0047706 4.38021871 4.125 7.5625 C4.47820312 8.55378906 4.83140625 9.54507813 5.1953125 10.56640625 C6 13 6 13 6 14 C4.20906809 14.08086147 2.41710372 14.13912702 0.625 14.1875 C-0.87160156 14.23970703 -0.87160156 14.23970703 -2.3984375 14.29296875 C-3.25695312 14.19628906 -4.11546875 14.09960938 -5 14 C-5.66 13.01 -6.32 12.02 -7 11 C-6.67 10.01 -6.34 9.02 -6 8 C-5.67 8.66 -5.34 9.32 -5 10 C-4.34 8.68 -3.68 7.36 -3 6 C-2.67 6.66 -2.34 7.32 -2 8 C0.1519437 4.77208445 0.20086443 3.71599191 0 0 Z " fill="#E8E7ED" transform="translate(202,155)"/>
<path d="M0 0 C0.33 0 0.66 0 1 0 C1 2.97 1 5.94 1 9 C4.96 9 8.92 9 13 9 C13 21.87 13 34.74 13 48 C12.67 48 12.34 48 12 48 C12 35.46 12 22.92 12 10 C8.7 10 5.4 10 2 10 C2 11.65 2 13.3 2 15 C1.34 15 0.68 15 0 15 C0 14.34 0 13.68 0 13 C-0.66 13 -1.32 13 -2 13 C-2.33 13.66 -2.66 14.32 -3 15 C-3 13.35 -3 11.7 -3 10 C-2.34 10 -1.68 10 -1 10 C-0.67 6.7 -0.34 3.4 0 0 Z " fill="#605E6E" transform="translate(254,121)"/>
<path d="M0 0 C1.32 0 2.64 0 4 0 C4 6.93 4 13.86 4 21 C2.68 21 1.36 21 0 21 C-0.33 18.69 -0.66 16.38 -1 14 C-0.34 14 0.32 14 1 14 C0.83628906 13.44828125 0.67257813 12.8965625 0.50390625 12.328125 C-0.05760414 9.73385993 -0.09739008 7.40164589 -0.0625 4.75 C-0.05347656 3.85796875 -0.04445312 2.9659375 -0.03515625 2.046875 C-0.02355469 1.37140625 -0.01195312 0.6959375 0 0 Z " fill="#F5F7FA" transform="translate(206,86)"/>
<path d="M0 0 C0.99 0 1.98 0 3 0 C3 6.93 3 13.86 3 21 C5.97 21 8.94 21 12 21 C12 21.33 12 21.66 12 22 C7.71 22 3.42 22 -1 22 C-0.67 14.74 -0.34 7.48 0 0 Z " fill="#454451" transform="translate(260,86)"/>
<path d="M0 0 C1.2039337 3.75399798 1.09877617 7.33217412 1.0625 11.25 C1.05347656 12.51328125 1.04445313 13.7765625 1.03515625 15.078125 C1.02355469 16.04234375 1.01195313 17.0065625 1 18 C0.34 18 -0.32 18 -1 18 C-2.35386936 16.34997172 -3.68678142 14.6825613 -5 13 C-5.66 12.67 -6.32 12.34 -7 12 C-6.38801624 8.56049636 -5.07941153 6.48435515 -2.9375 3.75 C-2.38964844 3.04359375 -1.84179688 2.3371875 -1.27734375 1.609375 C-0.85582031 1.07828125 -0.43429688 0.5471875 0 0 Z " fill="#E0DBE4" transform="translate(95,264)"/>
<path d="M0 0 C1.21816406 0.03480469 1.21816406 0.03480469 2.4609375 0.0703125 C3.68683594 0.09738281 3.68683594 0.09738281 4.9375 0.125 C5.87722656 0.15980469 5.87722656 0.15980469 6.8359375 0.1953125 C5.8459375 1.6803125 5.8459375 1.6803125 4.8359375 3.1953125 C4.1759375 3.1953125 3.5159375 3.1953125 2.8359375 3.1953125 C2.6296875 3.7728125 2.4234375 4.3503125 2.2109375 4.9453125 C0.33842862 8.00941794 -2.13364769 9.35071218 -5.1640625 11.1953125 C-6.43131013 7.39356961 -5.6391444 5.8441993 -4.1640625 2.1953125 C-2.1640625 0.1953125 -2.1640625 0.1953125 0 0 Z " fill="#F2F0F0" transform="translate(309.1640625,367.8046875)"/>
<path d="M0 0 C0.33 0.66 0.66 1.32 1 2 C1.66 2 2.32 2 3 2 C3.33 2.99 3.66 3.98 4 5 C4.66 3.35 5.32 1.7 6 0 C7.89213369 2.38573379 9.02391783 4.07175348 10 7 C7 9 7 9 4 9 C4 9.66 4 10.32 4 11 C2 11 2 11 -0.1875 9.375 C-2 7 -2 7 -1.8125 3.8125 C-1 1 -1 1 0 0 Z " fill="#43465C" transform="translate(207,156)"/>
<path d="M0 0 C2.64 0 5.28 0 8 0 C8 2.97 8 5.94 8 9 C6.02 9.99 6.02 9.99 4 11 C3.67 10.01 3.34 9.02 3 8 C1.02 8 -0.96 8 -3 8 C-3 7.67 -3 7.34 -3 7 C-1.02 7 0.96 7 3 7 C3 6.01 3 5.02 3 4 C2.01 4 1.02 4 0 4 C0 2.68 0 1.36 0 0 Z " fill="#EFEEF6" transform="translate(301,95)"/>
<path d="M0 0 C3.81300782 3.2870757 5.22972246 6.39727838 7 11 C3.875 12.3125 3.875 12.3125 0 13 C-2.63848996 11.69242975 -3.93435221 10.21319406 -6 8 C-6.33 7.01 -6.66 6.02 -7 5 C-5.68 5.33 -4.36 5.66 -3 6 C-3 6.66 -3 7.32 -3 8 C-1.68 7.34 -0.36 6.68 1 6 C0.67 4.02 0.34 2.04 0 0 Z " fill="#3D3D61" transform="translate(305,320)"/>
<path d="M0 0 C2.31 0 4.62 0 7 0 C7 0.66 7 1.32 7 2 C8.32 2 9.64 2 11 2 C10.67 4.64 10.34 7.28 10 10 C12.97 10 15.94 10 19 10 C19 10.33 19 10.66 19 11 C15.7 11 12.4 11 9 11 C9 8.36 9 5.72 9 3 C7.68 3 6.36 3 5 3 C5 4.32 5 5.64 5 7 C4.34 7 3.68 7 3 7 C3 5.68 3 4.36 3 3 C-1.95 3 -6.9 3 -12 3 C-12.33 4.32 -12.66 5.64 -13 7 C-13 5.35 -13 3.7 -13 2 C-8.71 2 -4.42 2 0 2 C0 1.34 0 0.68 0 0 Z " fill="#69697B" transform="translate(236,83)"/>
<path d="M0 0 C1.32 0.33 2.64 0.66 4 1 C3.67 3.31 3.34 5.62 3 8 C0.69 8.66 -1.62 9.32 -4 10 C-4.33 11.98 -4.66 13.96 -5 16 C-5.33 15.34 -5.66 14.68 -6 14 C-7.98 14.99 -7.98 14.99 -10 16 C-8.31029911 12.33601701 -6.12699789 9.09167428 -3.875 5.75 C-3.15054688 4.67234375 -2.42609375 3.5946875 -1.6796875 2.484375 C-0.84824219 1.25460938 -0.84824219 1.25460938 0 0 Z " fill="#E8E4EB" transform="translate(140,200)"/>
<path d="M0 0 C0.99 0.33 1.98 0.66 3 1 C3 4.3 3 7.6 3 11 C4.98 11 6.96 11 9 11 C9 11.33 9 11.66 9 12 C5.7 12 2.4 12 -1 12 C-1.33 12.99 -1.66 13.98 -2 15 C-2 10.71 -2 6.42 -2 2 C-1.34 2 -0.68 2 0 2 C0 1.34 0 0.68 0 0 Z " fill="#3B3C4F" transform="translate(212,85)"/>
<path d="M0 0 C0.33 0 0.66 0 1 0 C1 1.65 1 3.3 1 5 C1.66 5 2.32 5 3 5 C3.4125 5.639375 3.825 6.27875 4.25 6.9375 C6.59697894 9.70358232 8.48008781 9.68711892 12 10 C12.33 10.99 12.66 11.98 13 13 C12 14 12 14 10.15234375 14.09765625 C8.1015625 14.06510417 6.05078125 14.03255208 4 14 C4 13.01 4 12.02 4 11 C3.01 10.67 2.02 10.34 1 10 C-1.02965993 7.0089222 -1.2891883 4.56665576 -1 1 C-0.67 0.67 -0.34 0.34 0 0 Z " fill="#F1F0F5" transform="translate(292,93)"/>
<path d="M0 0 C4.29 0 8.58 0 13 0 C13 1.32 13 2.64 13 4 C10.36 4 7.72 4 5 4 C5 5.32 5 6.64 5 8 C3 8 3 8 1.375 6.8125 C0 5 0 5 0 0 Z " fill="#EAECF1" transform="translate(263,86)"/>
<path d="M0 0 C3.24889654 0.23206404 4.05564244 1.06337056 6.25 3.5625 C8.43181699 7.84821194 8.3267114 10.26268466 8 15 C7.34 15 6.68 15 6 15 C5.67 13.35 5.34 11.7 5 10 C4.01 11.485 4.01 11.485 3 13 C2.690625 11.865625 2.38125 10.73125 2.0625 9.5625 C1.37075469 6.21224901 1.37075469 6.21224901 0 5 C-0.04063832 3.33382885 -0.042721 1.66611905 0 0 Z " fill="#D4D6E0" transform="translate(324,86)"/>
<path d="M0 0 C-1.62339805 1.70884005 -3.29319053 3.37446717 -5 5 C-5.66 5 -6.32 5 -7 5 C-7.226875 5.5775 -7.45375 6.155 -7.6875 6.75 C-9.33038023 9.5663661 -11.39533227 11.08077114 -14 13 C-14.33 12.01 -14.66 11.02 -15 10 C-14.54625 9.608125 -14.0925 9.21625 -13.625 8.8125 C-11.83293644 7.05963876 -11.83293644 7.05963876 -11.1875 4.5 C-9.04376799 -0.01312003 -4.68240612 -1.98101797 0 0 Z " fill="#E9E8EB" transform="translate(283,401)"/>
<path d="M0 0 C0.33 0 0.66 0 1 0 C1.33 5.94 1.66 11.88 2 18 C1.34 18.33 0.68 18.66 0 19 C-0.33 19.66 -0.66 20.32 -1 21 C-1.66 21 -2.32 21 -3 21 C-4.25 17.875 -4.25 17.875 -5 14 C-3.73779907 11.95436401 -2.39712274 9.95597184 -1 8 C-0.37794636 5.30116887 -0.19149535 2.77668254 0 0 Z " fill="#373853" transform="translate(189,91)"/>
<path d="M0 0 C3.3 0 6.6 0 10 0 C10 1.65 10 3.3 10 5 C9.67 4.34 9.34 3.68 9 3 C5.9254644 3.7763932 5.9254644 3.7763932 4 6 C3.01 6.495 3.01 6.495 2 7 C2 7.66 2 8.32 2 9 C2.66 9 3.32 9 4 9 C4 9.66 4 10.32 4 11 C2.35 10.67 0.7 10.34 -1 10 C-0.67 6.7 -0.34 3.4 0 0 Z " fill="#4E4E60" transform="translate(245,98)"/>
<path d="M0 0 C0.99 0 1.98 0 3 0 C3 0.66 3 1.32 3 2 C4.65 2 6.3 2 8 2 C9.98362069 4.91708924 9.9876191 6.12380904 9.625 9.75 C9.41875 10.8225 9.2125 11.895 9 13 C8.34 13 7.68 13 7 13 C6 8.25 6 8.25 6 6 C5.01 5.34 4.02 4.68 3 4 C2.67 4.66 2.34 5.32 2 6 C1.01 5.67 0.02 5.34 -1 5 C-0.67 3.35 -0.34 1.7 0 0 Z " fill="#343D55" transform="translate(138,329)"/>
<path d="M0 0 C3.63 0 7.26 0 11 0 C11 1.32 11 2.64 11 4 C7.6828589 5.4216319 4.55780196 6.39009109 1 7 C1.33 6.34 1.66 5.68 2 5 C1.01 4.34 0.02 3.68 -1 3 C-0.67 2.01 -0.34 1.02 0 0 Z " fill="#545468" transform="translate(211,97)"/>
<path d="M0 0 C0.66 0.33 1.32 0.66 2 1 C2.46707789 5.01686987 2.32150834 6.56501812 -0.125 9.875 C-3.43498188 12.32150834 -4.98313013 12.46707789 -9 12 C-8.8125 10.125 -8.8125 10.125 -8 8 C-5.5625 6.875 -5.5625 6.875 -3 6 C-0.8614515 3.8614515 -0.57344937 2.86724686 0 0 Z " fill="#F1F1F8" transform="translate(328,95)"/>
<path d="M0 0 C0.721875 0.103125 1.44375 0.20625 2.1875 0.3125 C2.1875 1.3025 2.1875 2.2925 2.1875 3.3125 C0.5375 2.9825 -1.1125 2.6525 -2.8125 2.3125 C-2.8125 9.2425 -2.8125 16.1725 -2.8125 23.3125 C-3.1425 23.3125 -3.4725 23.3125 -3.8125 23.3125 C-4.1425 20.6725 -4.4725 18.0325 -4.8125 15.3125 C-5.1425 15.3125 -5.4725 15.3125 -5.8125 15.3125 C-6.04036458 13.29427083 -6.26822917 11.27604167 -6.49609375 9.2578125 C-6.72542961 7.23845684 -6.72542961 7.23845684 -7.8125 5.3125 C-3.50480769 0.38942308 -3.50480769 0.38942308 0 0 Z " fill="#585766" transform="translate(193.8125,83.6875)"/>
<path d="M0 0 C1.921875 0.6484375 1.921875 0.6484375 4 2 C4.828125 4.6015625 4.828125 4.6015625 5.25 7.625 C5.39953125 8.62789063 5.5490625 9.63078125 5.703125 10.6640625 C5.80109375 11.43492187 5.8990625 12.20578125 6 13 C4.68 13 3.36 13 2 13 C-0.4851924 9.2722114 -1.38440535 6.08677188 -0.5625 1.625 C-0.376875 1.08875 -0.19125 0.5525 0 0 Z " fill="#3C3D57" transform="translate(330,293)"/>
<path d="M0 0 C3.48330216 0.64505596 6.09432866 1.98217268 9 4 C9 4.66 9 5.32 9 6 C7.68 5.34 6.36 4.68 5 4 C4.773125 4.598125 4.54625 5.19625 4.3125 5.8125 C2.66188867 8.56351888 0.8027919 9.52484637 -2 11 C-1.125 3.375 -1.125 3.375 0 0 Z " fill="#46485B" transform="translate(290,285)"/>
<path d="M0 0 C4.88049925 3.9419417 9.0580583 8.11950075 13 13 C9.4257023 12.67506385 7.44287547 12.36129314 4.625 10.0625 C3 8 3 8 3 6 C2.505 5.525625 2.01 5.05125 1.5 4.5625 C0 3 0 3 0 0 Z " fill="#48495B" transform="translate(132,318)"/>
<path d="M0 0 C4.47427924 -0.08948558 8.60563789 0.14256349 13 1 C13 1.66 13 2.32 13 3 C9.61981469 4.04005702 6.5219721 4.08004482 3 4 C3 3.34 3 2.68 3 2 C2.01 2 1.02 2 0 2 C0 1.34 0 0.68 0 0 Z M0 4 C5.75 4.75 5.75 4.75 8 7 C4.7 7 1.4 7 -2 7 C-1.34 6.67 -0.68 6.34 0 6 C0 5.34 0 4.68 0 4 Z " fill="#363B53" transform="translate(311,290)"/>
<path d="M0 0 C2.31049784 1.11156304 3.97849628 2.38279702 6 4 C2.58900832 4 -0.63088314 3.50854594 -4 3 C-4 3.66 -4 4.32 -4 5 C-4.66 5 -5.32 5 -6 5 C-6 4.01 -6 3.02 -6 2 C-6.66 2 -7.32 2 -8 2 C-8 2.99 -8 3.98 -8 5 C-9.32 5 -10.64 5 -12 5 C-12 4.34 -12 3.68 -12 3 C-11.34 3 -10.68 3 -10 3 C-10 2.34 -10 1.68 -10 1 C-6.7932882 -0.6033559 -3.47875318 -0.49604443 0 0 Z " fill="#545766" transform="translate(234,233)"/>
<path d="M0 0 C1.98 0 3.96 0 6 0 C2.6189962 4.13621084 -0.66590534 7.81316569 -5 11 C-5 9.02 -5 7.04 -5 5 C-3.68 4.67 -2.36 4.34 -1 4 C-0.67 2.68 -0.34 1.36 0 0 Z " fill="#EEF0EA" transform="translate(293,384)"/>
<path d="M0 0 C0.33 0 0.66 0 1 0 C1 1.65 1 3.3 1 5 C3.64 5.33 6.28 5.66 9 6 C9 8.97 9 11.94 9 15 C8.34 13.68 7.68 12.36 7 11 C5.07308367 9.67619661 5.07308367 9.67619661 2.875 8.75 C2.15054687 8.41484375 1.42609375 8.0796875 0.6796875 7.734375 C0.12539063 7.49203125 -0.42890625 7.2496875 -1 7 C-1.04254356 5.00045254 -1.04080783 2.99958364 -1 1 C-0.67 0.67 -0.34 0.34 0 0 Z " fill="#414350" transform="translate(287,299)"/>
<path d="M0 0 C1.13055826 3.39167479 0.7231605 5.54489981 0 9 C-0.30592124 13.65941009 -0.30592124 13.65941009 1 18 C0.71887936 20.00800456 0.38932033 22.01014051 0 24 C-1.65 22.68 -3.3 21.36 -5 20 C-4.35587386 17.22875964 -3.70977252 14.45800555 -3.0625 11.6875 C-2.88009766 10.90181641 -2.69769531 10.11613281 -2.50976562 9.30664062 C-2.33251953 8.54931641 -2.15527344 7.79199219 -1.97265625 7.01171875 C-1.81031494 6.31522217 -1.64797363 5.61872559 -1.48071289 4.90112305 C-1.06234435 3.2465594 -0.53968631 1.61905892 0 0 Z " fill="#CDCFD6" transform="translate(286,282)"/>
<path d="M0 0 C1.22589844 0.15275391 1.22589844 0.15275391 2.4765625 0.30859375 C3.41628906 0.43427734 3.41628906 0.43427734 4.375 0.5625 C4.045 1.2225 3.715 1.8825 3.375 2.5625 C0.9 1.5725 0.9 1.5725 -1.625 0.5625 C-1.625 1.2225 -1.625 1.8825 -1.625 2.5625 C-0.635 2.8925 0.355 3.2225 1.375 3.5625 C1.375 4.2225 1.375 4.8825 1.375 5.5625 C0.59125 5.52125 -0.1925 5.48 -1 5.4375 C-3.78616119 5.27521266 -3.78616119 5.27521266 -5.625 7.5625 C-6.945 6.9025 -8.265 6.2425 -9.625 5.5625 C-8.635 5.2325 -7.645 4.9025 -6.625 4.5625 C-6.625 3.2425 -6.625 1.9225 -6.625 0.5625 C-4.10446405 -0.69776798 -2.7707902 -0.35624445 0 0 Z " fill="#454864" transform="translate(265.625,248.4375)"/>
<path d="M0 0 C3.67173807 0.85721511 4.98449688 3.43377656 7.0078125 6.46875 C6.39292969 6.31277344 5.77804687 6.15679687 5.14453125 5.99609375 C4.33628906 5.80144531 3.52804688 5.60679687 2.6953125 5.40625 C1.89480469 5.20902344 1.09429687 5.01179687 0.26953125 4.80859375 C-2.15175929 4.26989446 -2.15175929 4.26989446 -4.9921875 5.46875 C-7.1796875 4.03125 -7.1796875 4.03125 -8.9921875 2.46875 C-5.81379594 0.34982229 -3.79330023 -0.05598967 0 0 Z " fill="#3F4057" transform="translate(251.9921875,238.53125)"/>
<path d="M0 0 C2.9375 0.75 2.9375 0.75 6 2 C6.875 4.125 6.875 4.125 7 6 C6.01 6.66 5.02 7.32 4 8 C3.74969023 10.58380177 3.74969023 10.58380177 4 13 C2 12 2 12 0.875 9.3125 C0.01110926 6.0420565 -0.16013991 3.36293818 0 0 Z " fill="#4D4B63" transform="translate(148,228)"/>
<path d="M0 0 C0.66 0 1.32 0 2 0 C0.62159784 2.83338222 -0.86418386 5.55688806 -2.5 8.25 C-2.9228125 8.95640625 -3.345625 9.6628125 -3.78125 10.390625 C-4.38453125 11.18726563 -4.38453125 11.18726563 -5 12 C-5.66 12 -6.32 12 -7 12 C-7.33 12.66 -7.66 13.32 -8 14 C-8.66 13.01 -9.32 12.02 -10 11 C-9 8 -9 8 -6 6 C-5.67 5.34 -5.34 4.68 -5 4 C-3.66666667 3.33333333 -2.33333333 2.66666667 -1 2 C-0.67 1.34 -0.34 0.68 0 0 Z " fill="#45485D" transform="translate(147,188)"/>
<path d="M0 0 C1.32 0 2.64 0 4 0 C4 0.66 4 1.32 4 2 C4.66 2 5.32 2 6 2 C5.67 4.97 5.34 7.94 5 11 C2.03 11 -0.94 11 -4 11 C-4 10.67 -4 10.34 -4 10 C-1.36 10 1.28 10 4 10 C4 8.68 4 7.36 4 6 C-0.29 6 -4.58 6 -9 6 C-9 5.67 -9 5.34 -9 5 C-5.37 5 -1.74 5 2 5 C2 3.68 2 2.36 2 1 C1.34 0.67 0.68 0.34 0 0 Z " fill="#57596F" transform="translate(272,80)"/>
<path d="M0 0 C1.9451 2.91765 2.45276317 4.62537285 3 8 C1.35 8.33 -0.3 8.66 -2 9 C-2 8.34 -2 7.68 -2 7 C-3.32 6.67 -4.64 6.34 -6 6 C-6 5.01 -6 4.02 -6 3 C-4.68 3.33 -3.36 3.66 -2 4 C-2 3.01 -2 2.02 -2 1 C-1.34 0.67 -0.68 0.34 0 0 Z " fill="#353C51" transform="translate(304,319)"/>
<path d="M0 0 C0.66 0.33 1.32 0.66 2 1 C1.34 1.391875 0.68 1.78375 0 2.1875 C-0.99 3.0846875 -0.99 3.0846875 -2 4 C-2.16671852 6.5417707 -2.16671852 6.5417707 -2 9 C-4 11 -4 11 -6.625 11.125 C-7.40875 11.08375 -8.1925 11.0425 -9 11 C-7.34482973 7.41379775 -5.33544279 4.18469471 -3 1 C-2.01 0.67 -1.02 0.34 0 0 Z " fill="#F4F6F8" transform="translate(282,309)"/>
<path d="M0 0 C0.66 0 1.32 0 2 0 C4.46977731 6.39236479 4.46977731 6.39236479 3 10 C2.67 10.33 2.34 10.66 2 11 C1.76807135 12.51469448 1.58784762 14.03754562 1.4375 15.5625 C1.35371094 16.38878906 1.26992188 17.21507812 1.18359375 18.06640625 C1.12300781 18.70449219 1.06242187 19.34257812 1 20 C0.67 20 0.34 20 0 20 C-0.02696365 18.20841511 -0.04637917 16.41671527 -0.0625 14.625 C-0.07410156 13.62726563 -0.08570313 12.62953125 -0.09765625 11.6015625 C0 9 0 9 1 7 C0.01 7.33 -0.98 7.66 -2 8 C-1.34 5.36 -0.68 2.72 0 0 Z " fill="#343951" transform="translate(291,124)"/>
<path d="M0 0 C0.66 0.66 1.32 1.32 2 2 C1.67 2.66 1.34 3.32 1 4 C1.66 4.33 2.32 4.66 3 5 C2.67 6.65 2.34 8.3 2 10 C1.34 10 0.68 10 0 10 C-0.33 8.68 -0.66 7.36 -1 6 C-1.19990835 9.59835033 -0.96808719 11.93853104 1 15 C1.66 15.33 2.32 15.66 3 16 C2.67 16.66 2.34 17.32 2 18 C-1.10174775 15.93216817 -1.81232145 15.38031589 -3 12 C-3.457712 6.96516798 -2.98464873 4.10389201 0 0 Z " fill="#DCD9E3" transform="translate(293,88)"/>
<path d="M0 0 C0.33 1.32 0.66 2.64 1 4 C0.34 4 -0.32 4 -1 4 C-1 6.64 -1 9.28 -1 12 C-2.32 11.67 -3.64 11.34 -5 11 C-5.33 12.32 -5.66 13.64 -6 15 C-6.99 14.34 -7.98 13.68 -9 13 C-8.34 13 -7.68 13 -7 13 C-6.67 11.35 -6.34 9.7 -6 8 C-5.34 8 -4.68 8 -4 8 C-3.896875 7.4225 -3.79375 6.845 -3.6875 6.25 C-2.90207202 3.67950842 -1.69495803 2.06342716 0 0 Z " fill="#D6D9DE" transform="translate(129,216)"/>
<path d="M0 0 C0.763125 0.0825 1.52625 0.165 2.3125 0.25 C2.9725 1.57 3.6325 2.89 4.3125 4.25 C-0.1425 5.735 -0.1425 5.735 -4.6875 7.25 C-5.0175 6.26 -5.3475 5.27 -5.6875 4.25 C-4.12435347 1.21054842 -3.46963346 0.3227566 0 0 Z " fill="#E9EBF2" transform="translate(301.6875,127.75)"/>
<path d="M0 0 C6.27 0 12.54 0 19 0 C18.67 0.66 18.34 1.32 18 2 C16.68 2 15.36 2 14 2 C13.67 2.99 13.34 3.98 13 5 C11.35 5 9.7 5 8 5 C8 4.34 8 3.68 8 3 C5.36 2.34 2.72 1.68 0 1 C0 0.67 0 0.34 0 0 Z " fill="#373C50" transform="translate(256,107)"/>
<path d="M0 0 C1.2065625 0.0309375 1.2065625 0.0309375 2.4375 0.0625 C2.4375 1.3825 2.4375 2.7025 2.4375 4.0625 C0.7875 4.0625 -0.8625 4.0625 -2.5625 4.0625 C-2.5625 9.6725 -2.5625 15.2825 -2.5625 21.0625 C-2.8925 21.0625 -3.2225 21.0625 -3.5625 21.0625 C-3.59138146 17.75001813 -3.60925799 14.43756833 -3.625 11.125 C-3.63337891 10.17947266 -3.64175781 9.23394531 -3.65039062 8.25976562 C-3.65361328 7.36064453 -3.65683594 6.46152344 -3.66015625 5.53515625 C-3.66539307 4.70250244 -3.67062988 3.86984863 -3.67602539 3.01196289 C-3.50016074 -0.00799247 -3.04049625 0.07415845 0 0 Z " fill="#D1D0DB" transform="translate(236.5625,85.9375)"/>
<path d="M0 0 C1.2989839 0.90626784 2.58893167 1.82549537 3.875 2.75 C4.59429687 3.26046875 5.31359375 3.7709375 6.0546875 4.296875 C8.08570565 6.07503547 8.97855012 7.52701607 10 10 C9.34 10 8.68 10 8 10 C8 9.34 8 8.68 8 8 C5.69 8.66 3.38 9.32 1 10 C1.020625 9.0925 1.04125 8.185 1.0625 7.25 C1.01048111 4.54501751 0.70822372 2.56521977 0 0 Z " fill="#474B62" transform="translate(95,282)"/>
<path d="M0 0 C3.3 0 6.6 0 10 0 C9.01 0.66 8.02 1.32 7 2 C6.27034634 4.56282742 6.27034634 4.56282742 6 7 C3 7 3 7 1.3125 5.75 C0 4 0 4 0 0 Z " fill="#39404E" transform="translate(268,169)"/>
<path d="M0 0 C1.65 0 3.3 0 5 0 C5 0.66 5 1.32 5 2 C5.66 2 6.32 2 7 2 C7 2.66 7 3.32 7 4 C6.34 4 5.68 4 5 4 C5.33 4.99 5.66 5.98 6 7 C5.01 7.495 5.01 7.495 4 8 C3.4121875 7.2575 3.4121875 7.2575 2.8125 6.5 C0.44908285 4.54406857 -1.01435003 4.75792027 -4 5 C-4 4.34 -4 3.68 -4 3 C-3.01 2.67 -2.02 2.34 -1 2 C-0.67 1.34 -0.34 0.68 0 0 Z " fill="#DDDDE7" transform="translate(179,86)"/>
<path d="M0 0 C-0.33 0.99 -0.66 1.98 -1 3 C-1.66 3 -2.32 3 -3 3 C-3.33 3.66 -3.66 4.32 -4 5 C-2.88625 4.7215625 -2.88625 4.7215625 -1.75 4.4375 C0.94990963 4.00796892 2.44631077 4.14877026 5 5 C5 5.33 5 5.66 5 6 C1.37 6.66 -2.26 7.32 -6 8 C-6.33 6.02 -6.66 4.04 -7 2 C-4 0 -4 0 0 0 Z " fill="#4D4F68" transform="translate(177,80)"/>
<path d="M0 0 C1.8844171 3.7688342 2.33429462 5.68012475 2.625 9.75 C2.69976562 10.73484375 2.77453125 11.7196875 2.8515625 12.734375 C2.92503906 13.85585938 2.92503906 13.85585938 3 15 C1.35 13.68 -0.3 12.36 -2 11 C-1.34 7.37 -0.68 3.74 0 0 Z " fill="#E1E2E6" transform="translate(237,408)"/>
<path d="M0 0 C0.27218935 8.16568047 0.27218935 8.16568047 -2 12 C-2 12.99 -2 13.98 -2 15 C-4.51012963 12.48987037 -4.29721609 11.53194763 -4.3125 8.0625 C-4.32925781 7.18722656 -4.34601563 6.31195313 -4.36328125 5.41015625 C-3.99873355 2.99159788 -2.94511612 0 0 0 Z " fill="#41425A" transform="translate(236,408)"/>
<path d="M0 0 C0.99 0.33 1.98 0.66 3 1 C3.6875 3.0625 3.6875 3.0625 4 5 C3.01 5.33 2.02 5.66 1 6 C1 6.99 1 7.98 1 9 C-1.375 9.1875 -1.375 9.1875 -4 9 C-6 6 -6 6 -6 3 C-5.34 3 -4.68 3 -4 3 C-4 3.99 -4 4.98 -4 6 C-2.35 5.67 -0.7 5.34 1 5 C0.67 3.35 0.34 1.7 0 0 Z " fill="#46485E" transform="translate(301,314)"/>
<path d="M0 0 C0.33 0 0.66 0 1 0 C0.85769192 1.41702513 0.71099254 2.8336096 0.5625 4.25 C0.48128906 5.03890625 0.40007812 5.8278125 0.31640625 6.640625 C0.02365007 8.82364639 -0.42064419 10.8773182 -1 13 C-2.65 12.67 -4.3 12.34 -6 12 C-5.34 11.67 -4.68 11.34 -4 11 C-3.855625 9.906875 -3.71125 8.81375 -3.5625 7.6875 C-3.00953021 4.06247579 -2.48828692 2.59196554 0 0 Z " fill="#47465A" transform="translate(212,247)"/>
<path d="M0 0 C0.33 0 0.66 0 1 0 C1.04898438 0.59167969 1.09796875 1.18335938 1.1484375 1.79296875 C1.56456867 6.19104472 2.04965595 9.96928897 4 14 C2.35 14 0.7 14 -1 14 C-1.02705729 12.22925083 -1.04642195 10.45838289 -1.0625 8.6875 C-1.07410156 7.70136719 -1.08570313 6.71523438 -1.09765625 5.69921875 C-1 3 -1 3 0 0 Z " fill="#CBCFD7" transform="translate(193,274)"/>
<path d="M0 0 C0 2.64 0 5.28 0 8 C-3.36591866 6.55746343 -5.51047079 4.66735273 -8 2 C-7.401875 1.855625 -6.80375 1.71125 -6.1875 1.5625 C-0.11111111 0 -0.11111111 0 0 0 Z " fill="#EAE3EF" transform="translate(224,160)"/>
<path d="M0 0 C2.64 0 5.28 0 8 0 C8 1.32 8 2.64 8 4 C3.545 4.495 3.545 4.495 -1 5 C-0.67 3.35 -0.34 1.7 0 0 Z " fill="#EEEFF2" transform="translate(316,86)"/>
<path d="M0 0 C0 3.90547745 -1.292639 5.08826312 -3.6875 8.125 C-4.37199219 9.01445312 -5.05648438 9.90390625 -5.76171875 10.8203125 C-8.23903592 13.23277844 -9.60886368 13.70305286 -13 14 C-9.32084439 8.36629298 -5.2042199 4.24860632 0 0 Z " fill="#4E5060" transform="translate(284,399)"/>
<path d="M0 0 C0.66 0 1.32 0 2 0 C2.66 0.66 3.32 1.32 4 2 C5.32 2.33 6.64 2.66 8 3 C7.67 5.97 7.34 8.94 7 12 C4.57195229 9.57195229 3.48211757 7.08774494 2 4 C1.608125 3.21625 1.21625 2.4325 0.8125 1.625 C0.544375 1.08875 0.27625 0.5525 0 0 Z " fill="#DEE6E7" transform="translate(336,294)"/>
<path d="M0 0 C0.66 0.33 1.32 0.66 2 1 C2 3.64 2 6.28 2 9 C1.34 8.67 0.68 8.34 0 8 C0 7.01 0 6.02 0 5 C-0.66 5 -1.32 5 -2 5 C-2.33 4.34 -2.66 3.68 -3 3 C-3.33 6.63 -3.66 10.26 -4 14 C-4.33 14 -4.66 14 -5 14 C-5 9.71 -5 5.42 -5 1 C-2.525 1.495 -2.525 1.495 0 2 C0 1.34 0 0.68 0 0 Z " fill="#BEBDBF" transform="translate(200,93)"/>
<path d="M0 0 C0.66 1.32 1.32 2.64 2 4 C1.1028125 4.309375 1.1028125 4.309375 0.1875 4.625 C-2.8134229 6.5112944 -3.51373559 8.83361061 -5 12 C-6.6875 13.875 -6.6875 13.875 -8 15 C-8.66 14.67 -9.32 14.34 -10 14 C-8.52208672 11.85329364 -7.0427346 9.70760477 -5.5625 7.5625 C-5.14162109 6.95083984 -4.72074219 6.33917969 -4.28710938 5.70898438 C-1.11328125 1.11328125 -1.11328125 1.11328125 0 0 Z " fill="#D1D2D9" transform="translate(118,232)"/>
<path d="M0 0 C4.29 0 8.58 0 13 0 C12.67 0.99 12.34 1.98 12 3 C3.57142857 4.28571429 3.57142857 4.28571429 -1 3 C-0.67 2.01 -0.34 1.02 0 0 Z " fill="#434558" transform="translate(225,169)"/>
<path d="M0 0 C3.3 1.65 6.6 3.3 10 5 C10 5.66 10 6.32 10 7 C9.34 7 8.68 7 8 7 C7.67 7.99 7.34 8.98 7 10 C6.67 9.01 6.34 8.02 6 7 C5.360625 6.896875 4.72125 6.79375 4.0625 6.6875 C3.381875 6.460625 2.70125 6.23375 2 6 C0.75 2.9375 0.75 2.9375 0 0 Z " fill="#4A4B64" transform="translate(302,164)"/>
<path d="M0 0 C2 1 2 1 2.6328125 2.84765625 C2.79523438 3.57855469 2.95765625 4.30945313 3.125 5.0625 C3.29257813 5.79597656 3.46015625 6.52945313 3.6328125 7.28515625 C3.75398437 7.85105469 3.87515625 8.41695312 4 9 C1.37886292 9 -0.50935112 8.68707555 -3 8 C-1.125 1.125 -1.125 1.125 0 0 Z " fill="#505261" transform="translate(182,135)"/>
<path d="M0 0 C2.5 2.25 2.5 2.25 5 5 C5 6.32 5 7.64 5 9 C3.02 9 1.04 9 -1 9 C-0.67 6.03 -0.34 3.06 0 0 Z " fill="#E6E3EB" transform="translate(195,86)"/>
<path d="M0 0 C2.64 0 5.28 0 8 0 C8 2.64 8 5.28 8 8 C6.85073734 7.04578192 5.70569459 6.08647955 4.5625 5.125 C3.92441406 4.59132813 3.28632813 4.05765625 2.62890625 3.5078125 C1 2 1 2 0 0 Z " fill="#E6EEF0" transform="translate(176,360)"/>
<path d="M0 0 C0.70125 0.495 1.4025 0.99 2.125 1.5 C5.41067306 3.21426421 7.34701858 3.23823792 11 3 C11.99 3 12.98 3 14 3 C13.67 3.99 13.34 4.98 13 6 C12.22914063 5.98839844 11.45828125 5.97679687 10.6640625 5.96484375 C9.66117187 5.95582031 8.65828125 5.94679688 7.625 5.9375 C6.12839844 5.92009766 6.12839844 5.92009766 4.6015625 5.90234375 C2.01567547 5.81993398 2.01567547 5.81993398 0 7 C0 4.69 0 2.38 0 0 Z " fill="#E5E5EE" transform="translate(275,254)"/>
<path d="M0 0 C1.32 0 2.64 0 4 0 C4 2.31 4 4.62 4 7 C2.68 6.67 1.36 6.34 0 6 C0.33 6.99 0.66 7.98 1 9 C0.34 9 -0.32 9 -1 9 C-1.66 6.69 -2.32 4.38 -3 2 C-2.34 2 -1.68 2 -1 2 C-0.67 1.34 -0.34 0.68 0 0 Z " fill="#EDF0EE" transform="translate(260,240)"/>
<path d="M0 0 C1.32 0.66 2.64 1.32 4 2 C4 2.66 4 3.32 4 4 C3.54625 4.4125 3.0925 4.825 2.625 5.25 C0.46013354 7.58139465 -0.12705877 9.97828036 -1 13 C-1.3449145 11.66961551 -1.67516582 10.33542939 -2 9 C-2.2475 8.175 -2.495 7.35 -2.75 6.5 C-3 4 -3 4 -1.5625 1.6875 C-1.046875 1.130625 -0.53125 0.57375 0 0 Z " fill="#E3E6E9" transform="translate(180,131)"/>
<path d="M0 0 C0.33 0.66 0.66 1.32 1 2 C0.0625 4.125 0.0625 4.125 -1 6 C-0.34 6.33 0.32 6.66 1 7 C-0.98 7.66 -2.96 8.32 -5 9 C-5.33 7.68 -5.66 6.36 -6 5 C-4.02 3.35 -2.04 1.7 0 0 Z " fill="#393B50" transform="translate(263,421)"/>
<path d="M0 0 C1.09658936 3.28976808 0.79953138 4.71303767 0 8 C-0.5775 8.12375 -1.155 8.2475 -1.75 8.375 C-4.02612206 9.00725613 -5.90760206 9.91863468 -8 11 C-7.04454634 9.53977837 -6.08553322 8.08188532 -5.125 6.625 C-4.59132813 5.81289062 -4.05765625 5.00078125 -3.5078125 4.1640625 C-2 2 -2 2 0 0 Z " fill="#E2E0E8" transform="translate(107,248)"/>
<path d="M0 0 C1.98 0.99 1.98 0.99 4 2 C4 3.65 4 5.3 4 7 C4.99 6.67 5.98 6.34 7 6 C7.66 7.32 8.32 8.64 9 10 C4.74278702 9.52697634 2.67053918 7.18981069 0 4 C0 2.68 0 1.36 0 0 Z " fill="#434C55" transform="translate(152,238)"/>
<path d="M0 0 C0.66 0.33 1.32 0.66 2 1 C3.26229508 5.47540984 3.26229508 5.47540984 2 8 C-3.75 6.375 -3.75 6.375 -6 3 C-3.525 3.495 -3.525 3.495 -1 4 C-1.33 3.01 -1.66 2.02 -2 1 C-1.34 0.67 -0.68 0.34 0 0 Z " fill="#E6E9E9" transform="translate(214,232)"/>
<path d="M0 0 C-0.33 0.99 -0.66 1.98 -1 3 C-4.3125 3.6875 -4.3125 3.6875 -8 4 C-9.9375 2.5625 -9.9375 2.5625 -11 1 C-3.375 -1.125 -3.375 -1.125 0 0 Z " fill="#D7DBE3" transform="translate(171,233)"/>
<path d="M0 0 C0.99 0 1.98 0 3 0 C3.33 0.99 3.66 1.98 4 3 C3.01 3.33 2.02 3.66 1 4 C1 10.27 1 16.54 1 23 C0.67 23 0.34 23 0 23 C0 15.41 0 7.82 0 0 Z " fill="#EFF0FA" transform="translate(213,121)"/>
<path d="M0 0 C2.97 0.33 5.94 0.66 9 1 C7.68 2.32 6.36 3.64 5 5 C4.67 4.01 4.34 3.02 4 2 C3.01 3.485 3.01 3.485 2 5 C-1.125 5.1875 -1.125 5.1875 -4 5 C-3.67 4.01 -3.34 3.02 -3 2 C-2.01 2 -1.02 2 0 2 C0 1.34 0 0.68 0 0 Z " fill="#45495E" transform="translate(316,106)"/>
<path d="M0 0 C2.31 0 4.62 0 7 0 C7 4.29 7 8.58 7 13 C6.67 13 6.34 13 6 13 C5.67 10.36 5.34 7.72 5 5 C4.34 5 3.68 5 3 5 C2.67 5.66 2.34 6.32 2 7 C2 5.68 2 4.36 2 3 C2.66 3 3.32 3 4 3 C4 2.34 4 1.68 4 1 C2.68 0.67 1.36 0.34 0 0 Z " fill="#4D495F" transform="translate(234,90)"/>
<path d="M0 0 C0.99 0 1.98 0 3 0 C2.979375 1.2375 2.95875 2.475 2.9375 3.75 C2.93233319 6.6640825 3.06984442 9.20953327 4 12 C2.68 12 1.36 12 0 12 C-0.19401633 10.18818595 -0.38004375 8.37551468 -0.5625 6.5625 C-0.66691406 5.55316406 -0.77132813 4.54382813 -0.87890625 3.50390625 C-0.91886719 2.67761719 -0.95882813 1.85132812 -1 1 C-0.67 0.67 -0.34 0.34 0 0 Z " fill="#4A484F" transform="translate(309,91)"/>
<path d="M0 0 C2.05078125 0.03255208 4.1015625 0.06510417 6.15234375 0.09765625 C6.15234375 0.75765625 6.15234375 1.41765625 6.15234375 2.09765625 C6.81234375 2.75765625 7.47234375 3.41765625 8.15234375 4.09765625 C4.85234375 4.09765625 1.55234375 4.09765625 -1.84765625 4.09765625 C-2.17765625 3.10765625 -2.50765625 2.11765625 -2.84765625 1.09765625 C-1.84765625 0.09765625 -1.84765625 0.09765625 0 0 Z " fill="#373D52" transform="translate(226.84765625,80.90234375)"/>
<path d="M0 0 C0.99 0.33 1.98 0.66 3 1 C2.74438677 3.3431213 2.40729228 5.67843403 2 8 C1.01 8.495 1.01 8.495 0 9 C-0.433125 8.505 -0.86625 8.01 -1.3125 7.5 C-2.99740483 5.66781808 -2.99740483 5.66781808 -6 6 C-4.625 4.5 -4.625 4.5 -3 3 C-2.34 3 -1.68 3 -1 3 C-0.67 2.01 -0.34 1.02 0 0 Z " fill="#4D4F62" transform="translate(302,381)"/>
<path d="M0 0 C0.92538169 3.70152678 1.08174162 4.63458162 0 8 C1.32 8 2.64 8 4 8 C3.6875 10.375 3.6875 10.375 3 13 C2.01 13.66 1.02 14.32 0 15 C0 13.35 0 11.7 0 10 C-0.66 10 -1.32 10 -2 10 C-1.34 6.7 -0.68 3.4 0 0 Z " fill="#585670" transform="translate(218,248)"/>
<path d="M0 0 C3.8665284 3.222107 4.88059018 6.14922412 6 11 C4.68 11 3.36 11 2 11 C0.57741188 7.17679443 -0.24042276 4.08718695 0 0 Z " fill="#4F5161" transform="translate(191,211)"/>
<path d="M0 0 C0.33 0 0.66 0 1 0 C1.33 4.95 1.66 9.9 2 15 C1.34 15 0.68 15 0 15 C0 14.34 0 13.68 0 13 C-0.66 13 -1.32 13 -2 13 C-2.33 13.66 -2.66 14.32 -3 15 C-3 13.35 -3 11.7 -3 10 C-2.34 10 -1.68 10 -1 10 C-0.67 6.7 -0.34 3.4 0 0 Z " fill="#55586B" transform="translate(254,121)"/>
<path d="M0 0 C0.99 0 1.98 0 3 0 C3 3.3 3 6.6 3 10 C2.01 10 1.02 10 0 10 C0 6.7 0 3.4 0 0 Z " fill="#3E3F4A" transform="translate(251,121)"/>
<path d="M0 0 C0.33 0 0.66 0 1 0 C1 6.93 1 13.86 1 21 C0.67 21 0.34 21 0 21 C0 18.03 0 15.06 0 12 C-1.65 12 -3.3 12 -5 12 C-3.625 10.5 -3.625 10.5 -2 9 C-1.34 9 -0.68 9 0 9 C0 6.03 0 3.06 0 0 Z " fill="#DDDFE7" transform="translate(255,86)"/>
<path d="M0 0 C3.3 0 6.6 0 10 0 C9.34 1.98 8.68 3.96 8 6 C7.34 5.67 6.68 5.34 6 5 C6 4.01 6 3.02 6 2 C4.02 2.33 2.04 2.66 0 3 C0 2.01 0 1.02 0 0 Z " fill="#FCF9FE" transform="translate(224,86)"/>
<path d="M0 0 C0.33 0.99 0.66 1.98 1 3 C-1.75134539 5.95514876 -4.39733775 8.1524809 -8 10 C-8.99 10 -9.98 10 -11 10 C-9.54474941 8.51780033 -8.085701 7.03932861 -6.625 5.5625 C-5.81289063 4.73878906 -5.00078125 3.91507812 -4.1640625 3.06640625 C-2 1 -2 1 0 0 Z " fill="#5E5D70" transform="translate(355,330)"/>
<path d="M0 0 C1.9375 0.6875 1.9375 0.6875 4 2 C4.75 4.625 4.75 4.625 5 7 C2 7 2 7 0.61328125 5.6875 C-0.59114583 4.125 -1.79557292 2.5625 -3 1 C-2.01 1 -1.02 1 0 1 C0 0.67 0 0.34 0 0 Z " fill="#EBE5ED" transform="translate(139,320)"/>
<path d="M0 0 C3.96 0 7.92 0 12 0 C12.99 2.31 13.98 4.62 15 7 C14.34 7 13.68 7 13 7 C12.67 6.01 12.34 5.02 12 4 C11.34 3.67 10.68 3.34 10 3 C9.67 3.66 9.34 4.32 9 5 C9 4.34 9 3.68 9 3 C4.545 2.01 4.545 2.01 0 1 C0 0.67 0 0.34 0 0 Z " fill="#E6E4F0" transform="translate(176,121)"/>
<path d="M0 0 C0.66 0 1.32 0 2 0 C3.91847864 2.87771795 5.50079488 5.88626628 7 9 C4.69 8.34 2.38 7.68 0 7 C0 4.69 0 2.38 0 0 Z " fill="#4C4965" transform="translate(198,98)"/>
<path d="M0 0 C0.33 1.32 0.66 2.64 1 4 C0.175 4.45375 -0.65 4.9075 -1.5 5.375 C-2.7375 6.179375 -2.7375 6.179375 -4 7 C-4 7.66 -4 8.32 -4 9 C-5.98 9.66 -7.96 10.32 -10 11 C-8.85455923 7.56367769 -7.7288492 6.66528415 -5 4.375 C-4.278125 3.76398438 -3.55625 3.15296875 -2.8125 2.5234375 C-2.214375 2.02070313 -1.61625 1.51796875 -1 1 C-0.67 0.67 -0.34 0.34 0 0 Z " fill="#5B5D69" transform="translate(295,388)"/>
<path d="M0 0 C0.33 0.66 0.66 1.32 1 2 C0.25 4.0625 0.25 4.0625 -1 6 C-1.99 6.33 -2.98 6.66 -4 7 C-4 7.99 -4 8.98 -4 10 C-5.98 10.33 -7.96 10.66 -10 11 C-6.79239749 7.19364503 -3.59253891 3.45436433 0 0 Z " fill="#525166" transform="translate(335,349)"/>
<path d="M0 0 C3.53600465 1.91135386 5.78972846 3.62642766 8 7 C5.36 7 2.72 7 0 7 C0 4.69 0 2.38 0 0 Z " fill="#E0E5E9" transform="translate(200,292)"/>
<path d="M0 0 C1.32 0.33 2.64 0.66 4 1 C1.03 3.97 -1.94 6.94 -5 10 C-5.33 9.34 -5.66 8.68 -6 8 C-5.67 7.34 -5.34 6.68 -5 6 C-4.34 6 -3.68 6 -3 6 C-3.33 5.01 -3.66 4.02 -4 3 C-3.01 2.67 -2.02 2.34 -1 2 C-0.67 1.34 -0.34 0.68 0 0 Z " fill="#DCDCDE" transform="translate(323,357)"/>
<path d="M0 0 C0.66 0.33 1.32 0.66 2 1 C0.68 2.32 -0.64 3.64 -2 5 C-1.34 5.66 -0.68 6.32 0 7 C-3.75 10 -3.75 10 -6 10 C-5.57742724 8.5164999 -5.13643678 7.03823576 -4.6875 5.5625 C-4.32205078 4.32693359 -4.32205078 4.32693359 -3.94921875 3.06640625 C-3.63597656 2.38449219 -3.32273437 1.70257813 -3 1 C-2.01 0.67 -1.02 0.34 0 0 Z " fill="#D1D2DC" transform="translate(262,328)"/>
<path d="M0 0 C1.32 0.33 2.64 0.66 4 1 C2.75 4.4375 2.75 4.4375 1 8 C-1.1875 8.9375 -1.1875 8.9375 -3 9 C-2.67 8.01 -2.34 7.02 -2 6 C-1.34 6 -0.68 6 0 6 C-0.33 5.01 -0.66 4.02 -1 3 C-0.67 2.01 -0.34 1.02 0 0 Z " fill="#494F5F" transform="translate(302,304)"/>
<path d="M0 0 C0.66 0.33 1.32 0.66 2 1 C1.71872579 2.48117801 1.42466268 3.95993249 1.125 5.4375 C0.96257812 6.26121094 0.80015625 7.08492188 0.6328125 7.93359375 C0.42398437 8.61550781 0.21515625 9.29742187 0 10 C-0.99 10.495 -0.99 10.495 -2 11 C-2.25 3.375 -2.25 3.375 0 0 Z " fill="#F4F7F9" transform="translate(287,288)"/>
<path d="M0 0 C0.66 0 1.32 0 2 0 C3 3 3 3 2 6 C3.32 6.33 4.64 6.66 6 7 C6 7.66 6 8.32 6 9 C5.34 9 4.68 9 4 9 C4 8.34 4 7.68 4 7 C1.69 6.67 -0.62 6.34 -3 6 C-3 4 -3 4 -1 2 C-0.67 1.34 -0.34 0.68 0 0 Z " fill="#DDE2E7" transform="translate(200,262)"/>
<path d="M0 0 C2.25597827 2.25597827 2.96574192 4.04603867 4.125 7 C4.47820312 7.886875 4.83140625 8.77375 5.1953125 9.6875 C6 12 6 12 6 14 C5.01 13.67 4.02 13.34 3 13 C2.67 10.69 2.34 8.38 2 6 C1.34 6 0.68 6 0 6 C-0.33 6.66 -0.66 7.32 -1 8 C-0.67 5.36 -0.34 2.72 0 0 Z " fill="#D9DAE2" transform="translate(194,136)"/>
<path d="M0 0 C2 2 2 2 2.1953125 4.3828125 C2.17210937 5.28773437 2.14890625 6.19265625 2.125 7.125 C2.10695313 8.03507812 2.08890625 8.94515625 2.0703125 9.8828125 C2.04710937 10.58148438 2.02390625 11.28015625 2 12 C1.67 11.34 1.34 10.68 1 10 C0.34 9.67 -0.32 9.34 -1 9 C-0.67 7.68 -0.34 6.36 0 5 C-1.98 5 -3.96 5 -6 5 C-6 4.67 -6 4.34 -6 4 C-4.35 3.67 -2.7 3.34 -1 3 C-0.67 2.01 -0.34 1.02 0 0 Z " fill="#423D52" transform="translate(288,92)"/>
<path d="M0 0 C-0.66 1.98 -1.32 3.96 -2 6 C-5.16115776 4.63016497 -5.9927092 4.0109362 -8 1 C-5.29120665 -0.35439668 -2.99066732 -0.06501451 0 0 Z " fill="#E9E1EC" transform="translate(160,336)"/>
<path d="M0 0 C2.96404505 2.80804268 5.44499019 5.18315774 7 9 C5.35 9.33 3.7 9.66 2 10 C0.95550089 6.86650268 1.06576355 6.01031744 2 3 C1.01 2.67 0.02 2.34 -1 2 C-0.67 1.34 -0.34 0.68 0 0 Z " fill="#DFE1E5" transform="translate(385,238)"/>
<path d="M0 0 C2.64 0 5.28 0 8 0 C6.875 2 6.875 2 5 4 C1.8125 4.25 1.8125 4.25 -1 4 C-0.67 2.68 -0.34 1.36 0 0 Z " fill="#3D3D4F" transform="translate(296,108)"/>
<path d="M0 0 C0 0.99 0 1.98 0 3 C-4.455 3.495 -4.455 3.495 -9 4 C-9 3.01 -9 2.02 -9 1 C-5.94152152 0.45627049 -3.11227195 0 0 0 Z " fill="#F1F3F9" transform="translate(185,102)"/>
<path d="M0 0 C0.33 0 0.66 0 1 0 C1 5.28 1 10.56 1 16 C0.34 15.67 -0.32 15.34 -1 15 C-0.67 14.01 -0.34 13.02 0 12 C-0.66 12 -1.32 12 -2 12 C-2 12.66 -2 13.32 -2 14 C-2.66 13.67 -3.32 13.34 -4 13 C-3.525625 12.34 -3.05125 11.68 -2.5625 11 C-0.58682146 7.2066972 -0.35972537 4.24475932 0 0 Z " fill="#444350" transform="translate(189,91)"/>
<path d="M0 0 C2.97 0 5.94 0 9 0 C9 0.99 9 1.98 9 3 C6.03 3 3.06 3 0 3 C0 2.01 0 1.02 0 0 Z " fill="#DCDBE6" transform="translate(279,97)"/>
<path d="M0 0 C2.97 0 5.94 0 9 0 C9 0.99 9 1.98 9 3 C6.03 3 3.06 3 0 3 C0 2.01 0 1.02 0 0 Z " fill="#D3D4E2" transform="translate(212,97)"/>
<path d="M0 0 C1.65 0.33 3.3 0.66 5 1 C5.33 2.32 5.66 3.64 6 5 C5.401875 4.814375 4.80375 4.62875 4.1875 4.4375 C1.83591238 3.77906313 1.83591238 3.77906313 -1 5 C-1.33 4.34 -1.66 3.68 -2 3 C-1.34 2.01 -0.68 1.02 0 0 Z " fill="#423F51" transform="translate(176,90)"/>
<path d="M0 0 C1.32 0.33 2.64 0.66 4 1 C4.625 3.375 4.625 3.375 5 6 C4.34 6.66 3.68 7.32 3 8 C1.5 6.8125 1.5 6.8125 0 5 C-0.1875 2.3125 -0.1875 2.3125 0 0 Z " fill="#DBDDE7" transform="translate(324,86)"/>
<path d="M0 0 C0.99 0.33 1.98 0.66 3 1 C2.67 2.65 2.34 4.3 2 6 C1.01 6 0.02 6 -1 6 C-2.33981486 6.3062434 -3.67511887 6.63451555 -5 7 C-3.47793991 4.37098712 -2.15634036 2.15634036 0 0 Z " fill="#343954" transform="translate(284,401)"/>
<path d="M0 0 C0.66 0 1.32 0 2 0 C0.49776416 4.20626034 -2.28550034 5.73900021 -6 8 C-6.33 7.01 -6.66 6.02 -7 5 C-6.34 4.01 -5.68 3.02 -5 2 C-3.68 2 -2.36 2 -1 2 C-0.67 1.34 -0.34 0.68 0 0 Z " fill="#E4E4E5" transform="translate(310,371)"/>
<path d="M0 0 C1.6396875 0.2475 1.6396875 0.2475 3.3125 0.5 C6.87525873 1.06718184 6.87525873 1.06718184 10 1 C9.34 1.66 8.68 2.32 8 3 C8.33 3.66 8.66 4.32 9 5 C6.36 5 3.72 5 1 5 C0.67 3.35 0.34 1.7 0 0 Z " fill="#53526A" transform="translate(300,290)"/>
<path d="M0 0 C0.66 0.33 1.32 0.66 2 1 C2 1.33 2 1.66 2 2 C2.33 2 2.66 2 3 2 C3 3.98 3 5.96 3 8 C2.34 8 1.68 8 1 8 C0.67 7.34 0.34 6.68 0 6 C-0.99 5.67 -1.98 5.34 -3 5 C-3 4.01 -3 3.02 -3 2 C-2.01 1.34 -1.02 0.68 0 0 Z " fill="#F1F6F8" transform="translate(205,263)"/>
<path d="M0 0 C0 0.99 0 1.98 0 3 C-0.66 3 -1.32 3 -2 3 C-2 3.66 -2 4.32 -2 5 C-2.66 5 -3.32 5 -4 5 C-4 4.34 -4 3.68 -4 3 C-4.99 3 -5.98 3 -7 3 C-6.67 2.01 -6.34 1.02 -6 0 C-3.50907189 -1.24546405 -2.58919267 -0.7767578 0 0 Z " fill="#5F5D6B" transform="translate(168,203)"/>
<path d="M0 0 C1.32 0.33 2.64 0.66 4 1 C4.103125 1.639375 4.20625 2.27875 4.3125 2.9375 C4.539375 3.618125 4.76625 4.29875 5 5 C5.99 5.33 6.98 5.66 8 6 C8 7.65 8 9.3 8 11 C2.19794344 5.35475578 2.19794344 5.35475578 0 2 C0 1.34 0 0.68 0 0 Z " fill="#504F63" transform="translate(359,200)"/>
<path d="M0 0 C1.32 0 2.64 0 4 0 C4 2.64 4 5.28 4 8 C3.01 7.67 2.02 7.34 1 7 C0.67 4.69 0.34 2.38 0 0 Z " fill="#3F4149" transform="translate(201,89)"/>
<path d="M0 0 C3.11288957 1.49879868 6.04537409 3.21167379 9 5 C9.66 5.33 10.32 5.66 11 6 C11 6.99 11 7.98 11 9 C6.73709821 8.52634425 4.78451042 6.07761678 2 3 C1.34 2.01 0.68 1.02 0 0 Z " fill="#D5D8DE" transform="translate(240,423)"/>
<path d="M0 0 C0.33 0 0.66 0 1 0 C1.05410687 1.77049689 1.09284119 3.54146849 1.125 5.3125 C1.14820313 6.29863281 1.17140625 7.28476562 1.1953125 8.30078125 C1 11 1 11 -1 14 C-1.66 14 -2.32 14 -3 14 C-2.01 9.38 -1.02 4.76 0 0 Z " fill="#C5C3D2" transform="translate(251,354)"/>
<path d="M0 0 C1.17539996 0.92652701 2.34010577 1.86663387 3.5 2.8125 C4.1496875 3.33457031 4.799375 3.85664063 5.46875 4.39453125 C7 6 7 6 7 9 C5.0625 8.1875 5.0625 8.1875 3 7 C2.67 6.01 2.34 5.02 2 4 C1.01 4.495 1.01 4.495 0 5 C0 3.35 0 1.7 0 0 Z " fill="#4A5164" transform="translate(174,359)"/>
<path d="M0 0 C-1.39332574 3.36720387 -2.9789286 4.9859524 -6 7 C-6.33 5.35 -6.66 3.7 -7 2 C-4 0 -4 0 0 0 Z " fill="#DEDCE2" transform="translate(360,324)"/>
<path d="M0 0 C0.33 0.66 0.66 1.32 1 2 C1.99 2.33 2.98 2.66 4 3 C3.01 3.495 3.01 3.495 2 4 C1.67 4.66 1.34 5.32 1 6 C0.01 6 -0.98 6 -2 6 C-2.33 4.35 -2.66 2.7 -3 1 C-2.01 0.67 -1.02 0.34 0 0 Z " fill="#343954" transform="translate(132,321)"/>
<path d="M0 0 C0.33 0 0.66 0 1 0 C1.33 2.64 1.66 5.28 2 8 C1.01 8.33 0.02 8.66 -1 9 C-1.33 9.99 -1.66 10.98 -2 12 C-2.66 12 -3.32 12 -4 12 C-2.66666667 8 -1.33333333 4 0 0 Z " fill="#D1D5DF" transform="translate(166,144)"/>
<path d="M0 0 C0 4.26861765 -1.65525557 6.48288335 -4 10 C-4.66 10 -5.32 10 -6 10 C-4.79157144 5.56909529 -3.48331435 3.01887244 0 0 Z " fill="#4B4C60" transform="translate(310,132)"/>
<path d="M0 0 C0.66 0 1.32 0 2 0 C2.33 0.66 2.66 1.32 3 2 C3.66 2 4.32 2 5 2 C5 3.65 5 5.3 5 7 C3.68 7.33 2.36 7.66 1 8 C0.67 5.36 0.34 2.72 0 0 Z " fill="#3A3955" transform="translate(330,324)"/>
<path d="M0 0 C1 3 1 3 0.22265625 5.04296875 C-0.16019531 5.75066406 -0.54304688 6.45835937 -0.9375 7.1875 C-1.31777344 7.90292969 -1.69804687 8.61835938 -2.08984375 9.35546875 C-2.54037109 10.16951172 -2.54037109 10.16951172 -3 11 C-3.66 9.68 -4.32 8.36 -5 7 C-4.01 6.67 -3.02 6.34 -2 6 C-2 4.68 -2 3.36 -2 2 C-1.34 2 -0.68 2 0 2 C0 1.34 0 0.68 0 0 Z " fill="#4B505F" transform="translate(278,306)"/>
<path d="M0 0 C4.95044053 4.7907489 4.95044053 4.7907489 5.09765625 8.3828125 C5.08605469 9.28773438 5.07445312 10.19265625 5.0625 11.125 C5.05347656 12.03507812 5.04445312 12.94515625 5.03515625 13.8828125 C5.02355469 14.58148438 5.01195312 15.28015625 5 16 C4.67 16 4.34 16 4 16 C3.87882813 15.21753906 3.75765625 14.43507813 3.6328125 13.62890625 C3.38144531 12.11103516 3.38144531 12.11103516 3.125 10.5625 C2.96257812 9.55316406 2.80015625 8.54382813 2.6328125 7.50390625 C2.42398438 6.67761719 2.21515625 5.85132813 2 5 C1.34 4.67 0.68 4.34 0 4 C0 2.68 0 1.36 0 0 Z " fill="#B9B9C2" transform="translate(208,300)"/>
<path d="M0 0 C1.5 1.125 1.5 1.125 3 3 C3.1875 6.1875 3.1875 6.1875 3 9 C1.02 9.99 1.02 9.99 -1 11 C-0.835 10.236875 -0.67 9.47375 -0.5 8.6875 C0.09145396 5.96403764 0.09145396 5.96403764 0 3 C0 2.01 0 1.02 0 0 Z " fill="#353753" transform="translate(281,282)"/>
<path d="M0 0 C0.66 0 1.32 0 2 0 C3.50156874 3.00313748 3.09281204 5.79067522 3.0625 9.125 C3.05347656 10.40632813 3.04445313 11.68765625 3.03515625 13.0078125 C3.02355469 13.99523437 3.01195312 14.98265625 3 16 C2.01 16.33 1.02 16.66 0 17 C0.165 16.175 0.33 15.35 0.5 14.5 C1.20894571 9.53738006 1.6073475 4.82204249 0 0 Z " fill="#D6D6DB" transform="translate(288,261)"/>
<path d="M0 0 C2.33944736 0.28730055 4.6739143 0.61936779 7 1 C6.67 2.32 6.34 3.64 6 5 C4.35 5 2.7 5 1 5 C0.34 3.68 -0.32 2.36 -1 1 C-0.67 0.67 -0.34 0.34 0 0 Z " fill="#F6F5F3" transform="translate(178,251)"/>
<path d="M0 0 C0.99 0 1.98 0 3 0 C3.33 0.99 3.66 1.98 4 3 C4.66 3.33 5.32 3.66 6 4 C5.67 2.68 5.34 1.36 5 0 C5.99 0.33 6.98 0.66 8 1 C7.67 2.65 7.34 4.3 7 6 C2.32307692 4.52307692 2.32307692 4.52307692 0.6875 1.875 C0.460625 1.25625 0.23375 0.6375 0 0 Z " fill="#D0D2D4" transform="translate(312,101)"/>
<path d="M0 0 C1.65 0.33 3.3 0.66 5 1 C6.04449911 4.13349732 5.93423645 4.98968256 5 8 C4.34 7.67 3.68 7.34 3 7 C3 6.34 3 5.68 3 5 C1.02 5 -0.96 5 -3 5 C-3 4.67 -3 4.34 -3 4 C-1.02 4 0.96 4 3 4 C3 3.01 3 2.02 3 1 C2.01 0.67 1.02 0.34 0 0 Z " fill="#C6C8CD" transform="translate(301,98)"/>
<path d="M0 0 C3.3 0 6.6 0 10 0 C5.69230769 3.93846154 5.69230769 3.93846154 2.1875 4.25 C1.465625 4.1675 0.74375 4.085 0 4 C0.99 3.67 1.98 3.34 3 3 C3 2.34 3 1.68 3 1 C2.01 0.67 1.02 0.34 0 0 Z " fill="#EEEBF6" transform="translate(245,94)"/>
<path d="M0 0 C2.475 0.99 2.475 0.99 5 2 C4.67 2.99 4.34 3.98 4 5 C1.03 4.505 1.03 4.505 -2 4 C-1.34 2.68 -0.68 1.36 0 0 Z " fill="#EAE7EF" transform="translate(302,86)"/>
<path d="M0 0 C1.32 0.33 2.64 0.66 4 1 C3.6875 2.875 3.6875 2.875 3 5 C2.01 5.66 1.02 6.32 0 7 C-0.66 5.68 -1.32 4.36 -2 3 C-1.34 2.01 -0.68 1.02 0 0 Z " fill="#ECF0F1" transform="translate(251,424)"/>
<path d="M0 0 C1.65 0.33 3.3 0.66 5 1 C3.35 2.98 1.7 4.96 0 7 C-0.66 6.01 -1.32 5.02 -2 4 C-1.34 2.68 -0.68 1.36 0 0 Z " fill="#E9E9EC" transform="translate(362,317)"/>
<path d="M0 0 C0.12375 0.639375 0.2475 1.27875 0.375 1.9375 C0.684375 2.9584375 0.684375 2.9584375 1 4 C1.66 4.33 2.32 4.66 3 5 C2.67 5.66 2.34 6.32 2 7 C2.66 7.33 3.32 7.66 4 8 C2.68 7.67 1.36 7.34 0 7 C0.33 6.34 0.66 5.68 1 5 C-0.65 4.67 -2.3 4.34 -4 4 C-4 3.34 -4 2.68 -4 2 C-2.68 1.34 -1.36 0.68 0 0 Z " fill="#343956" transform="translate(125,312)"/>
<path d="M0 0 C0 2.31 0 4.62 0 7 C-0.99 7.33 -1.98 7.66 -3 8 C-3.66 7.67 -4.32 7.34 -5 7 C-4.6875 4.625 -4.6875 4.625 -4 2 C-1 0 -1 0 0 0 Z " fill="#F5F9F9" transform="translate(285,300)"/>
<path d="M0 0 C0.99 0.66 1.98 1.32 3 2 C3 2.66 3 3.32 3 4 C4.32 3.67 5.64 3.34 7 3 C6.67 4.32 6.34 5.64 6 7 C3.03 5.35 0.06 3.7 -3 2 C-2.01 1.34 -1.02 0.68 0 0 Z " fill="#D7D6E1" transform="translate(297,285)"/>
<path d="M0 0 C0.99 0.33 1.98 0.66 3 1 C3.33 3.31 3.66 5.62 4 8 C1.37812506 6.95125002 0.20628639 6.35068687 -1.25 3.875 C-1.4975 3.25625 -1.745 2.6375 -2 2 C-1.34 2 -0.68 2 0 2 C0 1.34 0 0.68 0 0 Z " fill="#3D4054" transform="translate(388,236)"/>
<path d="M0 0 C1.98 0 3.96 0 6 0 C3.22719294 3.08089673 0.93673644 4.68775452 -3 6 C-2 4 -1 2 0 0 Z " fill="#E3E4EE" transform="translate(149,188)"/>
<path d="M0 0 C0 1.32 0 2.64 0 4 C2.64 3.67 5.28 3.34 8 3 C7.67 3.66 7.34 4.32 7 5 C5.56344146 5.08131463 4.1255517 5.13933559 2.6875 5.1875 C1.48673828 5.23970703 1.48673828 5.23970703 0.26171875 5.29296875 C-2.47851584 4.93801608 -3.29171079 4.10633718 -5 2 C-2 0 -2 0 0 0 Z " fill="#CFD2D8" transform="translate(176,102)"/>
<path d="M0 0 C2.64 0.33 5.28 0.66 8 1 C8.33 1.99 8.66 2.98 9 4 C8.34 4 7.68 4 7 4 C7 3.34 7 2.68 7 2 C6.01 2 5.02 2 4 2 C3.34 3.32 2.68 4.64 2 6 C0 2.25 0 2.25 0 0 Z " fill="#373950" transform="translate(277,100)"/>
<path d="M0 0 C-0.62759865 2.92879371 -1.58622659 5.36095629 -3 8 C-3.66 7.34 -4.32 6.68 -5 6 C-4.34 6 -3.68 6 -3 6 C-3 4.68 -3 3.36 -3 2 C-5.31 2 -7.62 2 -10 2 C-10 1.67 -10 1.34 -10 1 C-2.25 0 -2.25 0 0 0 Z " fill="#565866" transform="translate(278,92)"/>
<path d="M0 0 C1.22589844 0.01353516 1.22589844 0.01353516 2.4765625 0.02734375 C3.41628906 0.04474609 3.41628906 0.04474609 4.375 0.0625 C1.47407498 1.99645001 0.47825263 2.36381941 -2.8125 2.6875 C-4.070625 2.81125 -5.32875 2.935 -6.625 3.0625 C-6.625 2.4025 -6.625 1.7425 -6.625 1.0625 C-4.21954362 -0.14022819 -2.67503047 -0.03821472 0 0 Z " fill="#575C6F" transform="translate(318.625,287.9375)"/>
<path d="M0 0 C0.66 0 1.32 0 2 0 C4.1519437 3.22791555 4.20086443 4.28400809 4 8 C1.03 7.505 1.03 7.505 -2 7 C-1.67 6.01 -1.34 5.02 -1 4 C-0.34 4 0.32 4 1 4 C0.67 2.68 0.34 1.36 0 0 Z " fill="#4D4C66" transform="translate(410,272)"/>
<path d="M0 0 C0.66 0 1.32 0 2 0 C2 2.64 2 5.28 2 8 C1.34 8 0.68 8 0 8 C-2 5 -2 5 -1.6875 2.875 C-1 1 -1 1 0 0 Z " fill="#E6E3EB" transform="translate(94,274)"/>
<path d="M0 0 C1.258125 -0.020625 2.51625 -0.04125 3.8125 -0.0625 C4.52019531 -0.07410156 5.22789062 -0.08570313 5.95703125 -0.09765625 C8 0 8 0 11 1 C11.33 1.99 11.66 2.98 12 4 C11.01 4.495 11.01 4.495 10 5 C7.875 4.0625 7.875 4.0625 6 3 C6 2.34 6 1.68 6 1 C4.02 1 2.04 1 0 1 C0 0.67 0 0.34 0 0 Z " fill="#5F606F" transform="translate(277,259)"/>
<path d="M0 0 C3.0831351 1.19899698 6.06279492 2.47700477 9 4 C5.30581799 5.231394 2.7943739 4.64432764 -1 4 C-0.67 2.68 -0.34 1.36 0 0 Z " fill="#E1E0EA" transform="translate(192,251)"/>
<path d="M0 0 C0.5534764 2.07553648 1 3.84365964 1 6 C0.01 6.33 -0.98 6.66 -2 7 C-2 6.34 -2 5.68 -2 5 C-4.64 5.33 -7.28 5.66 -10 6 C-8.9375 4.5 -8.9375 4.5 -7 3 C-3.3125 2.8125 -3.3125 2.8125 0 3 C0 2.01 0 1.02 0 0 Z " fill="#494D63" transform="translate(170,233)"/>
<path d="M0 0 C-0.66 0 -1.32 0 -2 0 C-2.268125 0.639375 -2.53625 1.27875 -2.8125 1.9375 C-4 4 -4 4 -7 5 C-7.33 3.68 -7.66 2.36 -8 1 C-4.93251126 -0.86240388 -3.40254489 -1.2151946 0 0 Z " fill="#E9E3EE" transform="translate(248,162)"/>
<path d="M0 0 C0.5534764 2.07553648 1 3.84365964 1 6 C-2.3 6 -5.6 6 -9 6 C-9 5.67 -9 5.34 -9 5 C-8.071875 4.731875 -7.14375 4.46375 -6.1875 4.1875 C-3.23759634 3.08851629 -1.94384814 2.37581439 0 0 Z " fill="#D2D2DB" transform="translate(239,154)"/>
<path d="M0 0 C0.66 0.33 1.32 0.66 2 1 C2.73075648 3.3140622 3.40138258 5.64828869 4 8 C2.35 8.33 0.7 8.66 -1 9 C-0.67 6.03 -0.34 3.06 0 0 Z " fill="#363951" transform="translate(291,147)"/>
<path d="M0 0 C3.63 0 7.26 0 11 0 C12 3 12 3 11 6 C10.34 6 9.68 6 9 6 C9 5.01 9 4.02 9 3 C6.03 2.67 3.06 2.34 0 2 C0 1.34 0 0.68 0 0 Z " fill="#50546C" transform="translate(173,106)"/>
<path d="M0 0 C1.98 0 3.96 0 6 0 C5.01 0.66 4.02 1.32 3 2 C3 3.32 3 4.64 3 6 C2.01 6.495 2.01 6.495 1 7 C0.67 4.69 0.34 2.38 0 0 Z " fill="#38374D" transform="translate(210,101)"/>
<path d="M0 0 C0.66 0 1.32 0 2 0 C2 0.99 2 1.98 2 3 C2.66 3 3.32 3 4 3 C4 3.66 4 4.32 4 5 C3.34 5 2.68 5 2 5 C1.67 5.66 1.34 6.32 1 7 C0.34 6.67 -0.32 6.34 -1 6 C-1.042721 4.33388095 -1.04063832 2.66617115 -1 1 C-0.67 0.67 -0.34 0.34 0 0 Z " fill="#413E50" transform="translate(296,92)"/>
<path d="M0 0 C1.32 0 2.64 0 4 0 C4 0.66 4 1.32 4 2 C3.34 2 2.68 2 2 2 C2 5.63 2 9.26 2 13 C1.67 13 1.34 13 1 13 C0.67 8.71 0.34 4.42 0 0 Z " fill="#38374C" transform="translate(234,91)"/>
<path d="M0 0 C1.98 0.99 1.98 0.99 4 2 C4.33 1.34 4.66 0.68 5 0 C5.99 0 6.98 0 8 0 C7.34 1.65 6.68 3.3 6 5 C4.68 4.67 3.36 4.34 2 4 C2 3.34 2 2.68 2 2 C1.34 2 0.68 2 0 2 C0 1.34 0 0.68 0 0 Z " fill="#35374B" transform="translate(182,84)"/>
<path d="M0 0 C3.91593446 0.78318689 7.36406635 2.39179858 11 4 C11 4.33 11 4.66 11 5 C8.36 5 5.72 5 3 5 C3 4.01 3 3.02 3 2 C2.01 2 1.02 2 0 2 C0 1.34 0 0.68 0 0 Z " fill="#515566" transform="translate(313,81)"/>
<path d="M0 0 C0.33 0.99 0.66 1.98 1 3 C1.66 3 2.32 3 3 3 C2.67 4.32 2.34 5.64 2 7 C1.67 6.67 1.34 6.34 1 6 C0.34 7.32 -0.32 8.64 -1 10 C-2.46726798 6.18510326 -1.43336419 3.70988378 0 0 Z " fill="#D3D7DD" transform="translate(245,378)"/>
<path d="M0 0 C2.31 0 4.62 0 7 0 C6.67 1.98 6.34 3.96 6 6 C3.97945196 4.35830472 1.97956942 2.69088222 0 1 C0 0.67 0 0.34 0 0 Z " fill="#E8E1EE" transform="translate(184,368)"/>
<path d="M0 0 C0.33 1.32 0.66 2.64 1 4 C0.34 4 -0.32 4 -1 4 C-0.67 5.98 -0.34 7.96 0 10 C-0.66 10 -1.32 10 -2 10 C-3.01136941 7.26930259 -3.04557718 6.13998707 -2.125 3.3125 C-1 1 -1 1 0 0 Z " fill="#39394D" transform="translate(252,342)"/>
<path d="M0 0 C0.93423645 3.01031744 1.04449911 3.86650268 0 7 C-1.65 6.67 -3.3 6.34 -5 6 C-3.35 4.02 -1.7 2.04 0 0 Z " fill="#E0E0E8" transform="translate(271,321)"/>
<path d="M0 0 C0.66 1.32 1.32 2.64 2 4 C-0.3125 5.5625 -0.3125 5.5625 -3 7 C-3.99 6.67 -4.98 6.34 -6 6 C-4 4 -2 2 0 0 Z " fill="#54546C" transform="translate(405,280)"/>
<path d="M0 0 C0.99 0.33 1.98 0.66 3 1 C2.67 2.65 2.34 4.3 2 6 C1.01 6 0.02 6 -1 6 C-1.99 6.495 -1.99 6.495 -3 7 C-2.625 4.0625 -2.625 4.0625 -2 1 C-1.34 0.67 -0.68 0.34 0 0 Z " fill="#E8E4EA" transform="translate(218,239)"/>
<path d="M0 0 C0.66 0.33 1.32 0.66 2 1 C2 1.66 2 2.32 2 3 C3.32 3 4.64 3 6 3 C5.67 4.32 5.34 5.64 5 7 C2.36 5.35 -0.28 3.7 -3 2 C-2.01 1.34 -1.02 0.68 0 0 Z " fill="#5A5E6C" transform="translate(172,209)"/>
<path d="M0 0 C1.32 0.33 2.64 0.66 4 1 C4.625 2.8125 4.625 2.8125 5 5 C4.01 6.485 4.01 6.485 3 8 C2.01 5.36 1.02 2.72 0 0 Z " fill="#484C5F" transform="translate(199,147)"/>
<path d="M0 0 C1.0625 1.875 1.0625 1.875 2 4 C1.67 4.66 1.34 5.32 1 6 C-0.98 6 -2.96 6 -5 6 C-3.35 4.02 -1.7 2.04 0 0 Z " fill="#585F6F" transform="translate(330,101)"/>
<path d="M0 0 C3.71599191 -0.20086443 4.77208445 -0.1519437 8 2 C7.67 2.66 7.34 3.32 7 4 C6.401875 3.814375 5.80375 3.62875 5.1875 3.4375 C2.83591238 2.77906313 2.83591238 2.77906313 0 4 C0 2.68 0 1.36 0 0 Z " fill="#403F4B" transform="translate(268,98)"/>
<path d="M0 0 C4.95 0.99 4.95 0.99 10 2 C10 2.66 10 3.32 10 4 C6.7 3.67 3.4 3.34 0 3 C0 2.01 0 1.02 0 0 Z " fill="#5B5C69" transform="translate(296,83)"/>
<path d="M0 0 C0.99 0.33 1.98 0.66 3 1 C2.43628586 4.26954202 1.50037734 5.82575883 -1 8 C-1.33 6.02 -1.66 4.04 -2 2 C-1.34 1.67 -0.68 1.34 0 1 C0 0.67 0 0.34 0 0 Z " fill="#4E4E66" transform="translate(307,296)"/>
<path d="M0 0 C1.5625 1.0625 1.5625 1.0625 3 3 C2.6875 6.6875 2.6875 6.6875 2 10 C1.67 9.01 1.34 8.02 1 7 C0.34 7 -0.32 7 -1 7 C-0.67 4.69 -0.34 2.38 0 0 Z " fill="#5D5969" transform="translate(181,91)"/>
<path d="M0 0 C0.99 0.33 1.98 0.66 3 1 C1.07423885 3.43929746 -0.80090595 5.80090595 -3 8 C-3.33 6.35 -3.66 4.7 -4 3 C-2.68 2.67 -1.36 2.34 0 2 C0 1.34 0 0.68 0 0 Z " fill="#4D5062" transform="translate(293,85)"/>
<path d="M0 0 C2 4 2 4 1.8125 6.0625 C1 8 1 8 -2 11 C-1.34 7.37 -0.68 3.74 0 0 Z " fill="#D9DAE1" transform="translate(237,408)"/>
<path d="M0 0 C0.66 0 1.32 0 2 0 C2 0.99 2 1.98 2 3 C2.66 3.33 3.32 3.66 4 4 C4 4.66 4 5.32 4 6 C2.02 6.99 2.02 6.99 0 8 C-0.79953138 4.71303767 -1.09658936 3.28976808 0 0 Z " fill="#343B53" transform="translate(316,368)"/>
<path d="M0 0 C0.66 0.33 1.32 0.66 2 1 C2.625 3.5625 2.625 3.5625 3 6 C2.01 5.67 1.02 5.34 0 5 C0 5.66 0 6.32 0 7 C-0.66 7 -1.32 7 -2 7 C-1.34 4.69 -0.68 2.38 0 0 Z " fill="#313A52" transform="translate(204,345)"/>
<path d="M0 0 C0 1.65 0 3.3 0 5 C-2.31 4.67 -4.62 4.34 -7 4 C-2.25 0 -2.25 0 0 0 Z " fill="#D1D2D7" transform="translate(336,331)"/>
<path d="M0 0 C0.33 0.66 0.66 1.32 1 2 C1.66 2 2.32 2 3 2 C3 3.98 3 5.96 3 8 C2.34 8 1.68 8 1 8 C1 6.68 1 5.36 1 4 C0.01 4.99 -0.98 5.98 -2 7 C-1.34 4.69 -0.68 2.38 0 0 Z " fill="#4D4C61" transform="translate(210,323)"/>
<path d="M0 0 C0.66 0.33 1.32 0.66 2 1 C0.52307692 5.67692308 0.52307692 5.67692308 -2.125 7.3125 C-3.053125 7.6528125 -3.053125 7.6528125 -4 8 C-3.40072174 4.64404172 -2.15377564 2.62198774 0 0 Z " fill="#49495B" transform="translate(360,324)"/>
<path d="M0 0 C0.33 0 0.66 0 1 0 C1 3.96 1 7.92 1 12 C0.01 12.33 -0.98 12.66 -2 13 C-1.34 8.71 -0.68 4.42 0 0 Z " fill="#CFD2D9" transform="translate(343,310)"/>
<path d="M0 0 C1.98 1.65 3.96 3.3 6 5 C3 7 3 7 1 7 C0.67 4.69 0.34 2.38 0 0 Z " fill="#515169" transform="translate(126,312)"/>
<path d="M0 0 C0.66 1.32 1.32 2.64 2 4 C1.360625 4.268125 0.72125 4.53625 0.0625 4.8125 C-2.33131686 5.88667752 -2.33131686 5.88667752 -3 9 C-3.66 9 -4.32 9 -5 9 C-3.7508258 5.54074837 -2.32472205 2.85306797 0 0 Z " fill="#D3D0DA" transform="translate(309,300)"/>
<path d="M0 0 C2.4375 1.1875 2.4375 1.1875 3.4375 3.1875 C0.4375 4.1875 0.4375 4.1875 -2.5625 3.1875 C-2.5625 2.5275 -2.5625 1.8675 -2.5625 1.1875 C-3.2225 0.8575 -3.8825 0.5275 -4.5625 0.1875 C-2.5625 -0.8125 -2.5625 -0.8125 0 0 Z " fill="#E5EAE6" transform="translate(157.5625,246.8125)"/>
<path d="M0 0 C3.25543229 0.34879632 4.01873107 1.02133261 6.25 3.5625 C6.8275 4.366875 7.405 5.17125 8 6 C6.02 5.34 4.04 4.68 2 4 C2 3.34 2 2.68 2 2 C1.34 2 0.68 2 0 2 C0 1.34 0 0.68 0 0 Z " fill="#545665" transform="translate(251,239)"/>
<path d="M0 0 C2.97 1.65 5.94 3.3 9 5 C6.53721199 6.231394 4.7204945 6.07159196 2 6 C2 4.68 2 3.36 2 2 C1.34 2 0.68 2 0 2 C0 1.34 0 0.68 0 0 Z " fill="#515564" transform="translate(205,234)"/>
<path d="M0 0 C0.66 0.99 1.32 1.98 2 3 C1.34 4.32 0.68 5.64 0 7 C0 6.34 0 5.68 0 5 C-1.98 5.99 -1.98 5.99 -4 7 C-2.79618552 4.50638429 -1.54571278 2.31856917 0 0 Z " fill="#C6CFD2" transform="translate(134,209)"/>
<path d="M0 0 C0.33 0 0.66 0 1 0 C1 3.63 1 7.26 1 11 C-0.32 11 -1.64 11 -3 11 C-2.67 10.01 -2.34 9.02 -2 8 C-1.34 8 -0.68 8 0 8 C0 5.36 0 2.72 0 0 Z " fill="#EFF0F7" transform="translate(194,96)"/>
<path d="M0 0 C4.455 0.99 4.455 0.99 9 2 C8.67 2.66 8.34 3.32 8 4 C2.25 3.125 2.25 3.125 0 2 C0 1.34 0 0.68 0 0 Z " fill="#676270" transform="translate(316,99)"/>
<path d="M0 0 C1.32 0 2.64 0 4 0 C4 1.32 4 2.64 4 4 C1.69 4 -0.62 4 -3 4 C-2.01 3.67 -1.02 3.34 0 3 C0 2.01 0 1.02 0 0 Z " fill="#E7E7F5" transform="translate(271,94)"/>
<path d="M0 0 C1.32 0.33 2.64 0.66 4 1 C4 1.66 4 2.32 4 3 C4.66 3 5.32 3 6 3 C5.67 4.32 5.34 5.64 5 7 C0 1.125 0 1.125 0 0 Z " fill="#525768" transform="translate(298,325)"/>
<path d="M0 0 C0.66 0 1.32 0 2 0 C2.33 0.99 2.66 1.98 3 3 C2.34 3.66 1.68 4.32 1 5 C-0.32 5 -1.64 5 -3 5 C-2.67 4.01 -2.34 3.02 -2 2 C-1.34 2 -0.68 2 0 2 C0 1.34 0 0.68 0 0 Z " fill="#606072" transform="translate(374,310)"/>
<path d="M0 0 C2.475 0.495 2.475 0.495 5 1 C4.67 2.65 4.34 4.3 4 6 C2.62437146 4.71034824 1.29233607 3.37310707 0 2 C0 1.34 0 0.68 0 0 Z " fill="#474A5A" transform="translate(208,298)"/>
<path d="M0 0 C0.66 0 1.32 0 2 0 C2.66 0.99 3.32 1.98 4 3 C3.67 3.99 3.34 4.98 3 6 C2.01 6 1.02 6 0 6 C0 4.02 0 2.04 0 0 Z " fill="#DBE1E6" transform="translate(376,226)"/>
<path d="M0 0 C0.33 0 0.66 0 1 0 C1.33 3.3 1.66 6.6 2 10 C0.68 10.33 -0.64 10.66 -2 11 C-1.34 7.37 -0.68 3.74 0 0 Z " fill="#D6D6E2" transform="translate(330,142)"/>
<path d="M0 0 C3.31562557 0.55260426 6.15062207 1.16825705 9 3 C9.33 3.99 9.66 4.98 10 6 C9.34 6 8.68 6 8 6 C7.67 5.34 7.34 4.68 7 4 C4.47266765 3.34444881 4.47266765 3.34444881 2 3 C2 2.34 2 1.68 2 1 C1.34 0.67 0.68 0.34 0 0 Z " fill="#535464" transform="translate(318,131)"/>
<path d="M0 0 C0.66 0 1.32 0 2 0 C1.67 1.32 1.34 2.64 1 4 C-0.65 4.33 -2.3 4.66 -4 5 C-2.71937515 3.2925002 -1.38232443 1.62626404 0 0 Z " fill="#575969" transform="translate(255,427)"/>
<path d="M0 0 C0.66 0.33 1.32 0.66 2 1 C1.34 2.65 0.68 4.3 0 6 C-2.475 5.01 -2.475 5.01 -5 4 C-3 1 -3 1 0 0 Z " fill="#44435D" transform="translate(327,359)"/>
<path d="M0 0 C2.79872437 2.52788007 4.45773019 4.20411134 5 8 C3.0625 7.375 3.0625 7.375 1 6 C0.25 2.875 0.25 2.875 0 0 Z " fill="#4B505E" transform="translate(305,320)"/>
<path d="M0 0 C1.2077558 3.62326739 0.54311128 4.64146369 -1 8 C-1.99 8 -2.98 8 -4 8 C-2.66666667 5.33333333 -1.33333333 2.66666667 0 0 Z " fill="#E1E3EC" transform="translate(277,312)"/>
<path d="M0 0 C0.33 1.32 0.66 2.64 1 4 C1.99 3.67 2.98 3.34 4 3 C4 3.66 4 4.32 4 5 C1.5 6.625 1.5 6.625 -1 8 C-0.67 5.36 -0.34 2.72 0 0 Z " fill="#4D5566" transform="translate(289,288)"/>
<path d="M0 0 C2.91517292 1.07401108 4.77810176 1.77810176 7 4 C4.36 4 1.72 4 -1 4 C-0.67 2.68 -0.34 1.36 0 0 Z " fill="#DBD9E0" transform="translate(201,256)"/>
<path d="M0 0 C0.99 0 1.98 0 3 0 C3.33 2.31 3.66 4.62 4 7 C1 5 1 5 0.3125 2.375 C0.209375 1.59125 0.10625 0.8075 0 0 Z " fill="#403E53" transform="translate(195,136)"/>
<path d="M0 0 C0 3 0 3 -1.5 4.6875 C-1.995 5.120625 -2.49 5.55375 -3 6 C-3 5.34 -3 4.68 -3 4 C-4.98 4 -6.96 4 -9 4 C-9 3.67 -9 3.34 -9 3 C-8.43410156 2.86722656 -7.86820312 2.73445313 -7.28515625 2.59765625 C-6.18494141 2.33275391 -6.18494141 2.33275391 -5.0625 2.0625 C-4.33160156 1.88847656 -3.60070312 1.71445313 -2.84765625 1.53515625 C-1.00030102 1.16112431 -1.00030102 1.16112431 0 0 Z " fill="#5B5C6C" transform="translate(307,104)"/>
</svg>
