<?xml version="1.0" encoding="UTF-8"?>
<svg version="1.1" xmlns="http://www.w3.org/2000/svg" width="500" height="500">
<path d="M0 0 C165 0 330 0 500 0 C500 165 500 330 500 500 C335 500 170 500 0 500 C0 335 0 170 0 0 Z M229 106 C228.40929986 107.94603274 228.40929986 107.94603274 228 110 C228.33 110.33 228.66 110.66 229 111 C229.23481693 113.18292774 229.41363323 115.37203174 229.5625 117.5625 C229.64628906 118.76003906 229.73007813 119.95757812 229.81640625 121.19140625 C229.87699219 122.11824219 229.93757812 123.04507813 230 124 C229.34 124 228.68 124 228 124 C228 125.32 228 126.64 228 128 C230.64 128 233.28 128 236 128 C236 120.74 236 113.48 236 106 C233.69 106 231.38 106 229 106 Z M239 106 C239 113.26 239 120.52 239 128 C243.29 128 247.58 128 252 128 C252 126.68 252 125.36 252 124 C249.36 124 246.72 124 244 124 C244 122.35 244 120.7 244 119 C246.31 119 248.62 119 251 119 C251 117.35 251 115.7 251 114 C249.02 114 247.04 114 245 114 C244.67 113.01 244.34 112.02 244 111 C246.97 111 249.94 111 253 111 C252.34 109.35 251.68 107.7 251 106 C247.04 106 243.08 106 239 106 Z M273.25 110.25 C271.21735531 113.09570256 271.116949 115.55000441 271 119 C272.49137862 123.08166781 274.02520444 126.06631567 278 128 C282.57060969 128.50784552 284.84148193 128.62962938 288.875 126.4375 C291.58223128 123.33214647 292.36935443 121.06416036 293 117 C292.17812583 113.11477667 291.17838522 110.44491171 288 108 C282.10919651 104.38950754 278.38792668 106.58005237 273.25 110.25 Z M179 108 C176.84497469 111.23253796 176.53143865 112.25150923 177 116 C179.27728108 119.61685818 183.05150081 120.0315002 187 121 C187 121.66 187 122.32 187 123 C184.03 122.67 181.06 122.34 178 122 C178 123.32 178 124.64 178 126 C180.39286884 128.39286884 181.09447094 128.32050616 184.375 128.375 C187.60153081 128.29173469 188.81440051 128.11489492 191.625 126.375 C193.24645806 124.01547019 193.24645806 124.01547019 193.0625 120.9375 C192.24319831 117.86066727 192.24319831 117.86066727 189.6875 116.1875 C187.43031636 115.19013979 185.41837139 114.44784655 183 114 C183 113.34 183 112.68 183 112 C185.64 112 188.28 112 191 112 C191 110.68 191 109.36 191 108 C186.43847695 105.48329763 183.67256412 105.72362261 179 108 Z M195 106 C193.6505291 108.69894181 194.33125429 109.72118731 195.21484375 112.5703125 C195.48876953 113.46621094 195.76269531 114.36210938 196.04492188 115.28515625 C196.33947266 116.22230469 196.63402344 117.15945312 196.9375 118.125 C197.22818359 119.06988281 197.51886719 120.01476562 197.81835938 120.98828125 C198.53906479 123.32762013 199.26652606 125.66463921 200 128 C201.98 128 203.96 128 206 128 C207.32 124.7 208.64 121.4 210 118 C212.18975773 121.28463659 212.99806563 124.20696275 214 128 C216.31 128 218.62 128 221 128 C221.84179395 125.27318889 222.67363069 122.54398557 223.5 119.8125 C223.85771484 118.65911133 223.85771484 118.65911133 224.22265625 117.48242188 C225.40213617 113.55643872 226.3326262 110.14951179 226 106 C224.35 106.33 222.7 106.66 221 107 C219.68 111.29 218.36 115.58 217 120 C216.0234375 116.64713542 215.046875 113.29427083 214.0703125 109.94140625 C213.3391709 106.88308969 213.3391709 106.88308969 211 106 C207.75608861 106.69139735 207.75608861 106.69139735 206.61328125 109.72265625 C206.18402344 110.82480469 205.75476563 111.92695312 205.3125 113.0625 C204.87550781 114.16722656 204.43851563 115.27195312 203.98828125 116.41015625 C203.66214844 117.26480469 203.33601562 118.11945313 203 119 C202.01 115.04 201.02 111.08 200 107 C198.35 106.67 196.7 106.34 195 106 Z M259.75 106.4375 C258.13351562 106.59025391 258.13351562 106.59025391 256.484375 106.74609375 C255.66453125 106.82988281 254.8446875 106.91367188 254 107 C254.33 108.32 254.66 109.64 255 111 C256.65 111 258.3 111 260 111 C260 116.61 260 122.22 260 128 C261.65 128 263.3 128 265 128 C265 122.39 265 116.78 265 111 C266.65 111 268.3 111 270 111 C270 109.68 270 108.36 270 107 C266.45049966 105.83693557 263.44176052 106.07634951 259.75 106.4375 Z M297 106 C296.01 106.495 296.01 106.495 295 107 C295 113.93 295 120.86 295 128 C296.65 128 298.3 128 300 128 C300 124.37 300 120.74 300 117 C300.556875 117.70125 301.11375 118.4025 301.6875 119.125 C302.8321875 120.548125 302.8321875 120.548125 304 122 C304.59554688 122.82564453 304.59554688 122.82564453 305.203125 123.66796875 C306.57252977 125.559443 306.57252977 125.559443 309 128 C310.65 128 312.3 128 314 128 C314 120.74 314 113.48 314 106 C312.35 106.33 310.7 106.66 309 107 C308.67 110.63 308.34 114.26 308 118 C307.18595703 116.82630859 307.18595703 116.82630859 306.35546875 115.62890625 C305.28232422 114.11103516 305.28232422 114.11103516 304.1875 112.5625 C303.47980469 111.55316406 302.77210938 110.54382813 302.04296875 109.50390625 C300.1777713 106.76195543 300.1777713 106.76195543 297 106 Z M216 148 C216 148.66 216 149.32 216 150 C215.0409375 150.433125 215.0409375 150.433125 214.0625 150.875 C211.84793921 151.82823451 211.84793921 151.82823451 211 154 C210.64967644 159.34243433 210.5438931 162.64786539 214 167 C218.00254616 169.66836411 221.29313299 169.8340238 226 169 C228.75569447 166.81840855 230.43588747 165.12822506 232 162 C232.40710593 157.76609838 232.25575965 155.48411648 230.25 151.6875 C228.13166598 149.1572677 227.10404376 147.94061932 224 147 C220.87273585 146.77117579 219.0037515 146.9987495 216 148 Z M235 147 C233.77215191 148.00559794 233.77215191 148.00559794 233.88647461 150.04125977 C233.89171143 150.91580811 233.89694824 151.79035645 233.90234375 152.69140625 C233.90556641 153.63564453 233.90878906 154.57988281 233.91210938 155.55273438 C233.92048828 156.54595703 233.92886719 157.53917969 233.9375 158.5625 C233.94201172 159.55958984 233.94652344 160.55667969 233.95117188 161.58398438 C233.96299993 164.05604849 233.97948151 166.52799518 234 169 C235.65 169 237.3 169 239 169 C239.33 165.37 239.66 161.74 240 158 C240.99 159.32 241.98 160.64 243 162 C245.5 162.58333333 245.5 162.58333333 248 162 C249.85602615 160.72840348 249.85602615 160.72840348 251 159 C251 158.34 251 157.68 251 157 C251.66 157 252.32 157 253 157 C253 160.96 253 164.92 253 169 C254.65 168.67 256.3 168.34 258 168 C258.02895976 164.87501937 258.04678483 161.7500731 258.0625 158.625 C258.07087891 157.73554688 258.07925781 156.84609375 258.08789062 155.9296875 C258.09111328 155.07890625 258.09433594 154.228125 258.09765625 153.3515625 C258.10289307 152.56604004 258.10812988 151.78051758 258.11352539 150.97119141 C258.12573953 148.92227332 258.12573953 148.92227332 257 147 C254.66461093 146.96127313 254.66461093 146.96127313 252 148 C249.61372642 150.56685645 247 153.38918448 247 157 C246.34 157 245.68 157 245 157 C244.731875 156.2575 244.46375 155.515 244.1875 154.75 C243.01882907 152.04360415 242.04406831 150.11977455 240 148 C237.45224694 147.10613836 237.45224694 147.10613836 235 147 Z M262 151 C259.52907509 154.70638736 259.44592163 157.70169504 260 162 C261.63687185 165.58552881 262.68972583 166.79315055 266 169 C269.11638877 169.67076558 271.88520054 169.68864614 275 169 C277.77345963 167.09465578 279.4581266 164.97901577 281 162 C281.76989144 157.61161882 281.33172421 155.65116234 279.3125 151.6875 C276.88492576 148.86626507 275.56671151 147.89167788 272 147 C267.23048505 147 265.72799996 148.16347829 262 151 Z M283 147 C282.67 148.65 282.34 150.3 282 152 C283.65 152 285.3 152 287 152 C286.98839844 152.97582031 286.97679687 153.95164063 286.96484375 154.95703125 C286.95582031 156.22933594 286.94679688 157.50164062 286.9375 158.8125 C286.92589844 160.07707031 286.91429687 161.34164062 286.90234375 162.64453125 C286.83840884 165.99605237 286.83840884 165.99605237 288 169 C289.32 169 290.64 169 292 169 C292 163.39 292 157.78 292 152 C293.98 152 295.96 152 298 152 C297.67 150.35 297.34 148.7 297 147 C292.38 147 287.76 147 283 147 Z M300 147 C300 154.26 300 161.52 300 169 C302.64 169 305.28 169 308 169 C308 167.68 308 166.36 308 165 C307.34 165 306.68 165 306 165 C306.14151828 162.9163691 306.28837936 160.83310062 306.4375 158.75 C306.51871094 157.58984375 306.59992188 156.4296875 306.68359375 155.234375 C306.93247787 152.69022624 307.28114942 150.44046752 308 148 C305.36 147.67 302.72 147.34 300 147 Z M310 148 C311.966369 155.36988707 314.69582578 162.13045202 318 169 C319.98 169 321.96 169 324 169 C325.67566829 165.33737326 327.34038335 161.66992611 329 158 C329.33 157.27941406 329.66 156.55882812 330 155.81640625 C331.25489625 153.01098915 332 151.11424534 332 148 C330.68 147.67 329.36 147.34 328 147 C327.17988688 148.55851755 326.36923787 150.12201716 325.5625 151.6875 C325.11003906 152.55761719 324.65757812 153.42773438 324.19140625 154.32421875 C323.04008072 156.90998264 322.43679247 159.21356528 322 162 C321.34 162 320.68 162 320 162 C319.81824219 161.33613281 319.63648438 160.67226562 319.44921875 159.98828125 C317.55800677 153.11687967 317.55800677 153.11687967 314 147 C311.9254644 146.8509288 311.9254644 146.8509288 310 148 Z M334 148 C333.91314397 149.56172745 333.89297781 151.12729344 333.90234375 152.69140625 C333.90556641 153.63564453 333.90878906 154.57988281 333.91210938 155.55273438 C333.92048828 156.54595703 333.92886719 157.53917969 333.9375 158.5625 C333.94201172 159.55958984 333.94652344 160.55667969 333.95117188 161.58398438 C333.96299977 164.05601487 333.98093585 166.52801472 334 169 C338.62 169 343.24 169 348 169 C348 167.68 348 166.36 348 165 C345.03 165 342.06 165 339 165 C339 163.35 339 161.7 339 160 C341.64 160 344.28 160 347 160 C346.67 158.35 346.34 156.7 346 155 C344.02 155 342.04 155 340 155 C339.67 154.01 339.34 153.02 339 152 C341.97 152 344.94 152 348 152 C347.67 150.35 347.34 148.7 347 147 C345.02090602 146.97313447 343.04171029 146.95366625 341.0625 146.9375 C339.40927734 146.92009766 339.40927734 146.92009766 337.72265625 146.90234375 C335.08552366 146.68737429 335.08552366 146.68737429 334 148 Z M160.99291992 147.22363281 C158.565279 147.9242398 158.565279 147.9242398 157.11328125 151.421875 C156.49758232 152.85806257 155.89788913 154.30119378 155.3125 155.75 C155.00505859 156.46671875 154.69761719 157.1834375 154.38085938 157.921875 C152.84232925 161.58472134 151.58397693 165.04452961 151 169 C152.65 169 154.3 169 156 169 C156.33 167.68 156.66 166.36 157 165 C160.3 165 163.6 165 167 165 C167.33 166.32 167.66 167.64 168 169 C169.65 169 171.3 169 173 169 C172.31412247 164.22704402 170.49368075 160.12367209 168.5625 155.75 C168.24990234 155.0178125 167.93730469 154.285625 167.61523438 153.53125 C165.75989481 148.30261756 165.75989481 148.30261756 160.99291992 147.22363281 Z M178 147 C177.01 147.33 176.02 147.66 175 148 C174.91860858 150.39652528 174.85932991 152.79025436 174.8125 155.1875 C174.78736328 155.86103516 174.76222656 156.53457031 174.73632812 157.22851562 C174.67092818 161.69751197 175.24369935 164.45618488 178 168 C181.13871188 169.56935594 183.53855822 169.35201103 187 169 C189.68101732 167.01821054 191.69337625 165.4716436 192.39819336 162.08886719 C192.49165033 159.93403808 192.43756187 157.84048811 192.3125 155.6875 C192.28994141 154.94693359 192.26738281 154.20636719 192.24414062 153.44335938 C192.1855815 151.62802643 192.09590886 149.81374319 192 148 C190.05396726 147.40929986 190.05396726 147.40929986 188 147 C186.00383446 148.99616554 186.59016573 152.81701963 186.4375 155.5625 C186.39431641 156.27341797 186.35113281 156.98433594 186.30664062 157.71679688 C186.20028223 159.47761912 186.09961154 161.2387832 186 163 C184.35 163.33 182.7 163.66 181 164 C180.95101562 162.85660156 180.90203125 161.71320313 180.8515625 160.53515625 C180.77654811 159.04424527 180.70099972 157.55336108 180.625 156.0625 C180.5940625 155.30775391 180.563125 154.55300781 180.53125 153.77539062 C180.4273685 151.84492605 180.22104386 149.92057919 180 148 C179.34 147.67 178.68 147.34 178 147 Z M194 148 C194 149.32 194 150.64 194 152 C195.65 152 197.3 152 199 152 C199 157.28 199 162.56 199 168 C200.65 168.33 202.3 168.66 204 169 C204 163.39 204 157.78 204 152 C205.98 152 207.96 152 210 152 C209.67 150.35 209.34 148.7 209 147 C206.87506859 146.97306425 204.75004088 146.95363372 202.625 146.9375 C200.84996094 146.92009766 200.84996094 146.92009766 199.0390625 146.90234375 C196.08078479 146.78533407 196.08078479 146.78533407 194 148 Z M140.01830983 200.16005278 C138.31504018 203.23762913 136.21427903 205.98603776 134.125 208.8125 C130.39626798 214.02733991 126.6937478 219.26033292 123 224.5 C118.1021934 231.44765245 113.17490786 238.37343516 108.2265625 245.28515625 C106.96177918 247.05343612 105.69933125 248.82336252 104.4375 250.59375 C104.01275391 251.18921631 103.58800781 251.78468262 103.15039062 252.39819336 C102.30948579 253.57793906 101.46961746 254.75842434 100.63085938 255.93969727 C98.65351441 258.71767773 96.65023676 261.46275493 94.59375 264.18359375 C93.8615625 265.15425781 93.129375 266.12492187 92.375 267.125 C91.39660156 268.39730469 91.39660156 268.39730469 90.3984375 269.6953125 C88.65416584 272.12065404 88.65416584 272.12065404 89 276 C90.0660539 277.65520951 90.0660539 277.65520951 91.63037109 279.11621094 C92.20451752 279.69651062 92.77866394 280.2768103 93.37020874 280.87469482 C94.31230698 281.79523651 94.31230698 281.79523651 95.2734375 282.734375 C95.91237946 283.37240051 96.55132141 284.01042603 97.20962524 284.66778564 C98.56179101 286.01391007 99.91881351 287.35517089 101.28027344 288.69189453 C103.37036419 290.74544523 105.44397801 292.81457992 107.515625 294.88671875 C108.8297884 296.1910527 110.14486216 297.49447022 111.4609375 298.796875 C112.08495453 299.41866638 112.70897156 300.04045776 113.35189819 300.68109131 C116.16537409 303.8907685 116.16537409 303.8907685 120 305 C120.3403125 305.86625 120.3403125 305.86625 120.6875 306.75 C122.32916107 309.56427613 124.43559053 311.02737733 127 313 C127.33 313.66 127.66 314.32 128 315 C128.66 315 129.32 315 130 315 C130.33 315.99 130.66 316.98 131 318 C132.39349934 319.41011972 132.39349934 319.41011972 134.1953125 320.81640625 C138.20965295 324.22080341 141.92115733 327.84896227 145.6171875 331.58984375 C146.20453674 332.18286285 146.79188599 332.77588196 147.39703369 333.38687134 C149.85317445 335.87011257 152.30509651 338.35744612 154.75292969 340.84887695 C156.557546 342.68350719 158.36818085 344.5120205 160.1796875 346.33984375 C160.73486053 346.90847641 161.29003357 347.47710907 161.86203003 348.06297302 C163.20386707 349.41362049 164.59754741 350.71240459 166 352 C166.66 352 167.32 352 168 352 C168.33 352.99 168.66 353.98 169 355 C169.66 355 170.32 355 171 355 C171 355.66 171 356.32 171 357 C171.66 357 172.32 357 173 357 C173.33 357.99 173.66 358.98 174 360 C175.52344853 361.54436126 175.52344853 361.54436126 177.4375 363.0625 C182.58636904 367.41707889 187.27849064 372.19141362 192 377 C194.43894998 376.06522019 194.43894998 376.06522019 195.32519531 372.42431641 C195.83403167 370.81920226 196.33435386 369.21137489 196.828125 367.6015625 C197.09961365 366.7380014 197.37110229 365.87444031 197.65081787 364.98471069 C198.52439242 362.20032853 199.38736534 359.41278861 200.25 356.625 C200.81570177 354.81488385 201.38210064 353.0049854 201.94921875 351.1953125 C202.79701818 348.48947735 203.64248652 345.783042 204.48010254 343.07403564 C205.86477035 338.59791093 207.27740349 334.13525075 208.75976562 329.69042969 C209.03931091 328.84120941 209.3188562 327.99198914 209.60687256 327.11703491 C210.13157916 325.52772757 210.66527245 323.94134463 211.21002197 322.35879517 C213.38610821 315.71728186 214.27586509 309.34140378 211.10546875 302.77734375 C208.84936 299.15003109 205.90445626 296.11234167 203 293 C194.67524251 283.95499187 194.67524251 283.95499187 194 280 C194.2806989 276.85176925 194.69389396 273.89046946 196 271 C197.80078125 269.61328125 197.80078125 269.61328125 200 269 C202.25390625 269.6796875 202.25390625 269.6796875 204.5625 270.875 C208.07786657 272.66747535 208.07786657 272.66747535 212 273 C212.76265638 270.6120367 213.52468879 268.2238773 214.28588867 265.83544922 C214.930438 263.81447942 215.57644252 261.79397316 216.22387695 259.77392578 C217.60318924 255.45744053 218.98060988 251.14568173 220.21484375 246.78515625 C220.53582031 245.65980469 220.85679687 244.53445312 221.1875 243.375 C221.44917969 242.41335937 221.71085938 241.45171875 221.98046875 240.4609375 C223.20536864 237.50428259 224.46543004 235.95002049 227 234 C230.15550823 233.50556297 232.97086855 234.02376058 236 235 C238.4375 237.375 238.4375 237.375 240 240 C240.66 240.99 241.32 241.98 242 243 C242.515625 242.505 243.03125 242.01 243.5625 241.5 C246.96381375 239.40688385 249.07072743 239.44852315 253 240 C256.16384761 242.40727535 257.70458888 243.97742304 258.8125 247.8125 C258.874375 248.534375 258.93625 249.25625 259 250 C260.216875 249.814375 261.43375 249.62875 262.6875 249.4375 C268.85713585 248.70587947 268.85713585 248.70587947 272 250 C273.97197576 253.45095757 274.4550612 257.09460525 275 261 C275.60328125 260.90460938 276.2065625 260.80921875 276.828125 260.7109375 C277.62734375 260.60007812 278.4265625 260.48921875 279.25 260.375 C280.03890625 260.25898438 280.8278125 260.14296875 281.640625 260.0234375 C284.3606779 259.99641711 285.73485839 260.52665568 288 262 C291.56700877 269.13401754 287.4347977 278.20312011 285.25 285.1875 C284.72792969 286.90163086 284.72792969 286.90163086 284.1953125 288.65039062 C283.49296108 290.95124186 282.78349723 293.24993413 282.06689453 295.54638672 C281.34575299 297.88077305 280.64407455 300.22124727 279.96044922 302.56689453 C279.45795654 304.27594971 279.45795654 304.27594971 278.9453125 306.01953125 C278.65156738 307.03764893 278.35782227 308.0557666 278.05517578 309.10473633 C275.36679596 316.48129726 270.37691941 322.5225885 264 327 C263.00178223 327.38462402 262.00356445 327.76924805 260.97509766 328.16552734 C257.66530454 330.20637631 256.97941133 331.57830567 255.96841431 335.27084351 C255.80094696 335.97810577 255.63347961 336.68536804 255.4609375 337.4140625 C255.26293549 338.16217194 255.06493347 338.91028137 254.8609314 339.68106079 C254.43822162 341.2879785 254.02619815 342.8977384 253.62390137 344.5098877 C253.00537595 346.97854355 252.35453805 349.43627201 251.69238281 351.89355469 C250.30779547 357.04665675 248.96378106 362.20983634 247.625 367.375 C246.90399145 370.15045893 246.18265345 372.92583212 245.46130371 375.70120239 C244.98443538 377.53644932 244.50795009 379.37179582 244.03186035 381.20724487 C242.61147699 386.6763677 241.16493093 392.1376741 239.6953125 397.59375 C239.36192871 398.84236816 239.02854492 400.09098633 238.68505859 401.37744141 C238.07821037 403.64733895 237.46436017 405.91538045 236.84228516 408.18115234 C236.5797998 409.17066895 236.31731445 410.16018555 236.046875 411.1796875 C235.81838867 412.02257324 235.58990234 412.86545898 235.35449219 413.73388672 C234.96138297 416.24686175 235.06984308 417.64020795 236 420 C237.29139274 421.70078688 237.29139274 421.70078688 238.94140625 423.234375 C239.52470703 423.80800781 240.10800781 424.38164062 240.70898438 424.97265625 C241.62647461 425.85244141 241.62647461 425.85244141 242.5625 426.75 C243.17802734 427.35199219 243.79355469 427.95398438 244.42773438 428.57421875 C245.94514813 430.05634381 247.47170596 431.5290967 249 433 C253.68740741 430.53933076 256.99785213 427.24536196 260.65625 423.50390625 C261.2810022 422.87395248 261.90575439 422.24399872 262.54943848 421.59495544 C264.53779651 419.5888542 266.51932162 417.57618165 268.5 415.5625 C270.48152433 413.55326036 272.46452621 411.54553738 274.45056152 409.54075623 C275.68328768 408.29587886 276.91333169 407.04833794 278.14025879 405.79774475 C281.2775733 402.6241068 284.46455901 399.73752221 288 397 C290.77152212 394.47943955 290.77152212 394.47943955 293 392 C293 391.34 293 390.68 293 390 C293.99 389.67 294.98 389.34 296 389 C296 388.34 296 387.68 296 387 C296.99 386.67 297.98 386.34 299 386 C299 385.34 299 384.68 299 384 C299.58880951 383.73683487 300.17761902 383.47366974 300.78427124 383.20252991 C303.10166588 381.94482345 304.60436334 380.63093075 306.45166016 378.75952148 C307.10558746 378.10221542 307.75951477 377.44490936 308.43325806 376.76768494 C309.47563126 375.7051223 309.47563126 375.7051223 310.5390625 374.62109375 C311.26112885 373.89382584 311.98319519 373.16655792 312.72714233 372.41725159 C315.03122694 370.09536418 317.32851132 367.76689861 319.625 365.4375 C321.92949133 363.10541428 324.23541392 360.77479055 326.54428101 358.44703674 C327.98049156 356.99854462 329.41402086 355.54738824 330.84463501 354.09336853 C331.492258 353.43921463 332.13988098 352.78506073 332.80712891 352.11108398 C333.37686432 351.53309555 333.94659973 350.95510712 334.53359985 350.35960388 C336 349 336 349 338 348 C338 347.34 338 346.68 338 346 C338.66 346 339.32 346 340 346 C340 345.34 340 344.68 340 344 C340.9590625 343.5978125 340.9590625 343.5978125 341.9375 343.1875 C344.33131686 342.11332248 344.33131686 342.11332248 345 339 C346.31440079 338.29674131 347.65073628 337.63380568 349 337 C350.71699865 335.5621535 350.71699865 335.5621535 352.34399414 333.8671875 C352.974673 333.23312988 353.60535187 332.59907227 354.25514221 331.94580078 C354.92504684 331.26243652 355.59495148 330.57907227 356.28515625 329.875 C356.98265488 329.1722998 357.6801535 328.46959961 358.39878845 327.74560547 C360.6248283 325.50176702 362.84406697 323.25135745 365.0625 321 C367.28535599 318.74951746 369.50965376 316.50050943 371.73692322 314.25439453 C373.12199465 312.85707735 374.50438407 311.45709549 375.88380432 310.05419922 C376.51133102 309.4201416 377.13885773 308.78608398 377.78540039 308.1328125 C378.3351503 307.57480957 378.88490021 307.01680664 379.4513092 306.44189453 C381 305 381 305 384 303 C384 302.34 384 301.68 384 301 C384.66 301 385.32 301 386 301 C386 300.34 386 299.68 386 299 C387.485 298.505 387.485 298.505 389 298 C389 297.34 389 296.68 389 296 C389.5662207 295.75975098 390.13244141 295.51950195 390.71582031 295.27197266 C393.47040587 293.73804889 395.33249671 291.89273982 397.546875 289.6484375 C398.39121094 288.79765625 399.23554688 287.946875 400.10546875 287.0703125 C401.41451172 285.73613281 401.41451172 285.73613281 402.75 284.375 C403.63816406 283.4778125 404.52632813 282.580625 405.44140625 281.65625 C407.63216969 279.44192996 409.81812763 277.22307565 412 275 C407.68243842 268.04872585 403.17222737 261.34770018 398.25 254.8125 C393.86445421 248.92766211 389.56187928 243.00846421 385.4375 236.9375 C381.56867543 231.24507585 377.60534689 225.63276407 373.5625 220.0625 C369.1507477 213.98383712 364.76944488 207.88585935 360.4375 201.75 C359.94902588 201.05914307 359.46055176 200.36828613 358.95727539 199.65649414 C356.93431489 196.78607244 355.03141293 194.06109333 353.42081642 190.92873001 C351.2261181 187.65749468 351.2261181 187.65749468 347.38103294 187.22260666 C345.89379049 187.17921895 344.40536786 187.16889794 342.91757202 187.18426514 C341.68571259 187.16175843 341.68571259 187.16175843 340.42896712 187.13879704 C337.67272 187.09607831 334.91817488 187.09636419 332.16162109 187.09667969 C330.18710682 187.07545511 328.21261744 187.05179531 326.23815918 187.02587891 C320.87005533 186.96425242 315.50248462 186.94202803 310.13406324 186.93059444 C306.77901739 186.92188948 303.42410998 186.90514239 300.06911087 186.88559723 C288.36061781 186.81807187 276.65252836 186.78383168 264.94384766 186.77832031 C254.03667155 186.77225529 243.13176651 186.69143616 232.22524965 186.57602382 C222.85769882 186.48039522 213.49089641 186.43885611 204.12286055 186.43873906 C198.52920508 186.4376636 192.93777096 186.41456741 187.34461594 186.33638763 C182.07877925 186.26453139 176.81707421 186.26015514 171.55099487 186.30673218 C169.62326515 186.31244234 167.69528994 186.29441722 165.76805496 186.25037384 C152.39669739 185.9638584 146.3415096 188.06118905 140.01830983 200.16005278 Z " fill="#000000" transform="translate(0,0)"/>
<path d="M0 0 C2.9375 0.9375 2.9375 0.9375 4.375 2.6875 C5.07309424 5.47987695 4.80045281 7.20481609 3.9375 9.9375 C1.9375 11.9375 1.9375 11.9375 -1 12.25 C-4.0625 11.9375 -4.0625 11.9375 -6 10.8125 C-7.0625 8.9375 -7.0625 8.9375 -6.9375 5.9375 C-5.62826658 1.44869971 -4.85607989 -0.09910367 0 0 Z " fill="#000000" transform="translate(283.0625,111.0625)"/>
<path d="M0 0 C2 2 2 2 2.4375 4.875 C2 8 2 8 -0.5 10.375 C-1.325 10.91125 -2.15 11.4475 -3 12 C-7.875 10.125 -7.875 10.125 -9 9 C-9.3125 5.625 -9.3125 5.625 -9 2 C-6.17266771 -1.35091234 -4.03066587 -1.37891201 0 0 Z " fill="#000000" transform="translate(225,153)"/>
<path d="M0 0 C2.56687367 3.8503105 1.83288724 5.58569763 1 10 C-0.98 10.66 -2.96 11.32 -5 12 C-7.81638438 9.71168769 -8.90531749 8.57993036 -9.5 4.9375 C-9 2 -9 2 -7.3125 0.0625 C-4.36948861 -1.28969442 -3.01471387 -1.11068406 0 0 Z " fill="#000000" transform="translate(274,153)"/>
<path d="M0 0 C5.70334521 3.97232991 9.06276929 8.94551777 11.2265625 15.55078125 C11.23761878 17.01037712 11.23975582 18.47005968 11.234375 19.9296875 C11.53861691 22.9082796 11.79091496 24.13965433 13.99194336 26.21679688 C16.36879154 27.68324854 18.7639831 28.92061676 21.2890625 30.11328125 C22.14306641 30.54962891 22.99707031 30.98597656 23.87695312 31.43554688 C25.98034167 32.50486731 28.09423164 33.54076328 30.2265625 34.55078125 C29.57415168 38.93791117 28.6058957 43.10924422 27.3515625 47.36328125 C26.86042969 49.07451172 26.86042969 49.07451172 26.359375 50.8203125 C25.98554688 51.72136719 25.61171875 52.62242187 25.2265625 53.55078125 C24.2365625 53.88078125 23.2465625 54.21078125 22.2265625 54.55078125 C20.1328125 53.49926758 20.1328125 53.49926758 17.7265625 51.8828125 C16.83839844 51.32013672 15.95023438 50.75746094 15.03515625 50.17773438 C13.17933044 48.97880379 11.33764413 47.75766564 9.51171875 46.51367188 C4.25502824 43.16770534 4.25502824 43.16770534 -1.77124023 43.06201172 C-4.69457883 44.10208063 -4.69457883 44.10208063 -7.35717773 45.42260742 C-12.60796468 47.87424797 -17.39351792 46.89021055 -22.7734375 45.11328125 C-29.20880428 42.33256721 -34.01029641 37.30456551 -36.984375 30.97265625 C-37.92959019 28.07150071 -37.91444721 25.58248994 -37.7734375 22.55078125 C-34.1384643 23.88317356 -31.12184638 25.54400605 -27.8984375 27.67578125 C-23.50147477 30.38768042 -20.87018469 31.21557436 -15.7734375 30.55078125 C-15.50789063 29.83921875 -15.24234375 29.12765625 -14.96875 28.39453125 C-13.32439333 24.48246702 -11.16151029 20.92472342 -9.015625 17.26953125 C-7.71439184 14.42154924 -7.51613523 12.63840849 -7.7734375 9.55078125 C-8.46824219 9.29296875 -9.16304687 9.03515625 -9.87890625 8.76953125 C-13.10328072 7.41189989 -16.05509982 5.79749112 -19.0859375 4.05078125 C-20.15457031 3.44234375 -21.22320312 2.83390625 -22.32421875 2.20703125 C-23.13246094 1.66046875 -23.94070312 1.11390625 -24.7734375 0.55078125 C-24.7734375 -0.10921875 -24.7734375 -0.76921875 -24.7734375 -1.44921875 C-16.28179202 -5.12128166 -7.96967639 -4.49084939 0 0 Z " fill="#000000" transform="translate(185.7734375,205.44921875)"/>
<path d="M0 0 C3.94151559 1.11170952 7.01900185 2.62325632 10.4375 4.8125 C12.70459793 6.18822709 12.70459793 6.18822709 15 7 C18.21928107 6.06877925 18.21928107 6.06877925 20.1328125 4.92578125 C24.67114997 2.67560137 29.74461384 2.46140032 34.6171875 3.625 C41.98566102 6.31258913 47.80271447 10.09523556 51.4375 17.1875 C53.82215939 23.36687824 54.23240645 29.44925519 52.046875 35.74609375 C48.84066081 42.57451827 44.80183715 47.51187839 38 51 C30.51448485 53.26929301 22.91720745 52.55964159 16 49 C10.65710476 45.81970522 7.38259181 40.64762502 5 35 C4.55077613 31.59145597 4.60817359 28.41034097 5 25 C4.2575 24.71125 3.515 24.4225 2.75 24.125 C0.43099801 23.17631737 -1.76932676 22.13440221 -4 21 C-3.54034292 13.69303751 -2.11670277 7.00242552 0 0 Z M16.5625 16.6875 C15.10836522 19.33811888 15.10836522 19.33811888 14 22 C13.59652344 22.66644531 13.19304687 23.33289063 12.77734375 24.01953125 C11.36732028 27.6119026 12.86313609 30.5722332 13.99609375 34.11328125 C15.66451749 37.81636809 16.99043142 40.2369047 20 43 C25.85246051 44.5272629 32.0691881 43.67780707 38 43 C39.401264 40.80488686 40.76961427 38.59819045 42.125 36.375 C42.52332031 35.75753906 42.92164063 35.14007813 43.33203125 34.50390625 C45.2580926 31.29380399 46.12077298 29.60086432 45.37109375 25.87109375 C44.91863281 24.92363281 44.46617187 23.97617187 44 23 C43.69964844 22.09636719 43.39929688 21.19273437 43.08984375 20.26171875 C41.47444634 16.65308521 40.02907971 13.78295422 36.16894531 12.29345703 C28.65495749 10.47352652 21.37273796 9.82883443 16.5625 16.6875 Z " fill="#000000" transform="translate(290,285)"/>
</svg>
