<?xml version="1.0" encoding="UTF-8"?>
<svg version="1.1" xmlns="http://www.w3.org/2000/svg" width="500" height="500">
<path d="M0 0 C165 0 330 0 500 0 C500 165 500 330 500 500 C335 500 170 500 0 500 C0 335 0 170 0 0 Z " fill="#383C5F" transform="translate(0,0)"/>
<path d="M0 0 C26.03405487 -0.30386628 52.06784349 -0.53301562 78.10331535 -0.67355824 C90.19252728 -0.74055373 102.28063654 -0.83186628 114.36914062 -0.98071289 C124.90726499 -1.11040756 135.44459078 -1.19418435 145.98349106 -1.22315043 C151.56277286 -1.24008025 157.13977044 -1.27977397 162.71831894 -1.37449074 C167.97380395 -1.46299606 173.22607355 -1.48990236 178.48223305 -1.47039986 C180.40682928 -1.47396511 182.33153724 -1.4996814 184.25548744 -1.54967117 C198.40623643 -1.89919282 198.40623643 -1.89919282 202.75022364 1.28154016 C206.23671288 4.75755487 208.60536345 8.72864662 211 13 C211.96229304 14.36163264 212.94014358 15.712673 213.9453125 17.04296875 C215.02425781 18.59951172 215.02425781 18.59951172 216.125 20.1875 C216.87007813 21.25355469 217.61515625 22.31960937 218.3828125 23.41796875 C220 26 220 26 220 28 C220.66 28 221.32 28 222 28 C223.69140625 30.30078125 223.69140625 30.30078125 225.5625 33.3125 C226.18253906 34.29863281 226.80257813 35.28476563 227.44140625 36.30078125 C229 39 229 39 230 42 C230.66 42 231.32 42 232 42 C233.15625 43.4765625 233.15625 43.4765625 234.5 45.625 C237.10381331 49.66279746 239.81882053 53.60111461 242.625 57.5 C246.60653964 63.04626623 250.56287222 68.60960486 254.5 74.1875 C255.01643066 74.91839844 255.53286133 75.64929688 256.06494141 76.40234375 C256.54882324 77.088125 257.03270508 77.77390625 257.53125 78.48046875 C257.95986328 79.08785889 258.38847656 79.69524902 258.83007812 80.32104492 C262 84.87020033 262 84.87020033 262 88 C261.34 88 260.68 88 260 88 C259.690625 88.8353125 259.690625 88.8353125 259.375 89.6875 C257.86435988 92.22812201 256.06141825 93.76507497 253.73046875 95.55859375 C249.60554008 98.99448241 245.9706234 103.03972666 242.20703125 106.86328125 C240.40898809 108.67982007 238.6108072 110.49622257 236.8125 112.3125 C235.89791016 113.24384766 234.98332031 114.17519531 234.04101562 115.13476562 C232.73100586 116.45444336 232.73100586 116.45444336 231.39453125 117.80078125 C230.59893799 118.60684814 229.80334473 119.41291504 228.98364258 120.2434082 C227 122 227 122 225 122 C224.6596875 122.8353125 224.6596875 122.8353125 224.3125 123.6875 C222.62622733 126.65855185 220.469646 128.64522125 218 131 C217.113125 131.928125 216.22625 132.85625 215.3125 133.8125 C213 136 213 136 211 136 C211 136.66 211 137.32 211 138 C209.74658203 139.22998047 209.74658203 139.22998047 207.8828125 140.7421875 C203.82541139 144.19213975 200.05494353 147.85739989 196.3046875 151.6328125 C195.70472961 152.23607361 195.10477173 152.83933472 194.4866333 153.46087646 C192.61412173 155.34697979 190.74414167 157.23555733 188.875 159.125 C186.39619858 161.63057171 183.91397872 164.13268516 181.4296875 166.6328125 C180.59508499 167.47986252 180.59508499 167.47986252 179.74362183 168.34402466 C176.31819066 171.79063274 172.757252 174.91915523 169 178 C167.98338826 179.11274524 166.99607 180.25422131 166.0625 181.4375 C163.55287122 184.46613578 160.8608174 186.97132786 157.80859375 189.4453125 C153.69880245 192.97813526 150.00699331 197.00277729 146.20703125 200.86328125 C144.40898809 202.67982007 142.6108072 204.49622257 140.8125 206.3125 C139.89791016 207.24384766 138.98332031 208.17519531 138.04101562 209.13476562 C137.16767578 210.01455078 136.29433594 210.89433594 135.39453125 211.80078125 C134.59893799 212.60684814 133.80334473 213.41291504 132.98364258 214.2434082 C131 216 131 216 129 216 C128.7525 216.61875 128.505 217.2375 128.25 217.875 C126.76259631 220.40358627 125.56321991 220.71839004 123 222 C121.73195434 224.0335948 121.73195434 224.0335948 121 226 C120.34 226 119.68 226 119 226 C118.773125 226.5775 118.54625 227.155 118.3125 227.75 C116.65238361 230.59591381 114.60812043 231.99841921 112 234 C109.38819862 236.54650634 106.86402449 239.14568804 104.375 241.8125 C102 244 102 244 99 244 C96.8125 242 96.8125 242 95.546875 240.6015625 C93.96924058 238.89832119 93.96924058 238.89832119 91.828125 237.2734375 C89.48097475 235.30668746 87.67933933 233.56529 86 231 C85.66136254 227.07691692 86.85312773 223.72733489 88 220 C88.51515038 217.97480224 89.00257569 215.94385287 89.49121094 213.91210938 C90.13328769 211.26246444 90.81241816 208.62308573 91.4921875 205.98291016 C92.3434015 202.65908317 93.17045429 199.32929281 94 196 C94.66 196 95.32 196 96 196 C96.02578125 195.44054687 96.0515625 194.88109375 96.078125 194.3046875 C96.53631773 187.82750843 98.03030251 181.98515903 99.890625 175.77734375 C101.0440913 171.84987224 102.07397935 167.90873286 103.0625 163.9375 C103.23418701 163.26976562 103.40587402 162.60203125 103.58276367 161.9140625 C104.39422248 158.70729606 105.06371919 155.58472668 105.56640625 152.30859375 C106.9317704 143.91590083 106.9317704 143.91590083 110.1640625 141.14453125 C111.89133047 140.17131229 113.64818479 139.24888206 115.4296875 138.37890625 C126.17922477 132.61205723 129.68207181 119.57518622 133.0625 108.75 C133.40087891 107.69425781 133.73925781 106.63851562 134.08789062 105.55078125 C140.31326596 88.79035464 140.31326596 88.79035464 138 72 C134.04 72 130.08 72 126 72 C125.938125 70.9275 125.87625 69.855 125.8125 68.75 C125.28803585 64.99343028 125.28803585 64.99343028 123.0625 62.5625 C118.70740598 60.34051325 114.79719226 60.66466229 110 61 C109.67 58.69 109.34 56.38 109 54 C104.46705387 51.73352693 100.9747534 51.6051783 96 52 C93.5404226 53.33830958 93.5404226 53.33830958 92 55 C91.938125 54.05125 91.87625 53.1025 91.8125 52.125 C91.35743711 48.9047846 91.35743711 48.9047846 89 47.75 C85.01512607 46.75378152 81.02410408 45.82410846 77 45 C77 45.66 77 46.32 77 47 C76.37367676 47.4419873 75.74735352 47.88397461 75.10205078 48.33935547 C72.59157257 50.32266241 72.1904586 51.51915158 71.3671875 54.5703125 C71.11839844 55.4675 70.86960938 56.3646875 70.61328125 57.2890625 C70.36964844 58.22492188 70.12601563 59.16078125 69.875 60.125 C69.49794922 61.49398437 69.49794922 61.49398437 69.11328125 62.890625 C67.74056363 67.93590128 66.51584852 72.99648367 65.44628906 78.11450195 C64.87630719 80.52258182 64.01727194 82.74746928 63 85 C61.51965236 84.52449439 60.04074979 84.04448784 58.5625 83.5625 C57.73878906 83.29566406 56.91507812 83.02882813 56.06640625 82.75390625 C54 82 54 82 53 81 C50.58517587 80.49940084 50.58517587 80.49940084 48 81 C45.80586245 83.57243713 45.08077646 85.48072276 44.5625 88.8125 C45.63134499 96.59979918 50.45268743 103.2313658 56.5625 108 C60.38285517 111.1346504 62.64125292 113.69139608 63.421875 118.71484375 C63.80626491 127.35293924 61.56276618 134.77569679 58.75732422 142.80078125 C57.40843184 146.71787428 56.17949337 150.67298739 54.9375 154.625 C54.68363525 155.42623291 54.42977051 156.22746582 54.16821289 157.05297852 C52.29983678 162.97020851 50.55675739 168.91244543 48.87890625 174.88671875 C47.64025272 179.2743048 46.32659234 183.63832518 45 188 C42 188 42 188 39.62744141 185.96801758 C38.71140137 185.03626709 37.79536133 184.1045166 36.8515625 183.14453125 C36.10995377 182.39655525 36.10995377 182.39655525 35.35336304 181.63346863 C33.77007112 180.03337566 32.19748133 178.42321138 30.625 176.8125 C29.57361151 175.74605931 28.52153557 174.6802959 27.46875 173.61523438 C25.5186003 171.64061809 23.57349502 169.66148575 21.63134766 167.67895508 C16.75525793 162.63250356 16.75525793 162.63250356 11.5 158 C8.78704039 155.82963231 6.4454509 153.46938964 4 151 C2.98588146 149.99392456 1.97044087 148.98918043 0.95385742 147.9855957 C-2.00636748 145.06074659 -4.96066164 142.12998923 -7.9128418 139.19702148 C-9.18647901 137.93353278 -10.46189176 136.67183153 -11.73901367 135.41186523 C-13.58719248 133.5878147 -15.42895096 131.75749477 -17.26953125 129.92578125 C-18.1318914 129.07890495 -18.1318914 129.07890495 -19.01167297 128.21492004 C-20.37959931 126.84738775 -21.69539653 125.42806752 -23 124 C-23 123.34 -23 122.68 -23 122 C-23.556875 121.938125 -24.11375 121.87625 -24.6875 121.8125 C-29.1909769 120.23019731 -31.89669494 116.13488187 -34.875 112.5625 C-37.45904562 109.50017344 -40.25845902 106.95787103 -43.3359375 104.40234375 C-46.53989878 101.70229187 -49.37254047 98.80962521 -51.9375 95.5 C-54.37686416 92.54319496 -57.00341756 90.38364512 -60 88 C-58.48824511 81.96279703 -55.14732072 77.45331574 -51.625 72.4375 C-51.0475 71.60025391 -50.47 70.76300781 -49.875 69.90039062 C-47.04201939 65.81585352 -44.12359677 61.8682517 -41 58 C-39.56735101 55.96951629 -38.15162627 53.9270212 -36.75 51.875 C-33.931831 47.76821078 -31.07581823 43.70085565 -28.125 39.6875 C-23.79651246 33.77711541 -19.6537136 27.74354161 -15.515625 21.69921875 C-15.08958984 21.07837402 -14.66355469 20.4575293 -14.22460938 19.81787109 C-13.4168512 18.61879467 -12.62594393 17.40816938 -11.85351562 16.18603516 C-10.94924629 14.75984697 -9.98052988 13.37487342 -9 12 C-8.34 12 -7.68 12 -7 12 C-6.71125 11.236875 -6.4225 10.47375 -6.125 9.6875 C-5 7 -5 7 -3 4 C-2.34 4 -1.68 4 -1 4 C-0.67 2.68 -0.34 1.36 0 0 Z " fill="#FCFDFD" transform="translate(149,188)"/>
<path d="M0 0 C3.21228716 0.61527104 5.28255491 1.74288051 7.9375 3.625 C10.99093941 5.63745064 10.99093941 5.63745064 14.5625 5.9375 C15.366875 5.628125 16.17125 5.31875 17 5 C26.20102 1.99197423 33.07225818 2.4542302 42 6 C42 6.66 42 7.32 42 8 C42.598125 8.268125 43.19625 8.53625 43.8125 8.8125 C45.99847854 9.99917406 47.41332594 11.09599113 49 13 C49 13.66 49 14.32 49 15 C49.66 15 50.32 15 51 15 C53.85606249 22.51715648 54.81153267 31.85642378 51.5625 39.4375 C48.24656396 44.92472513 42.79952667 48.56913081 37.1875 51.4375 C28.85946197 52.90715377 22.12425752 52.86494402 14.7421875 48.484375 C12.79514058 46.8254561 11.97211544 45.34510323 11 43 C10.34 43 9.68 43 9 43 C5.28325981 38.83725099 4.86589353 35.19209157 4.9375 29.75 C4.94652344 28.85796875 4.95554687 27.9659375 4.96484375 27.046875 C4.97644531 26.37140625 4.98804688 25.6959375 5 25 C4.39671875 24.86722656 3.7934375 24.73445313 3.171875 24.59765625 C0.45322337 23.84953809 -1.63467285 22.51118124 -4 21 C-3.54034292 13.69303751 -2.11670277 7.00242552 0 0 Z " fill="#3C405E" transform="translate(290,285)"/>
<path d="M0 0 C6.38542389 4.60344513 12.49551151 9.02666973 14.6875 16.9375 C14.97642128 20.30343291 14.93587055 23.57069917 14.6875 26.9375 C15.30625 27.06125 15.925 27.185 16.5625 27.3125 C18.6875 27.9375 18.6875 27.9375 20.6875 29.9375 C21.38875 30.205625 22.09 30.47375 22.8125 30.75 C26.72800823 32.36727514 30.14396209 34.63376071 33.6875 36.9375 C33.14234328 44.02453739 31.07831395 50.26546106 28.6875 56.9375 C25.92473823 56.41481534 23.3614124 55.82880413 20.6875 54.9375 C20.6875 54.2775 20.6875 53.6175 20.6875 52.9375 C19.8625 52.710625 19.0375 52.48375 18.1875 52.25 C15.18357058 51.12352647 13.32050114 50.05386045 10.75 48.25 C7.69025412 46.26845028 6.88245678 45.93413868 3.0625 46 C-0.26514154 46.87827125 -0.26514154 46.87827125 -3.25 48 C-11.0721562 50.39453761 -17.23574491 48.59382346 -24.3125 44.9375 C-26.6761547 43.40862811 -28.32433343 41.97798675 -30.3125 39.9375 C-30.3125 38.9475 -30.3125 37.9575 -30.3125 36.9375 C-30.9725 36.9375 -31.6325 36.9375 -32.3125 36.9375 C-33.90388085 32.76012526 -34.52528058 29.40589215 -34.3125 24.9375 C-29.71422538 26.62900816 -25.89826547 29.02679693 -21.8125 31.6953125 C-18.99377621 33.09586588 -17.41316258 33.46889475 -14.3125 32.9375 C-12.76681382 31.45644799 -12.76681382 31.45644799 -11.75 29.375 C-11.34265625 28.64539063 -10.9353125 27.91578125 -10.515625 27.1640625 C-10.11859375 26.42929688 -9.7215625 25.69453125 -9.3125 24.9375 C-8.91546875 24.30585938 -8.5184375 23.67421875 -8.109375 23.0234375 C-5.96877269 19.60148873 -4.49969021 17.00154895 -5.3125 12.9375 C-6.3025 12.2775 -7.2925 11.6175 -8.3125 10.9375 C-8.3125 10.2775 -8.3125 9.6175 -8.3125 8.9375 C-8.86421875 8.82535156 -9.4159375 8.71320313 -9.984375 8.59765625 C-12.71315211 7.82389227 -15.04022943 6.66932306 -17.5625 5.375 C-18.45453125 4.91996094 -19.3465625 4.46492187 -20.265625 3.99609375 C-20.94109375 3.64675781 -21.6165625 3.29742187 -22.3125 2.9375 C-22.3125 2.2775 -22.3125 1.6175 -22.3125 0.9375 C-15.1244174 -1.77968183 -7.38157419 -2.36767474 0 0 Z " fill="#3C3F5E" transform="translate(182.3125,203.0625)"/>
<path d="M0 0 C0.99 0 1.98 0 3 0 C3 0.99 3 1.98 3 3 C3.33 2.67 3.66 2.34 4 2 C5.66617115 1.95936168 7.33388095 1.957279 9 2 C9.99 4.475 9.99 4.475 11 7 C11.66 7 12.32 7 13 7 C13.99 9.475 13.99 9.475 15 12 C15.66 12 16.32 12 17 12 C17.66 10.35 18.32 8.7 19 7 C19.66 7 20.32 7 21 7 C21.33 5.68 21.66 4.36 22 3 C23.65 3 25.3 3 27 3 C27 9.93 27 16.86 27 24 C25.68 24 24.36 24 23 24 C23 19.71 23 15.42 23 11 C22.34 11 21.68 11 21 11 C20.5359375 11.928125 20.5359375 11.928125 20.0625 12.875 C19.375 14.25 18.6875 15.625 18 17 C15.6875 16.75 15.6875 16.75 13 16 C12.01 14.68 11.02 13.36 10 12 C9.67 15.96 9.34 19.92 9 24 C7.02 24 5.04 24 3 24 C3 24.66 3 25.32 3 26 C2.34 26 1.68 26 1 26 C0.505 25.01 0.505 25.01 0 24 C-1.32 24.33 -2.64 24.66 -4 25 C-4 25.66 -4 26.32 -4 27 C-5.32 27 -6.64 27 -8 27 C-6.35 27.33 -4.7 27.66 -3 28 C-3 28.33 -3 28.66 -3 29 C-6.63 29 -10.26 29 -14 29 C-14 29.66 -14 30.32 -14 31 C-16.31 31 -18.62 31 -21 31 C-21 30.34 -21 29.68 -21 29 C-21.66 29 -22.32 29 -23 29 C-23.33 29.66 -23.66 30.32 -24 31 C-24.66 30.34 -25.32 29.68 -26 29 C-27.175625 28.690625 -28.35125 28.38125 -29.5625 28.0625 C-31.2640625 27.5365625 -31.2640625 27.5365625 -33 27 C-33.33 26.01 -33.66 25.02 -34 24 C-34.66 24 -35.32 24 -36 24 C-35.67 25.32 -35.34 26.64 -35 28 C-35.99 28.33 -36.98 28.66 -38 29 C-38.99 29.3403125 -38.99 29.3403125 -40 29.6875 C-42 30 -42 30 -45 28 C-45.66 27.34 -46.32 26.68 -47 26 C-49.10820797 26.3185177 -49.10820797 26.3185177 -51 27 C-53.63074244 20.93785438 -55.12428274 16.54681829 -55.0625 9.8125 C-55.05347656 8.54019531 -55.04445312 7.26789063 -55.03515625 5.95703125 C-55.02355469 4.98121094 -55.01195312 4.00539062 -55 3 C-53.35 3 -51.7 3 -50 3 C-49.67 7.95 -49.34 12.9 -49 18 C-47.68 18.33 -46.36 18.66 -45 19 C-42.94077598 16.94077598 -43.58572421 12.78291876 -43.4375 9.9375 C-43.39431641 9.17888672 -43.35113281 8.42027344 -43.30664062 7.63867188 C-43.20026367 5.75934562 -43.09960066 3.87969756 -43 2 C-35.33333333 2 -27.66666667 2 -20 2 C-20 4.31 -20 6.62 -20 9 C-19.34 9 -18.68 9 -18 9 C-18 8.34 -18 7.68 -18 7 C-17.34 7 -16.68 7 -16 7 C-16 6.34 -16 5.68 -16 5 C-15.34 5 -14.68 5 -14 5 C-14 4.34 -14 3.68 -14 3 C-11.21084611 1.60542306 -9.09726736 1.8178078 -6 2 C-3.125 3 -3.125 3 -1 4 C-0.67 2.68 -0.34 1.36 0 0 Z " fill="#3F4260" transform="translate(230,145)"/>
<path d="M0 0 C5.28 0 10.56 0 16 0 C16.4375 7.4375 16.4375 7.4375 16.56811523 9.78295898 C16.49795579 13.18161081 16.49795579 13.18161081 18 16 C18 11.05 18 6.1 18 1 C20.31 1 22.62 1 25 1 C24.67 6.61 24.34 12.22 24 18 C24.66 18 25.32 18 26 18 C26 19.32 26 20.64 26 22 C22.7 22.33 19.4 22.66 16 23 C16 23.66 16 24.32 16 25 C14.37419034 24.88601335 12.74932843 24.75844341 11.125 24.625 C10.22007812 24.55539063 9.31515625 24.48578125 8.3828125 24.4140625 C6 24 6 24 4 22 C3.875 19.375 3.875 19.375 4 17 C0.72226496 17.75150023 0.72226496 17.75150023 -1 21 C-4.125 21.6875 -4.125 21.6875 -8 22 C-9.00353516 22.14888672 -9.00353516 22.14888672 -10.02734375 22.30078125 C-13.03466765 22.5951642 -15.3286892 22.46749457 -17.83984375 20.71875 C-20.86183042 17.59010498 -22.36511199 15.08708244 -22.4375 10.6875 C-22 7 -22 7 -21 5 C-20.34 5 -19.68 5 -19 5 C-18.67 4.01 -18.34 3.02 -18 2 C-14.77140153 0.38570077 -11.49006347 0.40429343 -8 1 C-4.97491855 2.73602105 -2.58209931 4.83580137 -1 8 C-0.95977609 10.3329866 -0.95679753 12.66706666 -1 15 C-0.01 14.67 0.98 14.34 2 14 C2.12375 13.2575 2.2475 12.515 2.375 11.75 C2.95486701 9.19858515 3.73708739 7.2732427 5 5 C3.35 5 1.7 5 0 5 C0 3.35 0 1.7 0 0 Z " fill="#464962" transform="translate(282,147)"/>
<path d="M0 0 C0.66 1.98 1.32 3.96 2 6 C2.66 6 3.32 6 4 6 C4.73033661 7.21622171 5.43351354 8.44877756 6.125 9.6875 C6.71667969 10.71423828 6.71667969 10.71423828 7.3203125 11.76171875 C8.51531206 15.69697593 6.30373391 18.41692532 4.4921875 21.89453125 C2.99479167 24.59635417 1.49739583 27.29817708 0 30 C-5.94 30 -11.88 30 -18 30 C-21 24 -21 24 -21 22 C-21.66 22 -22.32 22 -23 22 C-25.16368337 18.58803776 -26.0993527 16.75224189 -25.5625 12.6875 C-25.07488602 11.44478094 -24.54964814 10.21655455 -24 9 C-23.72027344 8.19304687 -23.44054687 7.38609375 -23.15234375 6.5546875 C-18.69696975 -3.08100272 -9.08009684 -0.77095162 0 0 Z " fill="#FAFBFA" transform="translate(328,298)"/>
<path d="M0 0 C5.28 0 10.56 0 16 0 C16 2.31 16 4.62 16 7 C16.66 7 17.32 7 18 7 C18 6.34 18 5.68 18 5 C18.66 5 19.32 5 20 5 C20 4.34 20 3.68 20 3 C20.66 3 21.32 3 22 3 C22 2.34 22 1.68 22 1 C24.86608129 -0.43304064 26.81300783 -0.30644155 30 0 C33.06471302 1.65023009 35.30778907 3.056076 37.375 5.875 C38.59148002 10.01103207 38.48982942 12.97581121 36.625 16.875 C36.08875 17.57625 35.5525 18.2775 35 19 C34.34 19 33.68 19 33 19 C33 19.66 33 20.32 33 21 C29.80261338 22.59869331 26.469833 22.51085495 23 22 C20 20 20 20 18 18 C17.67 18.66 17.34 19.32 17 20 C16.34 20 15.68 20 15 20 C15 20.66 15 21.32 15 22 C13.35 22.33 11.7 22.66 10 23 C10 23.66 10 24.32 10 25 C8.02 24.67 6.04 24.34 4 24 C4 23.01 4 22.02 4 21 C4.66 21.33 5.32 21.66 6 22 C6 16.39 6 10.78 6 5 C4.02 5 2.04 5 0 5 C0 3.35 0 1.7 0 0 Z " fill="#EDEFF4" transform="translate(194,147)"/>
<path d="M0 0 C6.93 0 13.86 0 21 0 C21 1.65 21 3.3 21 5 C18.03 5 15.06 5 12 5 C12 6.32 12 7.64 12 9 C14.31 9 16.62 9 19 9 C19 10.32 19 11.64 19 13 C16.69 13 14.38 13 12 13 C12 14.65 12 16.3 12 18 C14.97 18 17.94 18 21 18 C21 19.32 21 20.64 21 22 C14.565 22.495 14.565 22.495 8 23 C8 23.99 8 24.98 8 26 C6.68 26.33 5.36 26.66 4 27 C4 26.34 4 25.68 4 25 C2.02 25 0.04 25 -2 25 C-2 24.34 -2 23.68 -2 23 C-3.59521484 23.04447266 -3.59521484 23.04447266 -5.22265625 23.08984375 C-9 22 -9 22 -10.32763672 20.16845703 C-11.50294902 17.66890764 -12.49435556 15.15850037 -13.4375 12.5625 C-13.78748047 11.67755859 -14.13746094 10.79261719 -14.49804688 9.88085938 C-17 3.45216182 -17 3.45216182 -17 1 C-15.35 1 -13.7 1 -12 1 C-11.16235732 2.95649397 -10.33000941 4.91525556 -9.5 6.875 C-8.80390625 8.51082031 -8.80390625 8.51082031 -8.09375 10.1796875 C-7 13 -7 13 -7 15 C-6.34 15 -5.68 15 -5 15 C-4.70996094 14.00419922 -4.70996094 14.00419922 -4.4140625 12.98828125 C-4.15367187 12.10527344 -3.89328125 11.22226563 -3.625 10.3125 C-3.36976563 9.44238281 -3.11453125 8.57226562 -2.8515625 7.67578125 C-2.02382686 5.07486881 -1.01369191 2.53422977 0 0 Z " fill="#40435F" transform="translate(327,147)"/>
<path d="M0 0 C3.02508145 1.73602105 5.41790069 3.83580137 7 7 C7.2262475 12.0069555 6.69507747 15.16929766 3.4375 19.0625 C-0.04709474 21.02654431 -2.09095616 21.88216457 -6.03125 21.609375 C-9.25719905 20.61086696 -10.94543005 18.7379237 -12.94140625 16.08203125 C-14.74044936 12.54369184 -14.46405636 9.9113322 -14 6 C-13.67 5.34 -13.34 4.68 -13 4 C-12.34 4 -11.68 4 -11 4 C-10.67 3.01 -10.34 2.02 -10 1 C-6.77140153 -0.61429923 -3.49006347 -0.59570657 0 0 Z " fill="#EDEFF4" transform="translate(274,148)"/>
<path d="M0 0 C3.342356 0.0587315 5.60891136 0.38682585 8.375 2.3125 C11.23065514 5.90037441 11.57926413 7.68958213 11.28125 12.15234375 C10.5691331 15.52896473 9.0229222 17.7745033 6.8125 20.375 C3.59790014 21.98229993 0.28861897 21.99430855 -3.1875 21.375 C-6.125 18.9375 -6.125 18.9375 -8.1875 16.375 C-8.5175 16.045 -8.8475 15.715 -9.1875 15.375 C-9.25955511 13.68891034 -9.27136068 11.99999341 -9.25 10.3125 C-9.24097656 9.39339844 -9.23195313 8.47429687 -9.22265625 7.52734375 C-9.21105469 6.81707031 -9.19945312 6.10679688 -9.1875 5.375 C-8.5275 5.375 -7.8675 5.375 -7.1875 5.375 C-6.7234375 4.4159375 -6.7234375 4.4159375 -6.25 3.4375 C-4.5486914 0.13495977 -3.64166043 0.15859828 0 0 Z " fill="#ECEFF3" transform="translate(281.1875,106.625)"/>
<path d="M0 0 C1.65 0 3.3 0 5 0 C5.99 4.29 6.98 8.58 8 13 C9.65 8.71 11.3 4.42 13 0 C14.65 0 16.3 0 18 0 C19.32 4.29 20.64 8.58 22 13 C23.5994614 9.80107719 24.42595236 7.64537424 25.125 4.25 C25.29257813 3.45078125 25.46015625 2.6515625 25.6328125 1.828125 C25.75398438 1.22484375 25.87515625 0.6215625 26 0 C27.65 0 29.3 0 31 0 C30.72285156 1.09699219 30.44570312 2.19398437 30.16015625 3.32421875 C29.79420763 4.77862993 29.42832573 6.2330579 29.0625 7.6875 C28.88009766 8.40873047 28.69769531 9.12996094 28.50976562 9.87304688 C27.58174093 13.56827248 26.70201539 17.25345469 26 21 C23.69 21 21.38 21 19 21 C18.79503906 20.30132812 18.59007812 19.60265625 18.37890625 18.8828125 C18.10949219 17.97273438 17.84007812 17.06265625 17.5625 16.125 C17.29566406 15.22007813 17.02882812 14.31515625 16.75390625 13.3828125 C16.07386174 11.01724619 16.07386174 11.01724619 15 9 C13.68 12.96 12.36 16.92 11 21 C9.02 21 7.04 21 5 21 C0 4.73333333 0 4.73333333 0 0 Z " fill="#F0F2F6" transform="translate(195,107)"/>
<path d="M0 0 C1.65 0 3.3 0 5 0 C5.66 1.65 6.32 3.3 7 5 C7.66 5 8.32 5 9 5 C9.66 6.65 10.32 8.3 11 10 C11.66 10 12.32 10 13 10 C13.66 8.35 14.32 6.7 15 5 C15.66 5 16.32 5 17 5 C17.33 3.68 17.66 2.36 18 1 C19.65 1 21.3 1 23 1 C23 7.93 23 14.86 23 22 C21.68 22 20.36 22 19 22 C19 17.71 19 13.42 19 9 C18.34 9 17.68 9 17 9 C16.690625 9.61875 16.38125 10.2375 16.0625 10.875 C15.375 12.25 14.6875 13.625 14 15 C11.6875 14.75 11.6875 14.75 9 14 C8.01 12.68 7.02 11.36 6 10 C5.67 13.96 5.34 17.92 5 22 C3.35 22 1.7 22 0 22 C0 14.74 0 7.48 0 0 Z " fill="#EDEFF3" transform="translate(234,147)"/>
<path d="M0 0 C5.28 0 10.56 0 16 0 C16.33 2.413125 16.66 4.82625 17 7.3125 C17.10441406 8.06829346 17.20882812 8.82408691 17.31640625 9.6027832 C18.35431825 17.29136349 18.35431825 17.29136349 17 20 C16.34 20 15.68 20 15 20 C15 20.66 15 21.32 15 22 C13.35 22.33 11.7 22.66 10 23 C10 23.66 10 24.32 10 25 C8.02 24.67 6.04 24.34 4 24 C4 23.01 4 22.02 4 21 C4.66 21.33 5.32 21.66 6 22 C6 16.39 6 10.78 6 5 C4.02 5 2.04 5 0 5 C0 3.35 0 1.7 0 0 Z " fill="#41435B" transform="translate(194,147)"/>
<path d="M0 0 C1.65 0 3.3 0 5 0 C5 7.26 5 14.52 5 22 C3.35 22 1.7 22 0 22 C-2.23828125 19.6640625 -2.23828125 19.6640625 -4.3125 16.625 C-5.00988281 15.62726563 -5.70726562 14.62953125 -6.42578125 13.6015625 C-8 11 -8 11 -8 9 C-8.66 9 -9.32 9 -10 9 C-10 13.29 -10 17.58 -10 22 C-11.32 22 -12.64 22 -14 22 C-14 15.07 -14 8.14 -14 1 C-12.35 1 -10.7 1 -9 1 C-8.34 2.65 -7.68 4.3 -7 6 C-6.34 6 -5.68 6 -5 6 C-3.61061923 7.96147874 -2.2739589 9.96166576 -1 12 C-0.67 8.04 -0.34 4.08 0 0 Z " fill="#F0F1F6" transform="translate(309,106)"/>
<path d="M0 0 C1.98 0 3.96 0 6 0 C6.96380382 2.18522816 7.92109439 4.37295386 8.875 6.5625 C9.14441406 7.17158203 9.41382813 7.78066406 9.69140625 8.40820312 C11.48625009 12.54509929 12.84414021 16.64027642 14 21 C12.35 21 10.7 21 9 21 C8.67 19.68 8.34 18.36 8 17 C4.7 17 1.4 17 -2 17 C-2.33 18.32 -2.66 19.64 -3 21 C-4.65 21 -6.3 21 -8 21 C-5.73011593 13.88081813 -3.3479057 6.6958114 0 0 Z " fill="#F1F3F4" transform="translate(159,148)"/>
<path d="M0 0 C0 0.33 0 0.66 0 1 C-1.65 1 -3.3 1 -5 1 C-4.60167969 1.90621094 -4.20335937 2.81242188 -3.79296875 3.74609375 C-3.25702817 4.97622108 -2.72192813 6.20671483 -2.1875 7.4375 C-1.9105127 8.07333008 -1.63352539 8.70916016 -1.34814453 9.36425781 C0.19286128 12.95115998 1.52577466 16.49789561 2.625 20.25 C3.56617157 24.04025799 3.56617157 24.04025799 6.0859375 25.234375 C6.71757812 25.48703125 7.34921875 25.7396875 8 26 C4.68885166 27.12880057 1.41021743 28.21302675 -2 29 C-1.34 27.68 -0.68 26.36 0 25 C-1.98491642 25.26676204 -1.98491642 25.26676204 -4 26 C-4.33 26.99 -4.66 27.98 -5 29 C-5.66 28.34 -6.32 27.68 -7 27 C-9.32275177 26.59952556 -11.65739357 26.2602896 -14 26 C-13.34 25.01 -12.68 24.02 -12 23 C-11.34 23 -10.68 23 -10 23 C-10 23.66 -10 24.32 -10 25 C-9.34 24.67 -8.68 24.34 -8 24 C-8.33 23.34 -8.66 22.68 -9 22 C-8.34 22 -7.68 22 -7 22 C-7 20.68 -7 19.36 -7 18 C-7.66 18 -8.32 18 -9 18 C-9.02709444 15.91673869 -9.04643873 13.83337559 -9.0625 11.75 C-9.07410156 10.58984375 -9.08570313 9.4296875 -9.09765625 8.234375 C-9.01782092 5.59022872 -8.78643778 3.50173909 -8 1 C-10.31 1 -12.62 1 -15 1 C-15 0.67 -15 0.34 -15 0 C-9.76528314 -0.75612577 -5.22745859 -1.2063366 0 0 Z " fill="#3A405C" transform="translate(315,147)"/>
<path d="M0 0 C1.65 0 3.3 0 5 0 C5.13548815 2.73083902 5.23429855 5.45491807 5.3125 8.1875 C5.35439453 8.95642578 5.39628906 9.72535156 5.43945312 10.51757812 C5.53148736 14.80637364 5.39150029 16.48598942 2.703125 20.015625 C0 22 0 22 -3.5625 22.5625 C-7.49416151 21.91913721 -8.65590239 21.15551602 -11 18 C-12.18681726 14.43954823 -12.09689832 11.56191663 -12.0625 7.8125 C-12.05347656 6.54019531 -12.04445312 5.26789063 -12.03515625 3.95703125 C-12.02355469 2.98121094 -12.01195312 2.00539062 -12 1 C-10.35 1 -8.7 1 -7 1 C-6.67 5.95 -6.34 10.9 -6 16 C-4.68 16.33 -3.36 16.66 -2 17 C0.05922402 14.94077598 -0.58572421 10.78291876 -0.4375 7.9375 C-0.39431641 7.17888672 -0.35113281 6.42027344 -0.30664062 5.63867188 C-0.20026367 3.75934562 -0.09960066 1.87969756 0 0 Z " fill="#E9EAF0" transform="translate(187,147)"/>
<path d="M0 0 C0.7734375 0.00386719 1.546875 0.00773437 2.34375 0.01171875 C4.5 0.3125 4.5 0.3125 7.5 2.3125 C7.17 3.3025 6.84 4.2925 6.5 5.3125 C3.53 4.9825 0.56 4.6525 -2.5 4.3125 C-2.5 5.6325 -2.5 6.9525 -2.5 8.3125 C0.14 8.6425 2.78 8.9725 5.5 9.3125 C5.5 9.9725 5.5 10.6325 5.5 11.3125 C6.16 11.3125 6.82 11.3125 7.5 11.3125 C7.83 13.2925 8.16 15.2725 8.5 17.3125 C5.59307311 20.1313382 4.01413456 21.24936067 -0.0625 21.75 C-3.57967359 21.30235972 -4.9837345 20.72811488 -7.5 18.3125 C-7.005 16.8275 -7.005 16.8275 -6.5 15.3125 C-3.2 15.9725 0.1 16.6325 3.5 17.3125 C3.5 15.9925 3.5 14.6725 3.5 13.3125 C1.6128125 13.1578125 1.6128125 13.1578125 -0.3125 13 C-2.81797458 12.67184935 -4.31117604 12.42461423 -6.5 11.125 C-8.00815882 8.39146214 -7.8826201 6.37346083 -7.5 3.3125 C-5.27899785 0.33021094 -3.64753003 -0.07902982 0 0 Z " fill="#EDEFF6" transform="translate(184.5,106.6875)"/>
<path d="M0 0 C1.65 0 3.3 0 5 0 C5.83764268 1.95649397 6.66999059 3.91525556 7.5 5.875 C8.19609375 7.51082031 8.19609375 7.51082031 8.90625 9.1796875 C10 12 10 12 10 14 C10.66 14 11.32 14 12 14 C12.19335938 13.32453125 12.38671875 12.6490625 12.5859375 11.953125 C12.84632813 11.06109375 13.10671875 10.1690625 13.375 9.25 C13.63023437 8.36828125 13.88546875 7.4865625 14.1484375 6.578125 C14.9209934 4.23919428 15.83625676 2.16557438 17 0 C18.65 0 20.3 0 22 0 C20.3548674 5.25042318 18.50944885 10.09020878 16 15 C15.30028027 16.98867713 14.62335603 18.98608051 14 21 C12.02 21 10.04 21 8 21 C6.66087415 17.87745057 5.32969342 14.75157642 4 11.625 C3.6184375 10.73554688 3.236875 9.84609375 2.84375 8.9296875 C2.30234375 7.65351563 2.30234375 7.65351563 1.75 6.3515625 C1.41484375 5.56604004 1.0796875 4.78051758 0.734375 3.97119141 C0 2 0 2 0 0 Z " fill="#E7EAF0" transform="translate(310,148)"/>
<path d="M0 0 C4.29 0 8.58 0 13 0 C13 1.32 13 2.64 13 4 C10.03 4 7.06 4 4 4 C4 5.32 4 6.64 4 8 C6.64 8 9.28 8 12 8 C12 9.32 12 10.64 12 12 C9.36 12 6.72 12 4 12 C4 13.65 4 15.3 4 17 C6.97 17 9.94 17 13 17 C13 18.32 13 19.64 13 21 C8.71 21 4.42 21 0 21 C0 14.07 0 7.14 0 0 Z " fill="#F6F9FB" transform="translate(239,107)"/>
<path d="M0 0 C4.29 0 8.58 0 13 0 C13 1.32 13 2.64 13 4 C10.03 4 7.06 4 4 4 C4 5.32 4 6.64 4 8 C6.31 8 8.62 8 11 8 C11 9.32 11 10.64 11 12 C8.69 12 6.38 12 4 12 C4 13.65 4 15.3 4 17 C6.97 17 9.94 17 13 17 C13 18.32 13 19.64 13 21 C8.71 21 4.42 21 0 21 C0 14.07 0 7.14 0 0 Z " fill="#F1F6F9" transform="translate(335,148)"/>
<path d="M0 0 C0.70640625 0.05220703 1.4128125 0.10441406 2.140625 0.15820312 C3.88579987 0.28791207 5.63045725 0.42454954 7.375 0.5625 C7.045 1.5525 6.715 2.5425 6.375 3.5625 C5.055 3.5625 3.735 3.5625 2.375 3.5625 C2.375 4.2225 2.375 4.8825 2.375 5.5625 C3.179375 5.253125 3.179375 5.253125 4 4.9375 C7.20829242 4.43092751 9.35472611 5.47006051 12.375 6.5625 C13.365 6.5625 14.355 6.5625 15.375 6.5625 C15.045 8.2125 14.715 9.8625 14.375 11.5625 C15.035 11.8925 15.695 12.2225 16.375 12.5625 C15.385 14.0475 15.385 14.0475 14.375 15.5625 C13.715 15.5625 13.055 15.5625 12.375 15.5625 C12.045 17.2125 11.715 18.8625 11.375 20.5625 C10.055 20.8925 8.735 21.2225 7.375 21.5625 C7.40980469 20.93601563 7.44460937 20.30953125 7.48046875 19.6640625 C7.50753906 18.84679687 7.53460938 18.02953125 7.5625 17.1875 C7.59730469 16.37539062 7.63210937 15.56328125 7.66796875 14.7265625 C7.57128906 14.01242188 7.47460938 13.29828125 7.375 12.5625 C6.385 11.9025 5.395 11.2425 4.375 10.5625 C4.375 9.9025 4.375 9.2425 4.375 8.5625 C3.54742187 8.39427734 3.54742187 8.39427734 2.703125 8.22265625 C-0.02565211 7.44889227 -2.35272943 6.29432306 -4.875 5 C-5.76703125 4.54496094 -6.6590625 4.08992187 -7.578125 3.62109375 C-8.25359375 3.27175781 -8.9290625 2.92242187 -9.625 2.5625 C-9.625 1.9025 -9.625 1.2425 -9.625 0.5625 C-6.5270403 -0.98647985 -3.36283448 -0.26989539 0 0 Z " fill="#404360" transform="translate(169.625,203.4375)"/>
<path d="M0 0 C0.33 0.99 0.66 1.98 1 3 C1.66 3 2.32 3 3 3 C3.33 2.01 3.66 1.02 4 0 C5.32 0 6.64 0 8 0 C8 0.99 8 1.98 8 3 C8.33 3.33 8.66 3.66 9 4 C9.21168488 6.24621176 9.36915709 8.49763282 9.5 10.75 C9.74478645 14.92885432 10.06472373 18.91596027 11 23 C10.01 23 9.02 23 8 23 C7.67 23.66 7.34 24.32 7 25 C4.03584181 18.0758202 1.27435204 11.18216433 -1 4 C-2.98 4 -4.96 4 -7 4 C-7 3.67 -7 3.34 -7 3 C-5.5459375 2.5359375 -5.5459375 2.5359375 -4.0625 2.0625 C-1.15934208 1.30476658 -1.15934208 1.30476658 0 0 Z " fill="#373B57" transform="translate(166,144)"/>
<path d="M0 0 C3 2 3 2 6 4 C6 4.66 6 5.32 6 6 C5.01 6 4.02 6 3 6 C2.67 5.67 2.34 5.34 2 5 C1.67 5.99 1.34 6.98 1 8 C2.32 8.66 3.64 9.32 5 10 C-0.94 10 -6.88 10 -13 10 C-13 9.01 -13 8.02 -13 7 C-13.99 7 -14.98 7 -16 7 C-16 6.34 -16 5.68 -16 5 C-16.99 4.67 -17.98 4.34 -19 4 C-13.29572026 0.19714684 -6.75812782 -0.89060599 0 0 Z " fill="#3F4460" transform="translate(323,288)"/>
<path d="M0 0 C4.95 0 9.9 0 15 0 C15 1.32 15 2.64 15 4 C13.35 4 11.7 4 10 4 C10 9.61 10 15.22 10 21 C8.35 21 6.7 21 5 21 C5 15.39 5 9.78 5 4 C3.35 4 1.7 4 0 4 C0 2.68 0 1.36 0 0 Z " fill="#E6E9EF" transform="translate(255,107)"/>
<path d="M0 0 C1.65 0 3.3 0 5 0 C5.66 1.65 6.32 3.3 7 5 C7.66 5 8.32 5 9 5 C9 6.32 9 7.64 9 9 C7.68 9 6.36 9 5 9 C5 13.29 5 17.58 5 22 C3.35 22 1.7 22 0 22 C0 14.74 0 7.48 0 0 Z " fill="#E2E5EA" transform="translate(234,147)"/>
<path d="M0 0 C4.95 0 9.9 0 15 0 C15 1.32 15 2.64 15 4 C13.35 4 11.7 4 10 4 C10 9.61 10 15.22 10 21 C8.68 21 7.36 21 6 21 C6 15.39 6 9.78 6 4 C4.02 4 2.04 4 0 4 C0 2.68 0 1.36 0 0 Z " fill="#F7F9FB" transform="translate(282,148)"/>
<path d="M0 0 C4.95 0 9.9 0 15 0 C15 1.32 15 2.64 15 4 C13.35 4 11.7 4 10 4 C10 9.61 10 15.22 10 21 C8.68 21 7.36 21 6 21 C6 15.39 6 9.78 6 4 C4.02 4 2.04 4 0 4 C0 2.68 0 1.36 0 0 Z " fill="#F6FAFA" transform="translate(194,148)"/>
<path d="M0 0 C2.31 0 4.62 0 7 0 C7 6.93 7 13.86 7 21 C4.36 21 1.72 21 -1 21 C-1 19.68 -1 18.36 -1 17 C-0.34 17 0.32 17 1 17 C0.67 11.39 0.34 5.78 0 0 Z " fill="#F6F7F7" transform="translate(229,107)"/>
<path d="M0 0 C2.31 0 4.62 0 7 0 C6.67 5.61 6.34 11.22 6 17 C6.66 17 7.32 17 8 17 C8 18.32 8 19.64 8 21 C5.36 21 2.72 21 0 21 C0 14.07 0 7.14 0 0 Z " fill="#F4F5F9" transform="translate(300,148)"/>
<path d="M0 0 C2.16551116 3.24826674 2.55156953 4.23094157 2 8 C0.3125 10.375 0.3125 10.375 -2 12 C-4.86211941 11.93019221 -6.42995288 11.37347914 -8.8125 9.8125 C-10.58260835 7.11075568 -10.39415803 5.15326426 -10 2 C-7.65569181 -2.27491494 -4.20074737 -1.06928115 0 0 Z " fill="#53546C" transform="translate(286,112)"/>
<path d="M0 0 C5.36842105 -0.35789474 5.36842105 -0.35789474 7.875 1.0625 C9.66235303 4.14071911 9.43386742 6.52906068 9 10 C7.3125 12 7.3125 12 5 13 C2.30190224 12.74303831 0.41649307 12.20824654 -2 11 C-2 8.03 -2 5.06 -2 2 C-1.34 2 -0.68 2 0 2 C0 1.34 0 0.68 0 0 Z " fill="#3C3F58" transform="translate(267,152)"/>
<path d="M0 0 C3.06975784 3.4928623 4.32350282 7.39015404 5.6875 11.75 C5.91244141 12.44738281 6.13738281 13.14476562 6.36914062 13.86328125 C6.91963366 15.57332344 7.46076237 17.28637529 8 19 C6.35 19 4.7 19 3 19 C2.67 17.68 2.34 16.36 2 15 C-1.3 15 -4.6 15 -8 15 C-8 14.67 -8 14.34 -8 14 C-4.535 13.505 -4.535 13.505 -1 13 C-1 12.67 -1 12.34 -1 12 C-2.65 11.67 -4.3 11.34 -6 11 C-5.34 8.69 -4.68 6.38 -4 4 C-3.01 4 -2.02 4 -1 4 C-0.67 2.68 -0.34 1.36 0 0 Z " fill="#E0E3E9" transform="translate(165,150)"/>
<path d="M0 0 C1.8125 1.125 1.8125 1.125 3 3 C3.45185216 6.53950857 3.42109443 8.33326715 1.5 11.375 C1.005 11.91125 0.51 12.4475 0 13 C-5.75 12.25 -5.75 12.25 -8 10 C-8.55416667 3.90416667 -8.55416667 3.90416667 -6.8125 1.0625 C-4.33950907 -0.38718434 -2.82115488 -0.42317323 0 0 Z " fill="#3E3D58" transform="translate(224,152)"/>
<path d="M0 0 C1.10844919 3.32534757 0.84454356 5.62182575 0 9 C2.51083114 7.74458443 2.87125446 6.49936512 4 4 C4 6.31 4 8.62 4 11 C9.01568143 12.11172134 9.01568143 12.11172134 13.8125 10.6875 C16.81957214 8.36775863 18.40784089 6.41176953 20 3 C19.97804312 8.0391029 19.75264777 11.10049412 16.4375 15.0625 C12.95290526 17.02654431 10.90904384 17.88216457 6.96875 17.609375 C3.74280095 16.61086696 2.05456995 14.7379237 0.05859375 12.08203125 C-1.74044936 8.54369184 -1.46405636 5.9113322 -1 2 C-0.67 1.34 -0.34 0.68 0 0 Z " fill="#E6E9F0" transform="translate(261,152)"/>
<path d="M0 0 C2.64 0 5.28 0 8 0 C8 0.33 8 0.66 8 1 C5.69 1 3.38 1 1 1 C1.16371094 1.52078125 1.32742187 2.0415625 1.49609375 2.578125 C2.14058659 5.6756875 2.09411589 8.58841094 2.0625 11.75 C2.05347656 12.92046875 2.04445312 14.0909375 2.03515625 15.296875 C2.02355469 16.18890625 2.01195312 17.0809375 2 18 C1.34 18 0.68 18 0 18 C-0.33 19.32 -0.66 20.64 -1 22 C-2.32 21.67 -3.64 21.34 -5 21 C-4.34 19.35 -3.68 17.7 -3 16 C-3.66 16 -4.32 16 -5 16 C-5.33 17.65 -5.66 19.3 -6 21 C-7.63129887 16.93714243 -6.29968777 13.79897816 -5.0625 9.75 C-4.68222656 8.48671875 -4.30195313 7.2234375 -3.91015625 5.921875 C-3.60980469 4.95765625 -3.30945313 3.9934375 -3 3 C-2.34 3.33 -1.68 3.66 -1 4 C-0.67 2.68 -0.34 1.36 0 0 Z " fill="#4B4F6B" transform="translate(228,106)"/>
<path d="M0 0 C-1.32 0.33 -2.64 0.66 -4 1 C-3.73123047 2.10408203 -3.73123047 2.10408203 -3.45703125 3.23046875 C-1.69811321 11.30017153 -1.69811321 11.30017153 -3.375 15.1875 C-3.91125 15.785625 -4.4475 16.38375 -5 17 C-7 14 -7 14 -7 12 C-7.66 12 -8.32 12 -9 12 C-9 11.34 -9 10.68 -9 10 C-11.64 9.67 -14.28 9.34 -17 9 C-17 7.68 -17 6.36 -17 5 C-14.03 5 -11.06 5 -8 5 C-7.67 4.34 -7.34 3.68 -7 3 C-7.99 2.67 -8.98 2.34 -10 2 C-9.01 1.67 -8.02 1.34 -7 1 C-4.53721199 -0.231394 -2.7204945 -0.07159196 0 0 Z " fill="#40425E" transform="translate(199,106)"/>
<path d="M0 0 C0.99 0 1.98 0 3 0 C3 0.99 3 1.98 3 3 C3.33 3 3.66 3 4 3 C4.02894547 6.45831586 4.04678 9.91660072 4.0625 13.375 C4.07087891 14.35984375 4.07925781 15.3446875 4.08789062 16.359375 C4.09272461 17.77089844 4.09272461 17.77089844 4.09765625 19.2109375 C4.10551147 20.51490479 4.10551147 20.51490479 4.11352539 21.84521484 C4 24 4 24 3 26 C2.34 26 1.68 26 1 26 C0.67 25.34 0.34 24.68 0 24 C-1.32 24.33 -2.64 24.66 -4 25 C-4 25.66 -4 26.32 -4 27 C-4.66 27 -5.32 27 -6 27 C-6 26.34 -6 25.68 -6 25 C-7.98 25 -9.96 25 -12 25 C-12 24.67 -12 24.34 -12 24 C-9.03 23.67 -6.06 23.34 -3 23 C-3 22.34 -3 21.68 -3 21 C-2.02149805 19.97895449 -1.02019573 18.9793879 0 18 C1.3899408 15.2201184 1.18488204 13.0813674 1 10 C-0.03898745 7.32831798 -0.95674479 6.04325521 -3 4 C-2.34 4 -1.68 4 -1 4 C-0.67 2.68 -0.34 1.36 0 0 Z " fill="#444555" transform="translate(230,145)"/>
<path d="M0 0 C0.33 0.66 0.66 1.32 1 2 C1.99 2 2.98 2 4 2 C4 2.66 4 3.32 4 4 C4.66 4.33 5.32 4.66 6 5 C5.01 5 4.02 5 3 5 C2.87882812 5.67804688 2.75765625 6.35609375 2.6328125 7.0546875 C1.49299238 13.38507309 0.28510307 19.69752644 -1 26 C-2.65 25.01 -4.3 24.02 -6 23 C-5.38334864 17.60607261 -4.12077204 12.71604717 -2.4375 7.5625 C-2.20353516 6.83095703 -1.96957031 6.09941406 -1.72851562 5.34570312 C-1.15732778 3.56219821 -0.57936877 1.78086417 0 0 Z " fill="#EBEEF4" transform="translate(287,280)"/>
<path d="M0 0 C0.7425 0.804375 1.485 1.60875 2.25 2.4375 C4.75304829 4.76988591 5.7180955 5.63534394 9 6 C9.309375 5.38125 9.61875 4.7625 9.9375 4.125 C10.625 2.75 11.3125 1.375 12 0 C12.66 0 13.32 0 14 0 C14 4.29 14 8.58 14 13 C13.67 13 13.34 13 13 13 C13 11.35 13 9.7 13 8 C12.34 8 11.68 8 11 8 C10.67 9.32 10.34 10.64 10 12 C6.7 12 3.4 12 0 12 C0 8.04 0 4.08 0 0 Z " fill="#3E4259" transform="translate(239,156)"/>
<path d="M0 0 C1.32 0 2.64 0 4 0 C4 6.93 4 13.86 4 21 C2.35 21 0.7 21 -1 21 C-3.24243223 18.13896577 -4 16.65923696 -4 13 C-2.68 13 -1.36 13 0 13 C0 8.71 0 4.42 0 0 Z " fill="#F8F9FC" transform="translate(310,107)"/>
<path d="M0 0 C2.31243792 -0.02685412 4.6249627 -0.04632841 6.9375 -0.0625 C8.22527344 -0.07410156 9.51304687 -0.08570312 10.83984375 -0.09765625 C14 0 14 0 15 1 C15.07179964 2.51928038 15.08392007 4.04167482 15.0625 5.5625 C15.05347656 6.38878906 15.04445313 7.21507813 15.03515625 8.06640625 C15.02355469 8.70449219 15.01195312 9.34257813 15 10 C13.109375 10.57421875 13.109375 10.57421875 11 11 C9.25 9.8125 9.25 9.8125 8 8 C8 6.68 8 5.36 8 4 C5.36 4 2.72 4 0 4 C0 2.68 0 1.36 0 0 Z " fill="#3D415D" transform="translate(243,111)"/>
<path d="M0 0 C0.33 0.99 0.66 1.98 1 3 C1.33 2.01 1.66 1.02 2 0 C2.99 0 3.98 0 5 0 C2.66666667 9.33333333 0.33333333 18.66666667 -2 28 C-2.33 28 -2.66 28 -3 28 C-2.95875 27.071875 -2.9175 26.14375 -2.875 25.1875 C-2.72863661 21.84190281 -2.72863661 21.84190281 -5 19 C-4.86328125 17.08984375 -4.86328125 17.08984375 -4.3125 14.9375 C-4.01666016 13.761875 -4.01666016 13.761875 -3.71484375 12.5625 C-2.54098026 8.35455218 -1.30552172 4.16896603 0 0 Z " fill="#EAEDF2" transform="translate(216,240)"/>
<path d="M0 0 C0.598125 0.33 1.19625 0.66 1.8125 1 C4.05386471 2.20787988 4.05386471 2.20787988 7 2 C7.05386629 4.12472576 7.09273071 6.24983652 7.125 8.375 C7.14820313 9.55835938 7.17140625 10.74171875 7.1953125 11.9609375 C7 15 7 15 5 17 C1.46428571 16.46428571 1.46428571 16.46428571 0 15 C-0.07313567 12.46950598 -0.09247527 9.96695163 -0.0625 7.4375 C-0.05798828 6.72658203 -0.05347656 6.01566406 -0.04882812 5.28320312 C-0.03700864 3.52209987 -0.01907263 1.76103964 0 0 Z " fill="#41415C" transform="translate(180,148)"/>
<path d="M0 0 C0.7734375 0.00386719 1.546875 0.00773437 2.34375 0.01171875 C4.5 0.3125 4.5 0.3125 7.5 2.3125 C7.17 3.3025 6.84 4.2925 6.5 5.3125 C3.53 4.9825 0.56 4.6525 -2.5 4.3125 C-2.5 5.6325 -2.5 6.9525 -2.5 8.3125 C-1.18 8.6425 0.14 8.9725 1.5 9.3125 C0.51 9.3125 -0.48 9.3125 -1.5 9.3125 C-1.5 10.3025 -1.5 11.2925 -1.5 12.3125 C-4.36724686 11.73905063 -5.3614515 11.4510485 -7.5 9.3125 C-8.05813135 4.06606535 -8.05813135 4.06606535 -6.26171875 1.640625 C-4.02980362 -0.04197177 -2.76949033 -0.06000562 0 0 Z " fill="#E7EAF0" transform="translate(184.5,106.6875)"/>
<path d="M0 0 C1.65 0 3.3 0 5 0 C5.02690104 2.79173055 5.04679053 5.58320348 5.0625 8.375 C5.07087891 9.1690625 5.07925781 9.963125 5.08789062 10.78125 C5.11328125 16.7734375 5.11328125 16.7734375 4 19 C2.68 18.67 1.36 18.34 0 18 C0 12.06 0 6.12 0 0 Z " fill="#E3E4EB" transform="translate(187,147)"/>
<path d="M0 0 C0.66 0.99 1.32 1.98 2 3 C2.66 2.01 3.32 1.02 4 0 C5.20272819 2.40545638 5.10071472 3.94996953 5.0625 6.625 C5.05347656 7.44226563 5.04445313 8.25953125 5.03515625 9.1015625 C5.02355469 9.72804688 5.01195312 10.35453125 5 11 C4.34 11 3.68 11 3 11 C2.9175 11.78375 2.835 12.5675 2.75 13.375 C2 16 2 16 0 17.125 C-0.66 17.41375 -1.32 17.7025 -2 18 C-2.33 18.99 -2.66 19.98 -3 21 C-3.99 21 -4.98 21 -6 21 C-6 21.99 -6 22.98 -6 24 C-6.66 24 -7.32 24 -8 24 C-8 23.34 -8 22.68 -8 22 C-8.66 21.67 -9.32 21.34 -10 21 C-9.43410156 20.51789063 -8.86820312 20.03578125 -8.28515625 19.5390625 C-7.55167969 18.90742188 -6.81820313 18.27578125 -6.0625 17.625 C-5.33160156 16.99851562 -4.60070312 16.37203125 -3.84765625 15.7265625 C-1.91619094 14.12252286 -1.91619094 14.12252286 -1 12 C-0.34 12 0.32 12 1 12 C0.649375 11.13375 0.29875 10.2675 -0.0625 9.375 C-1.068959 5.75174758 -0.86063519 3.6146678 0 0 Z " fill="#41435E" transform="translate(410,264)"/>
<path d="M0 0 C4.26823714 0.47424857 6.17492731 2.95761403 9 6 C9.598125 6.556875 10.19625 7.11375 10.8125 7.6875 C12 9 12 9 12 11 C12.598125 11.2475 13.19625 11.495 13.8125 11.75 C16.28647521 13.16370012 17.43370255 14.65055383 19 17 C17.02 17.33 15.04 17.66 13 18 C13 17.01 13 16.02 13 15 C12.01 15 11.02 15 10 15 C9.67 13.68 9.34 12.36 9 11 C8.34 11 7.68 11 7 11 C6.67 9.68 6.34 8.36 6 7 C3.69 6.34 1.38 5.68 -1 5 C-0.34 4.34 0.32 3.68 1 3 C0.67 2.01 0.34 1.02 0 0 Z " fill="#444562" transform="translate(154,341)"/>
<path d="M0 0 C-1.32 0 -2.64 0 -4 0 C-4.04898438 0.65226562 -4.09796875 1.30453125 -4.1484375 1.9765625 C-4.57242229 6.93279853 -5.15665573 11.33019451 -7 16 C-9.24662645 13.75337355 -9.50367284 13.06068417 -10 10 C-10 7.66666667 -10 5.33333333 -10 3 C-10.33 2.01 -10.66 1.02 -11 0 C-3.375 -2.25 -3.375 -2.25 0 0 Z " fill="#373953" transform="translate(225,106)"/>
<path d="M0 0 C2 0 4 0 6 0 C6 0.66 6 1.32 6 2 C7.65 2 9.3 2 11 2 C11 2.33 11 2.66 11 3 C9.35 3 7.7 3 6 3 C5.67 4.32 5.34 5.64 5 7 C4.34 7 3.68 7 3 7 C2.34 8.65 1.68 10.3 1 12 C0.34 12 -0.32 12 -1 12 C-3.12046792 8.46588679 -3.53199289 5.05606165 -4 1 C-3.01 1.33 -2.02 1.66 -1 2 C-0.67 1.34 -0.34 0.68 0 0 Z " fill="#464863" transform="translate(246,145)"/>
<path d="M0 0 C0.66 0 1.32 0 2 0 C4.41685712 4.22949995 5.34833144 7.12335991 5 12 C5.66 12 6.32 12 7 12 C6.67 13.32 6.34 14.64 6 16 C2.06326356 14.68775452 -0.22719294 13.08089673 -3 10 C-2.484375 9.443125 -1.96875 8.88625 -1.4375 8.3125 C0.30147658 6.06536407 0.30147658 6.06536407 -0.375 3.3125 C-0.58125 2.549375 -0.7875 1.78625 -1 1 C-0.67 0.67 -0.34 0.34 0 0 Z " fill="#4B4C67" transform="translate(305,320)"/>
<path d="M0 0 C0.99 0 1.98 0 3 0 C7.19717024 6.98950251 7.19717024 6.98950251 6.5 10.5625 C6.005 11.366875 5.51 12.17125 5 13 C4.29026544 14.27005131 3.58199696 15.54092273 2.875 16.8125 C2.25625 17.864375 1.6375 18.91625 1 20 C-0.0625 18.1875 -0.0625 18.1875 -1 16 C-0.67 15.01 -0.34 14.02 0 13 C0.66 13 1.32 13 2 13 C1.67 12.01 1.34 11.02 1 10 C1 8.33333333 1 6.66666667 1 5 C0.70250054 3.32656552 0.37872934 1.65694085 0 0 Z " fill="#EAEEF1" transform="translate(329,304)"/>
<path d="M0 0 C0.66 0.99 1.32 1.98 2 3 C2.99 2.67 3.98 2.34 5 2 C5 5 5 8 5 11 C5.99 11.66 6.98 12.32 8 13 C5.69 13 3.38 13 1 13 C1 12.34 1 11.68 1 11 C0.34 11 -0.32 11 -1 11 C-2.49821059 7.62902617 -3 5.79557881 -3 2 C-2.01 2 -1.02 2 0 2 C0 1.34 0 0.68 0 0 Z " fill="#383D59" transform="translate(300,317)"/>
<path d="M0 0 C0.33 0.99 0.66 1.98 1 3 C1.99 3 2.98 3 4 3 C4 3.66 4 4.32 4 5 C3.34 5 2.68 5 2 5 C2.14148989 6.6045556 2.28835686 8.20863767 2.4375 9.8125 C2.51871094 10.70582031 2.59992188 11.59914063 2.68359375 12.51953125 C2.93489767 15.12743559 2.93489767 15.12743559 4 18 C3.34 18.66 2.68 19.32 2 20 C1 19 1 19 0.9375 15.4375 C0.958125 14.303125 0.97875 13.16875 1 12 C0.01 12.495 0.01 12.495 -1 13 C-1.65772428 16.02934491 -1.65772428 16.02934491 -2 19 C-2.33 19 -2.66 19 -3 19 C-3.22245393 17.39773045 -3.42746669 15.79303233 -3.625 14.1875 C-3.74101562 13.29417969 -3.85703125 12.40085937 -3.9765625 11.48046875 C-4 9 -4 9 -2 6 C-1.29835358 4.01200182 -0.62627128 2.01301483 0 0 Z " fill="#414462" transform="translate(270,107)"/>
<path d="M0 0 C0.33 0 0.66 0 1 0 C1 5.61 1 11.22 1 17 C0.34 17 -0.32 17 -1 17 C-1 15.35 -1 13.7 -1 12 C-4.27773504 12.75150023 -4.27773504 12.75150023 -6 16 C-8.625 16.1875 -8.625 16.1875 -11 16 C-9.68 13.69 -8.36 11.38 -7 9 C-5.68 9 -4.36 9 -3 9 C-2.87625 8.2575 -2.7525 7.515 -2.625 6.75 C-2.04513299 4.19858515 -1.26291261 2.2732427 0 0 Z " fill="#5B5E79" transform="translate(287,152)"/>
<path d="M0 0 C0.33 0.66 0.66 1.32 1 2 C1.66 2 2.32 2 3 2 C2.835 2.495 2.67 2.99 2.5 3.5 C1.30798298 9.46008512 1.75441986 14.38604965 4 20 C2.35 20.33 0.7 20.66 -1 21 C-1.0269501 18.06243881 -1.04681474 15.12512445 -1.0625 12.1875 C-1.07087891 11.35412109 -1.07925781 10.52074219 -1.08789062 9.66210938 C-1.09111328 8.85966797 -1.09433594 8.05722656 -1.09765625 7.23046875 C-1.10289307 6.49207764 -1.10812988 5.75368652 -1.11352539 4.99291992 C-1 3 -1 3 0 0 Z " fill="#3D3E50" transform="translate(259,148)"/>
<path d="M0 0 C0.33 0 0.66 0 1 0 C1 5.94 1 11.88 1 18 C-0.32 18.33 -1.64 18.66 -3 19 C-2.98839844 18.01257813 -2.97679687 17.02515625 -2.96484375 16.0078125 C-2.95582031 14.72648437 -2.94679688 13.44515625 -2.9375 12.125 C-2.92589844 10.84882812 -2.91429687 9.57265625 -2.90234375 8.2578125 C-2.76823431 5.11335348 -2.76823431 5.11335348 -4 3 C-2.68 2.67 -1.36 2.34 0 2 C0 1.34 0 0.68 0 0 Z " fill="#4A4C5D" transform="translate(294,107)"/>
<path d="M0 0 C1 3 1 3 0.375 5.5625 C-1.33177722 8.58815053 -2.73058318 9.05358987 -6 10 C-6.33 9.34 -6.66 8.68 -7 8 C-7.99 8.33 -8.98 8.66 -10 9 C-10 7.35 -10 5.7 -10 4 C-9.195625 3.87625 -8.39125 3.7525 -7.5625 3.625 C-6.716875 3.41875 -5.87125 3.2125 -5 3 C-4.67 2.34 -4.34 1.68 -4 1 C-3.34 1.66 -2.68 2.32 -2 3 C-1.34 2.01 -0.68 1.02 0 0 Z " fill="#383B55" transform="translate(340,320)"/>
<path d="M0 0 C0.66 0 1.32 0 2 0 C2 0.66 2 1.32 2 2 C2.66 2 3.32 2 4 2 C6.42857143 8.28571429 6.42857143 8.28571429 5 12 C4.34 12 3.68 12 3 12 C2.938125 12.78375 2.87625 13.5675 2.8125 14.375 C2.4103125 15.674375 2.4103125 15.674375 2 17 C-0.5625 18.3125 -0.5625 18.3125 -3 19 C-2.74438677 16.6568787 -2.40729228 14.32156597 -2 12 C-1.34 11.67 -0.68 11.34 0 11 C0.71727778 9.35448038 1.38325228 7.68577711 2 6 C2.33 5.34 2.66 4.68 3 4 C2.01 3.67 1.02 3.34 0 3 C0 2.01 0 1.02 0 0 Z " fill="#444867" transform="translate(337,298)"/>
<path d="M0 0 C5.28 0 10.56 0 16 0 C16.33 2.64 16.66 5.28 17 8 C16.34 8 15.68 8 15 8 C15.061875 9.2375 15.12375 10.475 15.1875 11.75 C15.39753022 15.95060434 14.8481846 16.20242053 12 20 C12 15.38 12 10.76 12 6 C12.99 6 13.98 6 15 6 C15 4.35 15 2.7 15 1 C10.05 1 5.1 1 0 1 C0 0.67 0 0.34 0 0 Z " fill="#555472" transform="translate(194,147)"/>
<path d="M0 0 C2 1 2 1 2.703125 2.77734375 C2.88359375 3.49019531 3.0640625 4.20304687 3.25 4.9375 C3.44078125 5.64777344 3.6315625 6.35804687 3.828125 7.08984375 C3.88484375 7.72019531 3.9415625 8.35054687 4 9 C3.34 9.66 2.68 10.32 2 11 C-1.29714793 10.67028521 -2.6226839 10.3773161 -5 8 C-5.125 4.875 -5.125 4.875 -5 2 C-4.34 1.67 -3.68 1.34 -3 1 C-2.67 1.99 -2.34 2.98 -2 4 C-1.34 3.67 -0.68 3.34 0 3 C0 2.01 0 1.02 0 0 Z " fill="#444565" transform="translate(282,113)"/>
<path d="M0 0 C-3 1.5 -3 1.5 -6 3 C-6 4.32 -6 5.64 -6 7 C-6.6252708 9.34476551 -7.2863409 11.68060793 -8 14 C-8.66 13.67 -9.32 13.34 -10 13 C-10 11.35 -10 9.7 -10 8 C-10.99 11.465 -10.99 11.465 -12 15 C-12.33 15 -12.66 15 -13 15 C-13.125 7.25 -13.125 7.25 -12 5 C-11.34 5 -10.68 5 -10 5 C-10 4.34 -10 3.68 -10 3 C-9.34 3 -8.68 3 -8 3 C-8 2.34 -8 1.68 -8 1 C-5.29120665 -0.35439668 -2.99066732 -0.06501451 0 0 Z " fill="#D2D5DD" transform="translate(224,147)"/>
<path d="M0 0 C0.99 0.33 1.98 0.66 3 1 C2.38221953 3.60607392 1.75612789 6.20965697 1.125 8.8125 C0.95097656 9.55048828 0.77695313 10.28847656 0.59765625 11.04882812 C-0.24492511 14.49717037 -1.01285575 17.01928362 -3 20 C-4.03603689 16.89188934 -4.01058664 15.26925549 -3.6875 12.0625 C-3.60886719 11.20785156 -3.53023437 10.35320312 -3.44921875 9.47265625 C-2.99697376 6.9833425 -2.24403709 5.18848973 -1 3 C-0.67 3 -0.34 3 0 3 C0 2.01 0 1.02 0 0 Z " fill="#404158" transform="translate(253,337)"/>
<path d="M0 0 C0.66 0 1.32 0 2 0 C2 4.29 2 8.58 2 13 C1.67 13 1.34 13 1 13 C1 11.35 1 9.7 1 8 C0.34 8 -0.32 8 -1 8 C-1.33 9.32 -1.66 10.64 -2 12 C-3.65 11.67 -5.3 11.34 -7 11 C-5.68 10.67 -4.36 10.34 -3 10 C-3 9.01 -3 8.02 -3 7 C-4.32 6.67 -5.64 6.34 -7 6 C-5.68 6 -4.36 6 -3 6 C-2.690625 5.38125 -2.38125 4.7625 -2.0625 4.125 C-1.375 2.75 -0.6875 1.375 0 0 Z " fill="#54566C" transform="translate(251,156)"/>
<path d="M0 0 C0.33 0 0.66 0 1 0 C1 2.66666667 1 5.33333333 1 8 C1.66 8.66 2.32 9.32 3 10 C2.34 10 1.68 10 1 10 C0.67 11.65 0.34 13.3 0 15 C-1.65 15 -3.3 15 -5 15 C-3.33333333 10 -1.66666667 5 0 0 Z " fill="#E1E2E8" transform="translate(156,154)"/>
<path d="M0 0 C0.99 0 1.98 0 3 0 C3 4.29 3 8.58 3 13 C1.68 13 0.36 13 -1 13 C-1.02686553 11.02090602 -1.04633375 9.04171029 -1.0625 7.0625 C-1.07410156 5.96035156 -1.08570313 4.85820313 -1.09765625 3.72265625 C-1 1 -1 1 0 0 Z " fill="#F9FDFE" transform="translate(296,115)"/>
<path d="M0 0 C2.42130331 2.42130331 2.52840504 3.80111377 3.125 7.125 C3.29257813 8.03507812 3.46015625 8.94515625 3.6328125 9.8828125 C3.81457031 10.93082031 3.81457031 10.93082031 4 12 C3.01 12 2.02 12 1 12 C0.67 12.66 0.34 13.32 0 14 C-0.50512244 12.39743892 -1.00391627 10.79288208 -1.5 9.1875 C-1.7784375 8.29417969 -2.056875 7.40085937 -2.34375 6.48046875 C-3 4 -3 4 -3 1 C-2.01 0.67 -1.02 0.34 0 0 Z " fill="#E5EAEE" transform="translate(213,110)"/>
<path d="M0 0 C0.66 1.32 1.32 2.64 2 4 C2.99 3.67 3.98 3.34 5 3 C4.88637738 4.4800841 4.75877092 5.95910074 4.625 7.4375 C4.55539063 8.26121094 4.48578125 9.08492188 4.4140625 9.93359375 C4.27742187 10.61550781 4.14078125 11.29742187 4 12 C3.01 12.495 3.01 12.495 2 13 C1.34 12.34 0.68 11.68 0 11 C-0.66 11 -1.32 11 -2 11 C-1.34 7.37 -0.68 3.74 0 0 Z " fill="#474C66" transform="translate(210,320)"/>
<path d="M0 0 C7.38461538 -0.49230769 7.38461538 -0.49230769 10.5 2 C10.995 2.66 11.49 3.32 12 4 C11.34 4.66 10.68 5.32 10 6 C7.625 5.6875 7.625 5.6875 5 5 C4.236875 4.814375 3.47375 4.62875 2.6875 4.4375 C2.130625 4.293125 1.57375 4.14875 1 4 C0.67 2.68 0.34 1.36 0 0 Z " fill="#4A4C64" transform="translate(261,248)"/>
<path d="M0 0 C0.99 0.33 1.98 0.66 3 1 C3 4.96 3 8.92 3 13 C1.68 13 0.36 13 -1 13 C-1.02696365 11.20841511 -1.04637917 9.41671527 -1.0625 7.625 C-1.07410156 6.62726563 -1.08570313 5.62953125 -1.09765625 4.6015625 C-1 2 -1 2 0 0 Z " fill="#F9FBFE" transform="translate(254,156)"/>
<path d="M0 0 C6.93 0 13.86 0 21 0 C21 0.33 21 0.66 21 1 C16.71 1 12.42 1 8 1 C8 7.93 8 14.86 8 22 C7.67 22 7.34 22 7 22 C6.93941406 20.81921875 6.87882812 19.6384375 6.81640625 18.421875 C6.73197418 16.8645723 6.64732751 15.30728121 6.5625 13.75 C6.52318359 12.97269531 6.48386719 12.19539062 6.44335938 11.39453125 C6.40146484 10.64042969 6.35957031 9.88632813 6.31640625 9.109375 C6.27974854 8.41811523 6.24309082 7.72685547 6.20532227 7.01464844 C5.99324476 4.93371671 5.55491323 3.01427578 5 1 C3.35 1 1.7 1 0 1 C0 0.67 0 0.34 0 0 Z " fill="#818596" transform="translate(327,147)"/>
<path d="M0 0 C0.33 0.99 0.66 1.98 1 3 C1.66 3 2.32 3 3 3 C3.33 2.01 3.66 1.02 4 0 C5.32 0 6.64 0 8 0 C8 0.99 8 1.98 8 3 C8.33 3.33 8.66 3.66 9 4 C9 4.66 9 5.32 9 6 C6.125 6.625 6.125 6.625 3 7 C2.34 6.34 1.68 5.68 1 5 C0.01 5.495 0.01 5.495 -1 6 C-1 5.34 -1 4.68 -1 4 C-2.98 4 -4.96 4 -7 4 C-7 3.67 -7 3.34 -7 3 C-5.5459375 2.5359375 -5.5459375 2.5359375 -4.0625 2.0625 C-1.15934208 1.30476658 -1.15934208 1.30476658 0 0 Z " fill="#454868" transform="translate(166,144)"/>
<path d="M0 0 C1.65 0 3.3 0 5 0 C5 0.66 5 1.32 5 2 C5.99 2 6.98 2 8 2 C8 1.34 8 0.68 8 0 C10.97 0.495 10.97 0.495 14 1 C14.33 1.99 14.66 2.98 15 4 C14.32453125 3.96519531 13.6490625 3.93039063 12.953125 3.89453125 C12.06109375 3.86746094 11.1690625 3.84039062 10.25 3.8125 C9.36828125 3.77769531 8.4865625 3.74289063 7.578125 3.70703125 C4.55328417 4.05076316 3.24416398 5.00227459 1 7 C1 6.34 1 5.68 1 5 C0.34 5 -0.32 5 -1 5 C-0.67 3.35 -0.34 1.7 0 0 Z " fill="#41435E" transform="translate(261,145)"/>
<path d="M0 0 C0.66 0 1.32 0 2 0 C2 5.28 2 10.56 2 16 C1.01 16 0.02 16 -1 16 C-1.02685095 13.52076199 -1.04676547 11.0418116 -1.0625 8.5625 C-1.07506836 7.50192383 -1.07506836 7.50192383 -1.08789062 6.41992188 C-1.09653588 4.61306441 -1.05220011 2.80612397 -1 1 C-0.67 0.67 -0.34 0.34 0 0 Z " fill="#FBFEFF" transform="translate(262,112)"/>
<path d="M0 0 C1.05016196 3.21612099 0.89796951 5.19919747 0 8.4375 C-0.87356738 11.96671223 -1.14255276 14.45808645 0 18 C-0.66 18 -1.32 18 -2 18 C-2.33 19.65 -2.66 21.3 -3 23 C-3.99 22.34 -4.98 21.68 -6 21 C-4.29977612 13.87352969 -2.42080258 6.9165788 0 0 Z " fill="#626477" transform="translate(206,333)"/>
<path d="M0 0 C1.8874394 3.27156162 2.60106002 6.24996419 3 10 C2.67 10.99 2.34 11.98 2 13 C1.01 13.33 0.02 13.66 -1 14 C-1 13.01 -1 12.02 -1 11 C-1.99 11.66 -2.98 12.32 -4 13 C-3.52343588 11.20763933 -3.04366502 9.41613103 -2.5625 7.625 C-2.29566406 6.62726563 -2.02882812 5.62953125 -1.75390625 4.6015625 C-1 2 -1 2 0 0 Z " fill="#54566C" transform="translate(210,114)"/>
<path d="M0 0 C1.32 0.66 2.64 1.32 4 2 C4 3.32 4 4.64 4 6 C5.32 6.33 6.64 6.66 8 7 C7.01 7 6.02 7 5 7 C5 7.99 5 8.98 5 10 C2.13275314 9.42655063 1.1385485 9.1385485 -1 7 C-1.1875 3.9375 -1.1875 3.9375 -1 1 C-0.67 0.67 -0.34 0.34 0 0 Z " fill="#DBDDE6" transform="translate(178,109)"/>
<path d="M0 0 C2.31 0 4.62 0 7 0 C7 5.94 7 11.88 7 18 C6.34 17.67 5.68 17.34 5 17 C5 12.38 5 7.76 5 3 C4.34 3 3.68 3 3 3 C3 3.66 3 4.32 3 5 C2.01 4.67 1.02 4.34 0 4 C0 2.68 0 1.36 0 0 Z " fill="#D4D6E0" transform="translate(229,107)"/>
<path d="M0 0 C1.65 0 3.3 0 5 0 C5.33 0.99 5.66 1.98 6 3 C6.66 3 7.32 3 8 3 C8 3.66 8 4.32 8 5 C6.35 5.33 4.7 5.66 3 6 C3.99 6.33 4.98 6.66 6 7 C3.36 7 0.72 7 -2 7 C-2.33 5.35 -2.66 3.7 -3 2 C-2.01 2 -1.02 2 0 2 C0 2.66 0 3.32 0 4 C0.66 4 1.32 4 2 4 C1.34 2.68 0.68 1.36 0 0 Z " fill="#333854" transform="translate(249,240)"/>
<path d="M0 0 C1.65 0 3.3 0 5 0 C3.68 0.33 2.36 0.66 1 1 C1 5.29 1 9.58 1 14 C-0.32 14 -1.64 14 -3 14 C-3.33 14.66 -3.66 15.32 -4 16 C-4.66 15.34 -5.32 14.68 -6 14 C-5.625 10.875 -5.625 10.875 -5 8 C-3.68 9.32 -2.36 10.64 -1 12 C-0.67 8.04 -0.34 4.08 0 0 Z " fill="#C0C2CC" transform="translate(309,106)"/>
<path d="M0 0 C4.27124556 0.47458284 6.20508608 2.91842825 9 6 C10.02813611 7.31175986 11.04084432 8.6369893 12 10 C11.01 10 10.02 10 9 10 C8.01 10.495 8.01 10.495 7 11 C6.67 9.68 6.34 8.36 6 7 C3.69 6.34 1.38 5.68 -1 5 C-0.34 4.34 0.32 3.68 1 3 C0.67 2.01 0.34 1.02 0 0 Z " fill="#4F516F" transform="translate(154,341)"/>
<path d="M0 0 C0.99 0 1.98 0 3 0 C2.125 7.875 2.125 7.875 1 9 C-0.99958364 9.04080783 -3.00045254 9.04254356 -5 9 C-5 7.68 -5 6.36 -5 5 C-3.68 4.67 -2.36 4.34 -1 4 C-0.67 2.68 -0.34 1.36 0 0 Z " fill="#EDF2F7" transform="translate(323,160)"/>
<path d="M0 0 C0.33 0 0.66 0 1 0 C1.66 3.3 2.32 6.6 3 10 C2.01 10 1.02 10 0 10 C-0.33 10.66 -0.66 11.32 -1 12 C-2.73745313 9.34271875 -3.00831972 8.10399645 -2.75 4.875 C-2 2 -2 2 0 0 Z " fill="#41425D" transform="translate(174,157)"/>
<path d="M0 0 C1.76462683 3.08809695 2 4.23312136 2 8 C2.66 8.33 3.32 8.66 4 9 C3.49396008 11.16874252 3.00016187 12.99967627 2 15 C-0.125 13.6875 -0.125 13.6875 -2 11 C-1.75051478 7.23060379 -0.93254694 3.65457584 0 0 Z " fill="#E0E5E7" transform="translate(237,408)"/>
<path d="M0 0 C0.66 0.33 1.32 0.66 2 1 C0.68 3.64 -0.64 6.28 -2 9 C-2.99 9 -3.98 9 -5 9 C-5 9.99 -5 10.98 -5 12 C-5.66 12 -6.32 12 -7 12 C-7 11.34 -7 10.68 -7 10 C-7.66 9.67 -8.32 9.34 -9 9 C-8.43410156 8.51789063 -7.86820312 8.03578125 -7.28515625 7.5390625 C-6.55167969 6.90742188 -5.81820313 6.27578125 -5.0625 5.625 C-4.33160156 4.99851562 -3.60070312 4.37203125 -2.84765625 3.7265625 C-0.91619094 2.12252286 -0.91619094 2.12252286 0 0 Z " fill="#515267" transform="translate(409,276)"/>
<path d="M0 0 C0.66 0.99 1.32 1.98 2 3 C0.02 5.64 -1.96 8.28 -4 11 C-4.89694794 7.41220825 -5.08304117 4.65381163 -5 1 C-3.68 1 -2.36 1 -1 1 C-0.67 0.67 -0.34 0.34 0 0 Z " fill="#41455F" transform="translate(119,226)"/>
<path d="M0 0 C2.39036607 3.5855491 3 6.7085077 3 11 C4.98 11 6.96 11 9 11 C9 11.99 9 12.98 9 14 C2.25 13.25 2.25 13.25 0 11 C-0.44921875 8.65234375 -0.44921875 8.65234375 -0.6875 5.9375 C-0.77386719 5.03902344 -0.86023438 4.14054688 -0.94921875 3.21484375 C-0.96597656 2.48394531 -0.98273438 1.75304687 -1 1 C-0.67 0.67 -0.34 0.34 0 0 Z " fill="#323757" transform="translate(147,160)"/>
<path d="M0 0 C3.96 0 7.92 0 12 0 C12.33 0.99 12.66 1.98 13 3 C12.34 3 11.68 3 11 3 C11 2.34 11 1.68 11 1 C10.01 1 9.02 1 8 1 C8 1.99 8 2.98 8 4 C5.36 4 2.72 4 0 4 C0 2.68 0 1.36 0 0 Z " fill="#515464" transform="translate(243,111)"/>
<path d="M0 0 C0.66 0 1.32 0 2 0 C2 0.66 2 1.32 2 2 C2.99 2.33 3.98 2.66 5 3 C4.34 4.65 3.68 6.3 3 8 C5.31 8.33 7.62 8.66 10 9 C10 9.33 10 9.66 10 10 C7.36 10.33 4.72 10.66 2 11 C1.34 10.01 0.68 9.02 0 8 C0.66 8 1.32 8 2 8 C1.34 5.36 0.68 2.72 0 0 Z " fill="#3D425C" transform="translate(148,161)"/>
<path d="M0 0 C2.25998595 3.59462331 2.20868087 6.56595675 2.125 10.75 C2.10695313 11.92046875 2.08890625 13.0909375 2.0703125 14.296875 C2.03550781 15.63492188 2.03550781 15.63492188 2 17 C-0.14971323 15.27457227 -0.93849591 14.43858273 -1.328125 11.66015625 C-1.30234375 10.80292969 -1.2765625 9.94570312 -1.25 9.0625 C-1.23453125 8.20785156 -1.2190625 7.35320312 -1.203125 6.47265625 C-1.01658587 4.20190102 -0.62855941 2.18475086 0 0 Z " fill="#3F4158" transform="translate(299,148)"/>
<path d="M0 0 C0 6 0 6 -2.1875 8.6875 C-5 11 -5 11 -7.8125 11.3125 C-8.534375 11.209375 -9.25625 11.10625 -10 11 C-6.79239749 7.19364503 -3.59253891 3.45436433 0 0 Z " fill="#4F5269" transform="translate(300,383)"/>
<path d="M0 0 C0.66 0.33 1.32 0.66 2 1 C0.75 3.5 0.75 3.5 -1 6 C-2.32 6 -3.64 6 -5 6 C-4.67 7.32 -4.34 8.64 -4 10 C-5.32 10.33 -6.64 10.66 -8 11 C-7.9375 7.75 -7.9375 7.75 -7 4 C-4.75836518 1.99491961 -2.83646314 1.19430027 0 0 Z " fill="#D8DBE2" transform="translate(264,327)"/>
<path d="M0 0 C2.64 0 5.28 0 8 0 C7.67 1.32 7.34 2.64 7 4 C1.06 4 -4.88 4 -11 4 C-11 3.67 -11 3.34 -11 3 C-5.555 2.505 -5.555 2.505 0 2 C0 1.34 0 0.68 0 0 Z " fill="#CDD1D6" transform="translate(321,324)"/>
<path d="M0 0 C2.475 0.99 2.475 0.99 5 2 C4.25 9.75 4.25 9.75 2 12 C0.16308743 8.21812119 -0.15837626 6.05431692 1 2 C0.34 1.67 -0.32 1.34 -1 1 C-0.67 0.67 -0.34 0.34 0 0 Z " fill="#474860" transform="translate(211,238)"/>
<path d="M0 0 C1 3 1 3 0.0625 5.1875 C-0.288125 5.785625 -0.63875 6.38375 -1 7 C-1.66 7 -2.32 7 -3 7 C-3 7.66 -3 8.32 -3 9 C-4.32 8.67 -5.64 8.34 -7 8 C-7.66 9.32 -8.32 10.64 -9 12 C-9.33 11.34 -9.66 10.68 -10 10 C-6.66666667 6.66666667 -3.33333333 3.33333333 0 0 Z " fill="#525268" transform="translate(377,308)"/>
<path d="M0 0 C3.3 0 6.6 0 10 0 C10.66 1.32 11.32 2.64 12 4 C8.01803543 5.05404945 5.01804691 4.84098656 1 4 C1.33 3.34 1.66 2.68 2 2 C1.34 1.34 0.68 0.68 0 0 Z " fill="#595B70" transform="translate(277,259)"/>
<path d="M0 0 C-0.66 0.66 -1.32 1.32 -2 2 C-2 2.99 -2 3.98 -2 5 C-2.66 5 -3.32 5 -4 5 C-4.66 4.34 -5.32 3.68 -6 3 C-6.78375 3.495 -7.5675 3.99 -8.375 4.5 C-11 6 -11 6 -13 6 C-13 4.35 -13 2.7 -13 1 C-12.34 1.66 -11.68 2.32 -11 3 C-10.67 2.505 -10.34 2.01 -10 1.5 C-6.82427253 -0.88179561 -3.89753934 -0.19168226 0 0 Z " fill="#484B62" transform="translate(253,239)"/>
<path d="M0 0 C0.70640625 0.05220703 1.4128125 0.10441406 2.140625 0.15820312 C3.88579987 0.28791207 5.63045725 0.42454954 7.375 0.5625 C7.375 0.8925 7.375 1.2225 7.375 1.5625 C4.075 1.5625 0.775 1.5625 -2.625 1.5625 C-2.625 2.5525 -2.625 3.5425 -2.625 4.5625 C-7.375 3.6875 -7.375 3.6875 -9.625 2.5625 C-9.625 1.9025 -9.625 1.2425 -9.625 0.5625 C-6.5270403 -0.98647985 -3.36283448 -0.26989539 0 0 Z " fill="#51536A" transform="translate(169.625,203.4375)"/>
<path d="M0 0 C0.66 0 1.32 0 2 0 C2 0.66 2 1.32 2 2 C2.66 2 3.32 2 4 2 C4 4.64 4 7.28 4 10 C4.99 10.33 5.98 10.66 7 11 C2.25 10.125 2.25 10.125 0 9 C0 6.03 0 3.06 0 0 Z " fill="#525669" transform="translate(265,154)"/>
<path d="M0 0 C1.66285211 3.32570422 -0.01920148 6.68360945 -0.9375 10.125 C-1.13279297 10.87910156 -1.32808594 11.63320313 -1.52929688 12.41015625 C-2.01323358 14.27508306 -2.50580769 16.13776459 -3 18 C-5 15 -5 15 -5 13 C-4.34 13 -3.68 13 -3 13 C-3.2475 11.96875 -3.495 10.9375 -3.75 9.875 C-4.05306524 5.17748885 -2.89158993 3.59258142 0 0 Z " fill="#4A4C60" transform="translate(239,398)"/>
<path d="M0 0 C0.66 0.99 1.32 1.98 2 3 C1.21625 3.9075 0.4325 4.815 -0.375 5.75 C-2.30052496 8.05190236 -3.82205741 10.21577207 -5 13 C-6.65 12.67 -8.3 12.34 -10 12 C-8.71034824 10.62437146 -7.37310707 9.29233607 -6 8 C-5.34 8 -4.68 8 -4 8 C-3.67 7.01 -3.34 6.02 -3 5 C-2.34 5 -1.68 5 -1 5 C-0.67 3.35 -0.34 1.7 0 0 Z " fill="#D5D8E0" transform="translate(340,323)"/>
<path d="M0 0 C1.98 0.495 1.98 0.495 4 1 C4 3.97 4 6.94 4 10 C2.35 9.01 0.7 8.02 -1 7 C-0.67 4.69 -0.34 2.38 0 0 Z " fill="#E2E5E9" transform="translate(282,296)"/>
<path d="M0 0 C1.65 0 3.3 0 5 0 C4.25 7.625 4.25 7.625 2 11 C0 3.375 0 3.375 0 0 Z " fill="#DDE1E6" transform="translate(195,107)"/>
<path d="M0 0 C1.65 0 3.3 0 5 0 C4.49287967 3.71888239 3.88391785 6.73454239 2 10 C2 9.34 2 8.68 2 8 C1.01 7.67 0.02 7.34 -1 7 C-0.67 4.69 -0.34 2.38 0 0 Z " fill="#343656" transform="translate(335,302)"/>
<path d="M0 0 C2.31 0.33 4.62 0.66 7 1 C5 4 5 4 2.4375 4.5625 C1.633125 4.706875 0.82875 4.85125 0 5 C-0.33 5.66 -0.66 6.32 -1 7 C-1 6.01 -1 5.02 -1 4 C-2.32 4 -3.64 4 -5 4 C-5.33 4.66 -5.66 5.32 -6 6 C-5.67 4.68 -5.34 3.36 -5 2 C-3.35 2 -1.7 2 0 2 C0 1.34 0 0.68 0 0 Z " fill="#343752" transform="translate(254,169)"/>
<path d="M0 0 C1.40907283 2.81814566 0.50872691 4.17277204 -0.4375 7.125 C-0.72496094 8.03507812 -1.01242188 8.94515625 -1.30859375 9.8828125 C-1.53675781 10.58148438 -1.76492187 11.28015625 -2 12 C-4.5654594 9.4345406 -4.54046087 7.52313332 -5 4 C-4.34 4 -3.68 4 -3 4 C-2.67 3.01 -2.34 2.02 -2 1 C-1.34 0.67 -0.68 0.34 0 0 Z " fill="#54586D" transform="translate(220,110)"/>
<path d="M0 0 C-1.32 0.33 -2.64 0.66 -4 1 C-3.67 3.31 -3.34 5.62 -3 8 C-3.66 7.34 -4.32 6.68 -5 6 C-5.66 6.66 -6.32 7.32 -7 8 C-8.32 7.34 -9.64 6.68 -11 6 C-10.01 5.67 -9.02 5.34 -8 5 C-7.67 4.34 -7.34 3.68 -7 3 C-7.99 2.67 -8.98 2.34 -10 2 C-9.01 1.67 -8.02 1.34 -7 1 C-4.53721199 -0.231394 -2.7204945 -0.07159196 0 0 Z " fill="#565770" transform="translate(199,106)"/>
<path d="M0 0 C0 4.26410686 -2.33320143 5.79984172 -5 9 C-5 9.99 -5 10.98 -5 12 C-5.66 12 -6.32 12 -7 12 C-7 11.34 -7 10.68 -7 10 C-7.66 10 -8.32 10 -9 10 C-9 10.66 -9 11.32 -9 12 C-9.99 11.67 -10.98 11.34 -12 11 C-8.04 7.37 -4.08 3.74 0 0 Z " fill="#555A6C" transform="translate(332,352)"/>
<path d="M0 0 C3.14737182 0.69941596 6.02588876 1.76078698 9 3 C8 4.5625 8 4.5625 6 6 C3.23385218 5.96726452 0.73969453 5.49404328 -2 5 C-1.34 3.35 -0.68 1.7 0 0 Z " fill="#353A55" transform="translate(298,290)"/>
<path d="M0 0 C0.33 0.66 0.66 1.32 1 2 C-0.3125 4 -0.3125 4 -2 6 C-2.99 6 -3.98 6 -5 6 C-5 6.66 -5 7.32 -5 8 C-5.66 8 -6.32 8 -7 8 C-7 7.34 -7 6.68 -7 6 C-8.98 6 -10.96 6 -13 6 C-13 5.67 -13 5.34 -13 5 C-8.545 4.505 -8.545 4.505 -4 4 C-4 3.34 -4 2.68 -4 2 C-2.68 1.34 -1.36 0.68 0 0 Z " fill="#515469" transform="translate(231,164)"/>
<path d="M0 0 C0.99 0 1.98 0 3 0 C3 0.99 3 1.98 3 3 C3.226875 3.66 3.45375 4.32 3.6875 5 C3.790625 5.66 3.89375 6.32 4 7 C2.5625 8.75 2.5625 8.75 1 10 C0.71125 9.38125 0.4225 8.7625 0.125 8.125 C-0.93720042 5.86674235 -0.93720042 5.86674235 -3 4 C-2.34 4 -1.68 4 -1 4 C-0.67 2.68 -0.34 1.36 0 0 Z " fill="#494A66" transform="translate(230,145)"/>
<path d="M0 0 C2.31 0.33 4.62 0.66 7 1 C7 2.32 7 3.64 7 5 C1.46153846 5.36923077 1.46153846 5.36923077 -0.875 3.5 C-1.24625 3.005 -1.6175 2.51 -2 2 C-1.34 2 -0.68 2 0 2 C0 1.34 0 0.68 0 0 Z " fill="#555862" transform="translate(181,119)"/>
<path d="M0 0 C0.99 0 1.98 0 3 0 C3 0.99 3 1.98 3 3 C3.99 3.33 4.98 3.66 6 4 C5.21625 4.309375 4.4325 4.61875 3.625 4.9375 C1.07669872 5.92875038 1.07669872 5.92875038 -1 7 C-1 6.34 -1 5.68 -1 5 C-1.66 5 -2.32 5 -3 5 C-1.125 1.125 -1.125 1.125 0 0 Z M-5 5 C-4.01 5.495 -4.01 5.495 -3 6 C-3.99 6.495 -3.99 6.495 -5 7 C-5 6.34 -5 5.68 -5 5 Z " fill="#E5E8EC" transform="translate(277,107)"/>
<path d="M0 0 C1.8258428 1.8258428 2.82300078 3.2754995 4.0625 5.5 C4.40410156 6.1084375 4.74570313 6.716875 5.09765625 7.34375 C5.7549272 8.5501694 6.38559738 9.77119477 7 11 C5.68 11.33 4.36 11.66 3 12 C0.58314288 7.77050005 -0.34833144 4.87664009 0 0 Z " fill="#D3D6DD" transform="translate(193,280)"/>
<path d="M0 0 C0 2.74047048 -0.14424028 5.39566948 -0.375 8.125 C-0.44460937 9.01445312 -0.51421875 9.90390625 -0.5859375 10.8203125 C-0.79089844 11.89925781 -0.79089844 11.89925781 -1 13 C-1.99 13.495 -1.99 13.495 -3 14 C-4.43304064 11.13391871 -4.30644155 9.18699217 -4 6 C-2 2.625 -2 2.625 0 0 Z " fill="#606172" transform="translate(197,268)"/>
<path d="M0 0 C1.5625 1.125 1.5625 1.125 3 3 C2.6875 6.1875 2.6875 6.1875 2 9 C1.67 7.68 1.34 6.36 1 5 C0.34 5 -0.32 5 -1 5 C-1 5.66 -1 6.32 -1 7 C-1.99 7 -2.98 7 -4 7 C-4.33 5.35 -4.66 3.7 -5 2 C-3.68 2.33 -2.36 2.66 -1 3 C-0.67 2.01 -0.34 1.02 0 0 Z " fill="#323557" transform="translate(208,250)"/>
<path d="M0 0 C2.475 0.99 2.475 0.99 5 2 C5.33 4.31 5.66 6.62 6 9 C5.01 9 4.02 9 3 9 C0.8125 6 0.8125 6 -1 3 C-0.67 2.67 -0.34 2.34 0 2 C0 1.34 0 0.68 0 0 Z " fill="#4E4D60" transform="translate(277,146)"/>
<path d="M0 0 C2.97 0 5.94 0 9 0 C9.33 1.32 9.66 2.64 10 4 C8.35 3.67 6.7 3.34 5 3 C5 2.34 5 1.68 5 1 C4.01 1 3.02 1 2 1 C2 1.66 2 2.32 2 3 C2.66 3.33 3.32 3.66 4 4 C2.68 4 1.36 4 0 4 C0 2.68 0 1.36 0 0 Z " fill="#373950" transform="translate(244,119)"/>
<path d="M0 0 C1.98 0.495 1.98 0.495 4 1 C4 3.97 4 6.94 4 10 C1.4375 7.8125 1.4375 7.8125 -1 5 C-0.8125 2.1875 -0.8125 2.1875 0 0 Z " fill="#424356" transform="translate(305,109)"/>
<path d="M0 0 C0.77772405 2.33317216 1.42415568 4.61435923 2 7 C0.68 7.33 -0.64 7.66 -2 8 C-2 8.99 -2 9.98 -2 11 C-2.66 11 -3.32 11 -4 11 C-3.67 9.35 -3.34 7.7 -3 6 C-3.66 5.67 -4.32 5.34 -5 5 C-5 4.34 -5 3.68 -5 3 C-2.5 1.375 -2.5 1.375 0 0 Z " fill="#494D6D" transform="translate(253,429)"/>
<path d="M0 0 C1.32 0 2.64 0 4 0 C2.50163895 3.11198065 0.80066242 6.0534615 -1 9 C-1.66 8.01 -2.32 7.02 -3 6 C-1.65517241 1.65517241 -1.65517241 1.65517241 0 0 Z " fill="#454960" transform="translate(108,240)"/>
<path d="M0 0 C0.33 0 0.66 0 1 0 C0.95875 0.928125 0.9175 1.85625 0.875 2.8125 C0.72863661 6.15809719 0.72863661 6.15809719 3 9 C1.02 9.99 1.02 9.99 -1 11 C-2.50662097 7.98675805 -2.17770373 5.31713623 -2 2 C-1.34 1.34 -0.68 0.68 0 0 Z " fill="#F4F7F9" transform="translate(214,154)"/>
<path d="M0 0 C1.0625 1.8125 1.0625 1.8125 2 4 C1 7 1 7 -1 10 C-1.99 10 -2.98 10 -4 10 C-4.33 10.99 -4.66 11.98 -5 13 C-4.39254603 8.14036821 -2.27241033 4.2594482 0 0 Z " fill="#323552" transform="translate(196,118)"/>
<path d="M0 0 C7.66742597 5.0022779 7.66742597 5.0022779 9 9 C8.01 9.33 7.02 9.66 6 10 C2.46413986 6.82679218 0.41421969 4.83256305 0 0 Z " fill="#46465F" transform="translate(105,292)"/>
<path d="M0 0 C3 3 3 3 3.1875 6.6875 C3.125625 7.780625 3.06375 8.87375 3 10 C1.68 10.33 0.36 10.66 -1 11 C-0.67 7.37 -0.34 3.74 0 0 Z " fill="#454A60" transform="translate(178,214)"/>
<path d="M0 0 C0.66 0 1.32 0 2 0 C1.67 2.97 1.34 5.94 1 9 C0.01 9.33 -0.98 9.66 -2 10 C-1.85950482 8.52031676 -1.71245174 7.04125484 -1.5625 5.5625 C-1.48128906 4.73878906 -1.40007812 3.91507813 -1.31640625 3.06640625 C-1 1 -1 1 0 0 Z " fill="#F8F9FD" transform="translate(263,151)"/>
<path d="M0 0 C1.65 0 3.3 0 5 0 C3.55922954 3.36179774 1.75249979 5.59156268 -1 8 C-1.66 8 -2.32 8 -3 8 C-1.125 2.25 -1.125 2.25 0 0 Z " fill="#DDE3EA" transform="translate(327,148)"/>
<path d="M0 0 C2.125 0.375 2.125 0.375 4 1 C3.67 1.66 3.34 2.32 3 3 C3.99 2.67 4.98 2.34 6 2 C6.99 3.32 7.98 4.64 9 6 C8.01 6.495 8.01 6.495 7 7 C4.8359375 6.00390625 4.8359375 6.00390625 2.375 4.5625 C1.55773437 4.08941406 0.74046875 3.61632812 -0.1015625 3.12890625 C-0.72804687 2.75636719 -1.35453125 2.38382813 -2 2 C-1.34 1.34 -0.68 0.68 0 0 Z " fill="#4B4F62" transform="translate(194,249)"/>
<path d="M0 0 C-0.33 0.99 -0.66 1.98 -1 3 C-1.99 3 -2.98 3 -4 3 C-4.33 4.32 -4.66 5.64 -5 7 C-5.99 7 -6.98 7 -8 7 C-8 5.02 -8 3.04 -8 1 C-2.25 -1.125 -2.25 -1.125 0 0 Z " fill="#333856" transform="translate(162,237)"/>
<path d="M0 0 C1.32 0 2.64 0 4 0 C5.2077558 3.62326739 4.54311128 4.64146369 3 8 C2.34 8 1.68 8 1 8 C0.34 6.35 -0.32 4.7 -1 3 C-0.34 3 0.32 3 1 3 C0.67 2.01 0.34 1.02 0 0 Z " fill="#4D5068" transform="translate(329,296)"/>
<path d="M0 0 C1.4370809 -0.05422947 2.87475462 -0.09289723 4.3125 -0.125 C5.11300781 -0.14820313 5.91351563 -0.17140625 6.73828125 -0.1953125 C10.11613046 0.09638432 12.21648798 2.14432532 15 4 C15 4.66 15 5.32 15 6 C14.01 6 13.02 6 12 6 C12 5.34 12 4.68 12 4 C10.35 3.67 8.7 3.34 7 3 C7 2.34 7 1.68 7 1 C4.69 1 2.38 1 0 1 C0 0.67 0 0.34 0 0 Z " fill="#575973" transform="translate(314,288)"/>
<path d="M0 0 C1.32 0.33 2.64 0.66 4 1 C3.67 1.99 3.34 2.98 3 4 C2.77548542 6.22574335 2.59217122 8.45581519 2.4375 10.6875 C2.35371094 11.86699219 2.26992188 13.04648438 2.18359375 14.26171875 C2.12300781 15.16535156 2.06242187 16.06898438 2 17 C1.67 17 1.34 17 1 17 C0.67 11.39 0.34 5.78 0 0 Z " fill="#C6C8D0" transform="translate(300,148)"/>
<path d="M0 0 C1.98 1.65 3.96 3.3 6 5 C5.34 5.66 4.68 6.32 4 7 C2.68 7 1.36 7 0 7 C-0.66 5.68 -1.32 4.36 -2 3 C-1.34 2.67 -0.68 2.34 0 2 C0 1.34 0 0.68 0 0 Z " fill="#494962" transform="translate(131,317)"/>
<path d="M0 0 C0 0.66 0 1.32 0 2 C-4.91358857 2.89337974 -9.14407429 3.38740735 -14 2 C-4.58997722 -1.62870159 -4.58997722 -1.62870159 0 0 Z " fill="#D3D4DD" transform="translate(190,249)"/>
<path d="M0 0 C1.9375 0.5625 1.9375 0.5625 4 2 C4.75 5.625 4.75 5.625 5 9 C4.34 8.34 3.68 7.68 3 7 C2.01 7.495 2.01 7.495 1 8 C1 7.34 1 6.68 1 6 C0.01 6 -0.98 6 -2 6 C-1.67 5.34 -1.34 4.68 -1 4 C-0.34 4 0.32 4 1 4 C0.34 3.34 -0.32 2.68 -1 2 C-0.67 1.34 -0.34 0.68 0 0 Z " fill="#4C4F69" transform="translate(254,240)"/>
<path d="M0 0 C0.66 1.32 1.32 2.64 2 4 C2.66 4 3.32 4 4 4 C4.33 3.34 4.66 2.68 5 2 C4.67 3.65 4.34 5.3 4 7 C2.35 7.33 0.7 7.66 -1 8 C-1.33 7.01 -1.66 6.02 -2 5 C-1.34 5 -0.68 5 0 5 C0 3.35 0 1.7 0 0 Z " fill="#E3E5E2" transform="translate(318,158)"/>
<path d="M0 0 C1.52519276 0.08937803 3.04681929 0.24537146 4.5625 0.4375 C5.80193359 0.59025391 5.80193359 0.59025391 7.06640625 0.74609375 C7.70449219 0.82988281 8.34257812 0.91367188 9 1 C9.33 1.99 9.66 2.98 10 4 C3.6 4.36923077 3.6 4.36923077 0.5625 2.5 C0.046875 2.005 -0.46875 1.51 -1 1 C-0.67 0.67 -0.34 0.34 0 0 Z " fill="#F9F9FD" transform="translate(156,160)"/>
<path d="M0 0 C0.99 0.33 1.98 0.66 3 1 C3 3.31 3 5.62 3 8 C2.01 7.67 1.02 7.34 0 7 C-0.38133299 5.0085944 -0.71325582 3.00720923 -1 1 C-0.67 0.67 -0.34 0.34 0 0 Z " fill="#EEF1F2" transform="translate(315,155)"/>
<path d="M0 0 C2.47524576 2.90572328 3.69670231 5.15822926 4 9 C3.34 9.66 2.68 10.32 2 11 C0 9 0 9 -0.1953125 6.8359375 C-0.17210937 6.02382812 -0.14890625 5.21171875 -0.125 4.375 C-0.10695313 3.55773437 -0.08890625 2.74046875 -0.0703125 1.8984375 C-0.04710937 1.27195313 -0.02390625 0.64546875 0 0 Z " fill="#4C4D63" transform="translate(310,150)"/>
<path d="M0 0 C0 0.33 0 0.66 0 1 C-1.65 1 -3.3 1 -5 1 C-5.33 2.32 -5.66 3.64 -6 5 C-6.66 5 -7.32 5 -8 5 C-8 3.68 -8 2.36 -8 1 C-10.31 1 -12.62 1 -15 1 C-15 0.67 -15 0.34 -15 0 C-9.76528314 -0.75612577 -5.22745859 -1.2063366 0 0 Z " fill="#6D6D83" transform="translate(315,147)"/>
<path d="M0 0 C0.33 1.32 0.66 2.64 1 4 C1.66 4 2.32 4 3 4 C3.33 5.32 3.66 6.64 4 8 C3.34 7.67 2.68 7.34 2 7 C2 6.34 2 5.68 2 5 C1.34 5 0.68 5 0 5 C0 5.66 0 6.32 0 7 C-0.66 7 -1.32 7 -2 7 C-2 6.34 -2 5.68 -2 5 C-2.66 4.67 -3.32 4.34 -4 4 C-2.68 2.68 -1.36 1.36 0 0 Z " fill="#444964" transform="translate(284,399)"/>
<path d="M0 0 C5.875 3.75 5.875 3.75 7 6 C5.68 6.33 4.36 6.66 3 7 C1.68 5.35 0.36 3.7 -1 2 C-0.67 1.34 -0.34 0.68 0 0 Z " fill="#E7EAF1" transform="translate(201,293)"/>
<path d="M0 0 C0.99 0 1.98 0 3 0 C3 0.66 3 1.32 3 2 C3.99 2 4.98 2 6 2 C6.33 3.65 6.66 5.3 7 7 C6.34 7 5.68 7 5 7 C5 6.34 5 5.68 5 5 C3.35 5 1.7 5 0 5 C0 3.35 0 1.7 0 0 Z " fill="#353A56" transform="translate(323,292)"/>
<path d="M0 0 C0.33 1.32 0.66 2.64 1 4 C-0.6875 6.3125 -0.6875 6.3125 -3 8 C-4.32 7.67 -5.64 7.34 -7 7 C-4.69 4.69 -2.38 2.38 0 0 Z " fill="#57596C" transform="translate(398,287)"/>
<path d="M0 0 C1.32 0 2.64 0 4 0 C3.67 1.32 3.34 2.64 3 4 C2.34 4 1.68 4 1 4 C0.34 5.65 -0.32 7.3 -1 9 C-1.33 9 -1.66 9 -2 9 C-2.20140476 5.37471432 -1.85776765 3.13498292 0 0 Z " fill="#4A4C62" transform="translate(145,188)"/>
<path d="M0 0 C1.32 0 2.64 0 4 0 C4 1.65 4 3.3 4 5 C3.01 5.495 3.01 5.495 2 6 C0.86649466 8.01669827 0.86649466 8.01669827 0 10 C-0.95024979 6.30458414 -0.95024979 3.69541586 0 0 Z " fill="#41465F" transform="translate(170,152)"/>
<path d="M0 0 C0.99 0.66 1.98 1.32 3 2 C2.67 3.65 2.34 5.3 2 7 C1.34 6.67 0.68 6.34 0 6 C-0.99 6.99 -1.98 7.98 -3 9 C-2.01 6.03 -1.02 3.06 0 0 Z " fill="#4B4E6C" transform="translate(340,315)"/>
<path d="M0 0 C2.00401848 1.25251155 3.4882057 2.43584684 5 4.25 C5 4.91 5 5.57 5 6.25 C4.34 6.25 3.68 6.25 3 6.25 C3 5.59 3 4.93 3 4.25 C2.05125 3.96125 1.1025 3.6725 0.125 3.375 C-3 2.25 -3 2.25 -5 0.25 C-2 -0.75 -2 -0.75 0 0 Z " fill="#353751" transform="translate(120,306.75)"/>
<path d="M0 0 C0.33 0.99 0.66 1.98 1 3 C1.66 3 2.32 3 3 3 C3.22036864 6.85645121 2.60355101 9.49223216 1 13 C0.67 13 0.34 13 0 13 C0 8.71 0 4.42 0 0 Z " fill="#47465A" transform="translate(306,152)"/>
<path d="M0 0 C0.66 0 1.32 0 2 0 C1.67 2.31 1.34 4.62 1 7 C0.01 7.33 -0.98 7.66 -2 8 C-2.125 5.125 -2.125 5.125 -2 2 C-1.34 1.34 -0.68 0.68 0 0 Z " fill="#FAFBFB" transform="translate(274,112)"/>
<path d="M0 0 C1.98 0 3.96 0 6 0 C6 0.66 6 1.32 6 2 C6.66 2.33 7.32 2.66 8 3 C5.36 3.33 2.72 3.66 0 4 C0 2.68 0 1.36 0 0 Z " fill="#4F505E" transform="translate(182,111)"/>
<path d="M0 0 C1.32 0.99 2.64 1.98 4 3 C3 5 3 5 -0.0625 6.125 C-1.031875 6.41375 -2.00125 6.7025 -3 7 C-1.125 2.25 -1.125 2.25 0 0 Z " fill="#4B4F69" transform="translate(333,317)"/>
<path d="M0 0 C0.66 0 1.32 0 2 0 C2 0.66 2 1.32 2 2 C2.66 2 3.32 2 4 2 C6.42857143 8.28571429 6.42857143 8.28571429 5 12 C5 11.01 5 10.02 5 9 C4.34 9 3.68 9 3 9 C3 7.35 3 5.7 3 4 C2.01 3.67 1.02 3.34 0 3 C0 2.01 0 1.02 0 0 Z " fill="#505069" transform="translate(337,298)"/>
<path d="M0 0 C0.90105469 0.19464844 1.80210937 0.38929688 2.73046875 0.58984375 C3.41753906 0.74582031 4.10460937 0.90179688 4.8125 1.0625 C4.8125 1.3925 4.8125 1.7225 4.8125 2.0625 C1.5125 2.0625 -1.7875 2.0625 -5.1875 2.0625 C-5.1875 2.7225 -5.1875 3.3825 -5.1875 4.0625 C-5.8475 4.0625 -6.5075 4.0625 -7.1875 4.0625 C-7.5175 2.7425 -7.8475 1.4225 -8.1875 0.0625 C-4.80475734 -1.06508089 -3.41971777 -0.75500262 0 0 Z " fill="#353B52" transform="translate(315.1875,294.9375)"/>
<path d="M0 0 C0.99 2.97 1.98 5.94 3 9 C-3.875 3.25 -3.875 3.25 -5 1 C-2 0 -2 0 0 0 Z " fill="#505468" transform="translate(207,292)"/>
<path d="M0 0 C2 0 2 0 3.625 1.375 C5 3 5 3 5 5 C4.401875 5.144375 3.80375 5.28875 3.1875 5.4375 C1.43849596 5.8872439 -0.28677023 6.42892341 -2 7 C-2.33 6.01 -2.66 5.02 -3 4 C-2.34 3.34 -1.68 2.68 -1 2 C-1 2.66 -1 3.32 -1 4 C-0.34 4 0.32 4 1 4 C0.67 2.68 0.34 1.36 0 0 Z " fill="#323656" transform="translate(194,169)"/>
<path d="M0 0 C0.99 0.33 1.98 0.66 3 1 C2.67 2.98 2.34 4.96 2 7 C0.02 7 -1.96 7 -4 7 C-2.68 4.69 -1.36 2.38 0 0 Z " fill="#4C4E66" transform="translate(280,161)"/>
<path d="M0 0 C2.875 -0.1875 2.875 -0.1875 6 0 C6.66 0.99 7.32 1.98 8 3 C7.34 4.32 6.68 5.64 6 7 C4.29159719 5.36587557 3.06546953 4.13093906 2 2 C1.34 2 0.68 2 0 2 C0 1.34 0 0.68 0 0 Z " fill="#515168" transform="translate(267,152)"/>
<path d="M0 0 C2.31 0.33 4.62 0.66 7 1 C5.68 1.33 4.36 1.66 3 2 C3 3.32 3 4.64 3 6 C1.68 5.67 0.36 5.34 -1 5 C-0.67 3.35 -0.34 1.7 0 0 Z " fill="#414065" transform="translate(213,144)"/>
<path d="M0 0 C0.66 0.33 1.32 0.66 2 1 C-0.97 4.96 -0.97 4.96 -4 9 C-5.32 8.67 -6.64 8.34 -8 8 C-7.236875 7.4225 -6.47375 6.845 -5.6875 6.25 C-3.33799083 4.28296907 -1.70676495 2.51523256 0 0 Z " fill="#525669" transform="translate(262,420)"/>
<path d="M0 0 C0.66 0.33 1.32 0.66 2 1 C0.77065985 4.68802044 -0.93859378 5.72356973 -4 8 C-4.99 6.35 -5.98 4.7 -7 3 C-3.535 2.505 -3.535 2.505 0 2 C0 1.34 0 0.68 0 0 Z " fill="#363957" transform="translate(299,304)"/>
<path d="M0 0 C1.875 0.75 1.875 0.75 2.875 2.75 C2.215 2.75 1.555 2.75 0.875 2.75 C0.875 3.41 0.875 4.07 0.875 4.75 C-0.115 4.75 -1.105 4.75 -2.125 4.75 C-2.125 4.09 -2.125 3.43 -2.125 2.75 C-3.115 2.42 -4.105 2.09 -5.125 1.75 C-2.125 -0.25 -2.125 -0.25 0 0 Z " fill="#5C5E77" transform="translate(309.125,290.25)"/>
<path d="M0 0 C3.72940389 1.24313463 4.84656811 2.76985216 7 6 C6.67 6.99 6.34 7.98 6 9 C5 8 4 7 3 6 C2.443125 5.505 1.88625 5.01 1.3125 4.5 C0 3 0 3 0 0 Z " fill="#3D4057" transform="translate(237,144)"/>
<path d="M0 0 C1.0625 1.8125 1.0625 1.8125 2 4 C1.67 4.99 1.34 5.98 1 7 C0.34 6.67 -0.32 6.34 -1 6 C-1.33 7.65 -1.66 9.3 -2 11 C-2.95465783 8.83032311 -3.14401212 7.43671207 -2.3984375 5.17578125 C-1.64129615 3.4315257 -0.82390802 1.71372869 0 0 Z " fill="#53596D" transform="translate(224,116)"/>
<path d="M0 0 C1.32 0 2.64 0 4 0 C3.50351065 4.46840411 3.31012244 5.68987756 0 9 C0 6.03 0 3.06 0 0 Z " fill="#36384E" transform="translate(265,111)"/>
<path d="M0 0 C0 2 0 4 0 6 C-0.5775 6.12375 -1.155 6.2475 -1.75 6.375 C-4.02612206 7.00725613 -5.90760206 7.91863468 -8 9 C-7.04270084 7.87411986 -6.08412105 6.7493285 -5.125 5.625 C-4.59132813 4.99851562 -4.05765625 4.37203125 -3.5078125 3.7265625 C-2.38567993 2.44163349 -1.20628025 1.20628025 0 0 Z " fill="#616578" transform="translate(351,333)"/>
<path d="M0 0 C0.99 0.33 1.98 0.66 3 1 C2.6875 3.375 2.6875 3.375 2 6 C1.01 6.66 0.02 7.32 -1 8 C-1.99 7.67 -2.98 7.34 -4 7 C-3.67 6.34 -3.34 5.68 -3 5 C-2.34 5.33 -1.68 5.66 -1 6 C-0.67 4.02 -0.34 2.04 0 0 Z " fill="#F3F7F4" transform="translate(354,323)"/>
<path d="M0 0 C0.66 1.32 1.32 2.64 2 4 C0.71034824 5.37562854 -0.62689293 6.70766393 -2 8 C-2.66 8 -3.32 8 -4 8 C-2.87548273 5.0280615 -1.77706209 2.66559313 0 0 Z " fill="#DFDFE5" transform="translate(277,312)"/>
<path d="M0 0 C0.103125 0.598125 0.20625 1.19625 0.3125 1.8125 C1.08876455 4.28243264 2.07088921 5.32251235 4 7 C2.35 7.33 0.7 7.66 -1 8 C-1.625 5.125 -1.625 5.125 -2 2 C-1.34 1.34 -0.68 0.68 0 0 Z " fill="#525270" transform="translate(221,157)"/>
<path d="M0 0 C2.64 0 5.28 0 8 0 C7.01 1.485 7.01 1.485 6 3 C2.875 3.1875 2.875 3.1875 0 3 C0 2.01 0 1.02 0 0 Z " fill="#3C3E4B" transform="translate(339,152)"/>
<path d="M0 0 C1.32 0.33 2.64 0.66 4 1 C4 2.65 4 4.3 4 6 C3.01 6 2.02 6 1 6 C0.67 4.02 0.34 2.04 0 0 Z " fill="#4B5065" transform="translate(284,114)"/>
<path d="M0 0 C1.98 0 3.96 0 6 0 C6 1.32 6 2.64 6 4 C3.03 3.505 3.03 3.505 0 3 C0 2.01 0 1.02 0 0 Z " fill="#F6FAFB" transform="translate(280,107)"/>
<path d="M0 0 C2.475 0.99 2.475 0.99 5 2 C5 1.34 5 0.68 5 0 C5.66 0 6.32 0 7 0 C7 0.99 7 1.98 7 3 C5 4.6875 5 4.6875 3 6 C0 2.25 0 2.25 0 0 Z " fill="#424561" transform="translate(400,257)"/>
<path d="M0 0 C0.99 0.33 1.98 0.66 3 1 C4.39439664 1.06665376 5.79169875 1.08538199 7.1875 1.0625 C8.445625 1.041875 9.70375 1.02125 11 1 C11 1.66 11 2.32 11 3 C10.2575 3.144375 9.515 3.28875 8.75 3.4375 C6.47972261 3.90187492 4.24240521 4.41863569 2 5 C1.34 3.35 0.68 1.7 0 0 Z " fill="#4E4F69" transform="translate(177,167)"/>
<path d="M0 0 C1.2065625 0.0309375 1.2065625 0.0309375 2.4375 0.0625 C2.7675 0.7225 3.0975 1.3825 3.4375 2.0625 C2.7775 2.0625 2.1175 2.0625 1.4375 2.0625 C1.4375 2.7225 1.4375 3.3825 1.4375 4.0625 C0.1175 4.3925 -1.2025 4.7225 -2.5625 5.0625 C-3.125 3.125 -3.125 3.125 -3.5625 1.0625 C-2.5625 0.0625 -2.5625 0.0625 0 0 Z " fill="#4A4B61" transform="translate(221.5625,151.9375)"/>
<path d="M0 0 C1 2 1 2 1.375 4.0625 C1.684375 5.0215625 1.684375 5.0215625 2 6 C2.99 6.33 3.98 6.66 5 7 C5 7.66 5 8.32 5 9 C0.125 8.125 0.125 8.125 -1 7 C-1.125 4 -1.125 4 -1 1 C-0.67 0.67 -0.34 0.34 0 0 Z " fill="#373753" transform="translate(278,114)"/>
<path d="M0 0 C0.33 0.66 0.66 1.32 1 2 C-0.4375 4.625 -0.4375 4.625 -2 7 C-3.32 6.67 -4.64 6.34 -6 6 C-4.625 4.5 -4.625 4.5 -3 3 C-2.34 3 -1.68 3 -1 3 C-0.67 2.01 -0.34 1.02 0 0 Z " fill="#626779" transform="translate(318,365)"/>
<path d="M0 0 C2.97 0.33 5.94 0.66 9 1 C9 1.66 9 2.32 9 3 C8.34 3 7.68 3 7 3 C7 3.99 7 4.98 7 6 C6.34 6 5.68 6 5 6 C4.731875 5.38125 4.46375 4.7625 4.1875 4.125 C3.04443152 1.7004767 3.04443152 1.7004767 0 0 Z " fill="#2F3552" transform="translate(152,346)"/>
<path d="M0 0 C0.99 0.33 1.98 0.66 3 1 C2.34 4.3 1.68 7.6 1 11 C-1.26609984 6.46780033 -0.92735976 4.82227075 0 0 Z " fill="#4A4A63" transform="translate(253,337)"/>
<path d="M0 0 C0.66 0 1.32 0 2 0 C3.2890625 1.53125 3.2890625 1.53125 4.625 3.5 C5.07101563 4.1496875 5.51703125 4.799375 5.9765625 5.46875 C6.31429687 5.9740625 6.65203125 6.479375 7 7 C4.03 6.505 4.03 6.505 1 6 C0.67 4.02 0.34 2.04 0 0 Z " fill="#5C5E73" transform="translate(124,310)"/>
<path d="M0 0 C-1.07401108 2.91517292 -1.77810176 4.77810176 -4 7 C-4.33 5.02 -4.66 3.04 -5 1 C-3 0 -3 0 0 0 Z " fill="#454561" transform="translate(278,310)"/>
<path d="M0 0 C2.0625 0.4375 2.0625 0.4375 4 1 C4 2.65 4 4.3 4 6 C2.0625 5.1875 2.0625 5.1875 0 4 C-0.33 3.01 -0.66 2.02 -1 1 C-0.67 0.67 -0.34 0.34 0 0 Z " fill="#40425B" transform="translate(395,248)"/>
<path d="M0 0 C0.66 0.33 1.32 0.66 2 1 C2.625 3.5625 2.625 3.5625 3 6 C2.01 6 1.02 6 0 6 C-0.33 6.66 -0.66 7.32 -1 8 C-1.93065133 5.39417629 -2.14917407 4.35801776 -1.0625 1.75 C-0.711875 1.1725 -0.36125 0.595 0 0 Z " fill="#585A72" transform="translate(174,161)"/>
<path d="M0 0 C0.66 0 1.32 0 2 0 C2 0.66 2 1.32 2 2 C2.99 2.33 3.98 2.66 5 3 C4.34 4.65 3.68 6.3 3 8 C0.4345406 5.4345406 0.45953913 3.52313332 0 0 Z " fill="#434663" transform="translate(148,161)"/>
<path d="M0 0 C2.97 0.495 2.97 0.495 6 1 C6.33 1.99 6.66 2.98 7 4 C4.03 3.67 1.06 3.34 -2 3 C-1.34 2.67 -0.68 2.34 0 2 C0 1.34 0 0.68 0 0 Z " fill="#606177" transform="translate(269,145)"/>
<path d="M0 0 C-0.33 2.31 -0.66 4.62 -1 7 C-1.66 6.67 -2.32 6.34 -3 6 C-3.625 3.4375 -3.625 3.4375 -4 1 C-2 0 -2 0 0 0 Z " fill="#F5F7FD" transform="translate(223,115)"/>
<path d="M0 0 C0.66 0.33 1.32 0.66 2 1 C1.3125 2.9375 1.3125 2.9375 0 5 C-2.625 5.75 -2.625 5.75 -5 6 C-3.86695008 2.60085025 -2.87481525 1.94745549 0 0 Z " fill="#4B4E64" transform="translate(276,407)"/>
<path d="M0 0 C0.66 0.33 1.32 0.66 2 1 C2 4.14668286 1.47264871 5.31458176 0 8 C-0.33 8.66 -0.66 9.32 -1 10 C-2.15837626 5.94568308 -1.83691257 3.78187881 0 0 Z " fill="#48495F" transform="translate(199,357)"/>
<path d="M0 0 C0.66 0.99 1.32 1.98 2 3 C1.01 3.99 0.02 4.98 -1 6 C-1.99 5.67 -2.98 5.34 -4 5 C-2.68 3.35 -1.36 1.7 0 0 Z " fill="#E0E2E9" transform="translate(270,322)"/>
<path d="M0 0 C0.66 0.33 1.32 0.66 2 1 C2 1.66 2 2.32 2 3 C1.01 3 0.02 3 -1 3 C-0.67 4.98 -0.34 6.96 0 9 C-0.66 8.67 -1.32 8.34 -2 8 C-2.40729228 5.67843403 -2.74438677 3.3431213 -3 1 C-2.01 0.67 -1.02 0.34 0 0 Z " fill="#585D74" transform="translate(298,316)"/>
<path d="M0 0 C0.5534764 2.07553648 1 3.84365964 1 6 C-0.98 6.99 -0.98 6.99 -3 8 C-3.75 6.25 -3.75 6.25 -4 4 C-2.0625 1.75 -2.0625 1.75 0 0 Z " fill="#4C4C68" transform="translate(382,303)"/>
<path d="M0 0 C0.99 0.33 1.98 0.66 3 1 C3 2.32 3 3.64 3 5 C1.02 5 -0.96 5 -3 5 C-2.01 3.35 -1.02 1.7 0 0 Z " fill="#E4EAE6" transform="translate(93,267)"/>
<path d="M0 0 C0.66 0 1.32 0 2 0 C4 2 4 2 4 5 C0.62537285 4.45276317 -1.08235 3.9451 -4 2 C-2.68 2 -1.36 2 0 2 C0 1.34 0 0.68 0 0 Z " fill="#595B6F" transform="translate(207,255)"/>
<path d="M0 0 C0 3.19633438 -0.33810135 4.34096216 -2 7 C-4.125 8.75 -4.125 8.75 -6 10 C-4.34832443 6.4213696 -2.21713508 3.25179812 0 0 Z " fill="#CCCED7" transform="translate(115,236)"/>
<path d="M0 0 C3.375 -0.125 3.375 -0.125 7 0 C7.66 0.66 8.32 1.32 9 2 C8.01 2.66 7.02 3.32 6 4 C4.02 3.01 2.04 2.02 0 1 C0 0.67 0 0.34 0 0 Z " fill="#4D4D62" transform="translate(226,233)"/>
<path d="M0 0 C0.99 0 1.98 0 3 0 C3.66 1.32 4.32 2.64 5 4 C2 5 2 5 -0.1875 4.0625 C-0.785625 3.711875 -1.38375 3.36125 -2 3 C-1.34 2.01 -0.68 1.02 0 0 Z " fill="#484C6A" transform="translate(314,166)"/>
<path d="M0 0 C0.33 0 0.66 0 1 0 C1 3.63 1 7.26 1 11 C0.34 10.67 -0.32 10.34 -1 10 C-0.67 8.35 -0.34 6.7 0 5 C-0.66 5 -1.32 5 -2 5 C-2 4.01 -2 3.02 -2 2 C-1.34 2 -0.68 2 0 2 C0 1.34 0 0.68 0 0 Z " fill="#35364D" transform="translate(309,150)"/>
<path d="M0 0 C0.33 1.32 0.66 2.64 1 4 C0.34 4 -0.32 4 -1 4 C-1 4.66 -1 5.32 -1 6 C-1.66 6 -2.32 6 -3 6 C-3 5.01 -3 4.02 -3 3 C-3.66 2.67 -4.32 2.34 -5 2 C-2 0 -2 0 0 0 Z " fill="#E3E2EA" transform="translate(268,148)"/>
<path d="M0 0 C0.33 0 0.66 0 1 0 C1.144375 1.093125 1.28875 2.18625 1.4375 3.3125 C1.88288104 6.93122987 1.88288104 6.93122987 3 10 C2.34 10.66 1.68 11.32 1 12 C0 11 0 11 -0.09765625 8.49609375 C-0.08605469 7.48675781 -0.07445312 6.47742188 -0.0625 5.4375 C-0.05347656 4.42558594 -0.04445313 3.41367188 -0.03515625 2.37109375 C-0.02355469 1.58863281 -0.01195312 0.80617188 0 0 Z " fill="#565C74" transform="translate(271,115)"/>
<path d="M0 0 C0.66 0 1.32 0 2 0 C1.1875 3.4375 1.1875 3.4375 0 7 C-0.99 7.33 -1.98 7.66 -3 8 C-3 7.34 -3 6.68 -3 6 C-2.34 6 -1.68 6 -1 6 C-1.33 5.01 -1.66 4.02 -2 3 C-1.34 2.01 -0.68 1.02 0 0 Z " fill="#333953" transform="translate(301,383)"/>
<path d="M0 0 C0.33 0 0.66 0 1 0 C1.33 2.97 1.66 5.94 2 9 C-1 9 -1 9 -3 8 C-2.34 7.01 -1.68 6.02 -1 5 C-0.61500109 3.34450469 -0.27206865 1.6777567 0 0 Z " fill="#3F4267" transform="translate(205,351)"/>
<path d="M0 0 C2.125 0.9375 2.125 0.9375 4 2 C3.01 2.99 2.02 3.98 1 5 C-1 4 -1 4 -2 1 C-1.34 0.67 -0.68 0.34 0 0 Z " fill="#F1F2F6" transform="translate(190,250)"/>
<path d="M0 0 C2.475 0.495 2.475 0.495 5 1 C4.67 2.65 4.34 4.3 4 6 C3.34 5.67 2.68 5.34 2 5 C2 4.01 2 3.02 2 2 C1.34 2 0.68 2 0 2 C0 1.34 0 0.68 0 0 Z " fill="#535873" transform="translate(150,238)"/>
<path d="M0 0 C0.66 0.33 1.32 0.66 2 1 C2 2.32 2 3.64 2 5 C0.68 4.67 -0.64 4.34 -2 4 C-2.33 5.32 -2.66 6.64 -3 8 C-3 6.35 -3 4.7 -3 3 C-2.34 3 -1.68 3 -1 3 C-0.67 2.01 -0.34 1.02 0 0 Z " fill="#CDD3D4" transform="translate(150,224)"/>
<path d="M0 0 C0.66 1.32 1.32 2.64 2 4 C0.35 5.65 -1.3 7.3 -3 9 C-2.01 6.03 -1.02 3.06 0 0 Z " fill="#37384F" transform="translate(139,196)"/>
<path d="M0 0 C1.32 0.66 2.64 1.32 4 2 C1 4 1 4 -1.6875 3.625 C-2.450625 3.41875 -3.21375 3.2125 -4 3 C-2.68 2.01 -1.36 1.02 0 0 Z " fill="#EDF1F5" transform="translate(186,165)"/>
<path d="M0 0 C0.66 0 1.32 0 2 0 C2.33 1.98 2.66 3.96 3 6 C1.68 6 0.36 6 -1 6 C-0.67 4.02 -0.34 2.04 0 0 Z " fill="#565768" transform="translate(161,154)"/>
<path d="M0 0 C2.16874252 0.50603992 3.99967627 0.99983813 6 2 C6 2.66 6 3.32 6 4 C4.35 4 2.7 4 1 4 C0.67 2.68 0.34 1.36 0 0 Z " fill="#FBF9FE" transform="translate(268,148)"/>
<path d="M0 0 C0.99 0 1.98 0 3 0 C3 1.32 3 2.64 3 4 C0.36 4 -2.28 4 -5 4 C-5 3.67 -5 3.34 -5 3 C-3.35 3 -1.7 3 0 3 C0 2.01 0 1.02 0 0 Z " fill="#E4E7EF" transform="translate(249,107)"/>
</svg>
