<?xml version="1.0" encoding="UTF-8"?>
<svg version="1.1" xmlns="http://www.w3.org/2000/svg" width="150" height="150">
<path d="M0 0 C49.5 0 99 0 150 0 C150 49.5 150 99 150 150 C100.5 150 51 150 0 150 C0 100.5 0 51 0 0 Z " fill="#393D5F" transform="translate(0,0)"/>
<path d="M0 0 C1.7385878 -0.08669449 1.7385878 -0.08669449 3.51229858 -0.17514038 C5.39654037 -0.22887314 5.39654037 -0.22887314 7.31884766 -0.28369141 C8.61553375 -0.32072174 9.91221985 -0.35775208 11.24819946 -0.39590454 C14.00035809 -0.46503817 16.75214019 -0.51235794 19.50488281 -0.55078125 C22.31010995 -0.59498228 25.10548852 -0.69177159 27.90722656 -0.83789062 C50.38227792 -1.9851731 50.38227792 -1.9851731 56.87463379 2.46472168 C60.97854068 6.59272057 63.71654596 11.27744374 66.22003174 16.49676514 C67.9239743 19.85556926 70.09656984 22.73452397 72.35791016 25.73974609 C70.92474348 29.01067027 69.1669911 31.17894462 66.64599609 33.69458008 C65.50405792 34.84113319 65.50405792 34.84113319 64.33905029 36.010849 C63.10315155 37.23596947 63.10315155 37.23596947 61.84228516 38.48583984 C60.99369934 39.33396744 60.14511353 40.18209503 59.27081299 41.05592346 C57.47424749 42.84946822 55.67525254 44.64058224 53.87402344 46.42944336 C51.1272374 49.15804679 48.38846392 51.8944928 45.65087891 54.63232422 C43.90265075 56.37563397 42.1539675 58.1184875 40.40478516 59.86083984 C39.1810318 61.08292397 39.1810318 61.08292397 37.93255615 62.32969666 C33.88434246 66.34453784 29.81323148 70.18022493 25.35791016 73.73974609 C23.42041016 73.05224609 23.42041016 73.05224609 21.35791016 71.73974609 C19.56743823 65.94433749 21.49266647 60.85924157 22.98291016 55.17724609 C23.23169922 54.13632813 23.48048828 53.09541016 23.73681641 52.02294922 C25.24148038 46.20266941 26.24997832 43.22429029 31.35791016 39.73974609 C32.80028517 36.88032573 32.80028517 36.88032573 33.67041016 33.73974609 C33.99654297 32.70849609 34.32267578 31.67724609 34.65869141 30.61474609 C35.51545542 27.58509653 35.51545542 27.58509653 35.35791016 23.73974609 C34.36791016 23.40974609 33.37791016 23.07974609 32.35791016 22.73974609 C31.69791016 21.74974609 31.03791016 20.75974609 30.35791016 19.73974609 C28.09132119 18.5065457 28.09132119 18.5065457 25.48291016 17.55224609 C24.61923828 17.20806641 23.75556641 16.86388672 22.86572266 16.50927734 C20.15777801 15.54417724 20.15777801 15.54417724 16.35791016 15.73974609 C15.36791016 19.36974609 14.37791016 22.99974609 13.35791016 26.73974609 C11.37791016 26.40974609 9.39791016 26.07974609 7.35791016 25.73974609 C9.03257942 30.47363714 9.03257942 30.47363714 12.10791016 34.23974609 C12.52041016 34.73474609 12.93291016 35.22974609 13.35791016 35.73974609 C12.89017165 40.73519336 11.7132218 45.37498084 10.29541016 50.17724609 C9.75207031 52.0315625 9.75207031 52.0315625 9.19775391 53.92333984 C8.92060547 54.85275391 8.64345703 55.78216797 8.35791016 56.73974609 C5.35791016 56.73974609 5.35791016 56.73974609 3.89619446 55.63879395 C3.38767441 55.12361206 2.87915436 54.60843018 2.35522461 54.07763672 C1.7748494 53.49703491 1.19447418 52.91643311 0.59651184 52.3182373 C-0.0223439 51.68389771 -0.64119965 51.04955811 -1.27880859 50.39599609 C-1.91824905 49.75231079 -2.55768951 49.10862549 -3.21650696 48.44543457 C-5.26133127 46.38379013 -7.29549229 44.31196948 -9.32958984 42.23974609 C-10.71236455 40.84192892 -12.09581975 39.44478456 -13.47998047 38.04833984 C-16.87530168 34.61990508 -20.26109398 31.18230645 -23.64208984 27.73974609 C-22.36898277 24.25992008 -20.8972799 21.43973078 -18.70849609 18.45458984 C-18.14195313 17.67664063 -17.57541016 16.89869141 -16.99169922 16.09716797 C-16.40195312 15.29859375 -15.81220703 14.50001953 -15.20458984 13.67724609 C-14.61871094 12.87480469 -14.03283203 12.07236328 -13.42919922 11.24560547 C-11.84004839 9.07202233 -10.24521443 6.90303935 -8.64208984 4.73974609 C-8.23247513 4.05319443 -7.82286041 3.36664276 -7.40083313 2.6592865 C-4.99825501 0.03704719 -3.51283182 0.15638405 0 0 Z " fill="#FCFCFC" transform="translate(50.64208984375,55.26025390625)"/>
<path d="M0 0 C1.05923172 0.00888245 2.11846344 0.01776489 3.20979309 0.0269165 C4.41081161 0.02721863 5.61183014 0.02752075 6.84924316 0.02783203 C8.14618607 0.04847717 9.44312897 0.06912231 10.77937317 0.09039307 C12.12029172 0.09785493 13.46122118 0.10354812 14.80215454 0.10754395 C18.32878308 0.12280507 21.85475098 0.16208957 25.38111877 0.20635986 C28.9805762 0.2473031 32.58014055 0.26555284 36.17976379 0.28570557 C43.24058069 0.3285844 50.30094939 0.39684062 57.36140442 0.48101807 C57.36140442 0.81101807 57.36140442 1.14101807 57.36140442 1.48101807 C40.20140442 1.81101807 23.04140442 2.14101807 5.36140442 2.48101807 C7.34140442 4.79101807 9.32140442 7.10101807 11.36140442 9.48101807 C11.85640442 11.46101807 11.85640442 11.46101807 12.36140442 13.48101807 C14.00961686 14.51115084 15.67644144 15.51216435 17.36140442 16.48101807 C18.67363938 20.41772295 17.60436698 22.6058995 16.36140442 26.48101807 C14.38140442 26.15101807 12.40140442 25.82101807 10.36140442 25.48101807 C12.03607368 30.21490912 12.03607368 30.21490912 15.11140442 33.98101807 C15.52390442 34.47601807 15.93640442 34.97101807 16.36140442 35.48101807 C15.89366591 40.47646534 14.71671606 45.11625281 13.29890442 49.91851807 C12.75556458 51.77283447 12.75556458 51.77283447 12.20124817 53.66461182 C11.92409973 54.59402588 11.64695129 55.52343994 11.36140442 56.48101807 C8.36140442 56.48101807 8.36140442 56.48101807 6.89968872 55.38006592 C6.39116867 54.86488403 5.88264862 54.34970215 5.35871887 53.81890869 C4.77834366 53.23830688 4.19796844 52.65770508 3.6000061 52.05950928 C2.98115036 51.42516968 2.36229462 50.79083008 1.72468567 50.13726807 C1.08524521 49.49358276 0.44580475 48.84989746 -0.2130127 48.18670654 C-2.25783701 46.1250621 -4.29199803 44.05324146 -6.32609558 41.98101807 C-7.70887029 40.58320089 -9.09232549 39.18605653 -10.47648621 37.78961182 C-13.87180741 34.36117705 -17.25759972 30.92357842 -20.63859558 27.48101807 C-19.3654885 24.00119205 -17.89378564 21.18100276 -15.70500183 18.19586182 C-15.13845886 17.4179126 -14.57191589 16.63996338 -13.98820496 15.83843994 C-13.39845886 15.03986572 -12.80871277 14.2412915 -12.20109558 13.41851807 C-11.61521667 12.61607666 -11.02933777 11.81363525 -10.42570496 10.98687744 C-8.83655413 8.8132943 -7.24172017 6.64431133 -5.63859558 4.48101807 C-5.03055588 3.44235344 -5.03055588 3.44235344 -4.41023254 2.38270569 C-2.63859558 0.48101807 -2.63859558 0.48101807 0 0 Z " fill="#F5F5F6" transform="translate(47.63859558105469,55.51898193359375)"/>
<path d="M0 0 C0.33 0.66 0.66 1.32 1 2 C1.66 2 2.32 2 3 2 C3 2.66 3 3.32 3 4 C3.67546875 3.95359375 4.3509375 3.9071875 5.046875 3.859375 C12.29883139 3.56594324 12.29883139 3.56594324 15.625 5.625 C17.34505286 8.59600039 17.07202421 10.61486192 17 14 C18.43490729 15.68535383 18.43490729 15.68535383 20 17 C16.69518058 20.32969934 13.38696741 23.65597725 10.07568359 26.97924805 C8.95171727 28.10821623 7.82865342 29.23808368 6.70654297 30.36889648 C5.08542519 32.0022627 3.46099584 33.6322741 1.8359375 35.26171875 C1.34193451 35.76088303 0.84793152 36.2600473 0.33895874 36.77433777 C-2.95692773 40.07074282 -6.38711549 43.06423847 -10 46 C-11.9375 45.3125 -11.9375 45.3125 -14 44 C-15.79047193 38.20459139 -13.86524369 33.11949547 -12.375 27.4375 C-12.12621094 26.39658203 -11.87742187 25.35566406 -11.62109375 24.28320312 C-10.11293508 18.44940529 -9.0972396 15.50997719 -4 12 C-2.56061978 9.00171268 -2.56061978 9.00171268 -1.6875 5.75 C-1.36136719 4.67234375 -1.03523438 3.5946875 -0.69921875 2.484375 C-0.46847656 1.66453125 -0.23773438 0.8446875 0 0 Z " fill="#F7F7F8" transform="translate(86,83)"/>
<path d="M0 0 C0.680625 0.165 1.36125 0.33 2.0625 0.5 C5.09020299 1.12587079 5.09020299 1.12587079 8.5625 0.8125 C12 1 12 1 14.4375 2.625 C16.47161336 5.71685231 16.60605429 7.36367425 16 11 C14.4375 13.375 14.4375 13.375 12 15 C8.5 15.5625 8.5 15.5625 5 15 C2.6875 12.75 2.6875 12.75 1 10 C0.566875 9.360625 0.13375 8.72125 -0.3125 8.0625 C-1.27920296 5.16239111 -0.6666483 2.93325252 0 0 Z " fill="#3F4360" transform="translate(87,86)"/>
<path d="M0 0 C3.59627792 -0.32693436 5.37635888 -0.47194463 8.3125 1.75 C10 4 10 4 10.4375 6.0625 C10.86651777 8.30703447 10.86651777 8.30703447 13.5625 9.75 C14.366875 10.1625 15.17125 10.575 16 11 C15.34 12.98 14.68 14.96 14 17 C13.071875 16.5359375 13.071875 16.5359375 12.125 16.0625 C9.18511232 15.06293819 7.00387559 14.81070369 3.9375 14.625 C0.35749247 14.34222742 -0.71614545 14.22302858 -3.625 11.9375 C-4.07875 11.298125 -4.5325 10.65875 -5 10 C-4.67 9.01 -4.34 8.02 -4 7 C-2.02 7.99 -0.04 8.98 2 10 C2.66 7.69 3.32 5.38 4 3 C2.68 2.34 1.36 1.68 0 1 C0 0.67 0 0.34 0 0 Z " fill="#3F4361" transform="translate(49,61)"/>
<path d="M0 0 C1.32 0 2.64 0 4 0 C4.33 0.33 4.66 0.66 5 1 C5.66 0.34 6.32 -0.32 7 -1 C7 0.98 7 2.96 7 5 C6.01 4.67 5.02 4.34 4 4 C3.67 4.66 3.34 5.32 3 6 C-4.875 5.125 -4.875 5.125 -6 4 C-6.33 4.66 -6.66 5.32 -7 6 C-7.66 6 -8.32 6 -9 6 C-9.33 3.69 -9.66 1.38 -10 -1 C-6.0440473 -2.3186509 -3.93870119 -1.17470036 0 0 Z " fill="#8E91A0" transform="translate(87,33)"/>
<path d="M0 0 C2.625 0.3125 2.625 0.3125 4.5625 2 C5.625 4.3125 5.625 4.3125 4.8125 7.0625 C4.420625 7.805 4.02875 8.5475 3.625 9.3125 C0.75 9.5 0.75 9.5 -2.375 9.3125 C-4.375 6.3125 -4.375 6.3125 -4.0625 3.6875 C-3.11366091 0.40969222 -3.11366091 0.40969222 0 0 Z " fill="#EFF0F1" transform="translate(95.375,88.6875)"/>
<path d="M0 0 C1.34061543 0.30271961 2.67405895 0.63837971 4 1 C4.99 0.67 5.98 0.34 7 0 C7.66 0.66 8.32 1.32 9 2 C9.99 1.34 10.98 0.68 12 0 C12 2.31 12 4.62 12 7 C11.34 6.01 10.68 5.02 10 4 C9.5875 4.495 9.175 4.99 8.75 5.5 C7 7 7 7 3 7 C1.65835921 6.7018576 0.32148827 6.37756808 -1 6 C-1.625 4.125 -1.625 4.125 -2 2 C-1.34 1.34 -0.68 0.68 0 0 Z " fill="#D1D3D9" transform="translate(65,44)"/>
<path d="M0 0 C0.66 0 1.32 0 2 0 C2.33 0.99 2.66 1.98 3 3 C3.66 2.01 4.32 1.02 5 0 C8.125 -0.1875 8.125 -0.1875 11 0 C11 2.31 11 4.62 11 7 C9.68 7 8.36 7 7 7 C6.67 6.01 6.34 5.02 6 4 C5.01 5.485 5.01 5.485 4 7 C3.34 7 2.68 7 2 7 C1.34 4.69 0.68 2.38 0 0 Z " fill="#BFC3CB" transform="translate(93,44)"/>
<path d="M0 0 C0.33 0.66 0.66 1.32 1 2 C1.66 2 2.32 2 3 2 C3 1.34 3 0.68 3 0 C3.66 0 4.32 0 5 0 C5.33 0.66 5.66 1.32 6 2 C6.33 1.34 6.66 0.68 7 0 C8.32 0 9.64 0 11 0 C11.33 1.98 11.66 3.96 12 6 C11.34 6 10.68 6 10 6 C9.67 4.68 9.34 3.36 9 2 C8.34 3.32 7.68 4.64 7 6 C5 6 3 6 1 6 C0.67 4.02 0.34 2.04 0 0 Z " fill="#D2D4DA" transform="translate(59,32)"/>
<path d="M0 0 C0.66 0.66 1.32 1.32 2 2 C0.09236669 3.98861775 -1.82515911 5.96565718 -3.75 7.9375 C-4.55824219 8.78344727 -4.55824219 8.78344727 -5.3828125 9.64648438 C-5.91132812 10.18466797 -6.43984375 10.72285156 -6.984375 11.27734375 C-7.70705566 12.02359009 -7.70705566 12.02359009 -8.44433594 12.78491211 C-10.25704528 14.20077124 -11.75631224 14.59147949 -14 15 C-9.59156563 9.70987876 -4.92440206 4.81191572 0 0 Z " fill="#474966" transform="translate(121,84)"/>
<path d="M0 0 C2.31 0 4.62 0 7 0 C7 0.66 7 1.32 7 2 C6.34 2 5.68 2 5 2 C5 3.65 5 5.3 5 7 C4.67 7 4.34 7 4 7 C4 5.35 4 3.7 4 2 C3.34 2 2.68 2 2 2 C1.67 3.32 1.34 4.64 1 6 C-0.32 6 -1.64 6 -3 6 C-3 4.35 -3 2.7 -3 1 C-2.67 2.32 -2.34 3.64 -2 5 C-1.34 5 -0.68 5 0 5 C0 3.35 0 1.7 0 0 Z " fill="#D1D3D9" transform="translate(56,44)"/>
<path d="M0 0 C0 1.65 0 3.3 0 5 C1.32 4.67 2.64 4.34 4 4 C4 4.66 4 5.32 4 6 C2.33388095 6.042721 0.66617115 6.04063832 -1 6 C-1.33 5.67 -1.66 5.34 -2 5 C-2.33 5.66 -2.66 6.32 -3 7 C-3.66 7 -4.32 7 -5 7 C-5.33 4.69 -5.66 2.38 -6 0 C-3 -1 -3 -1 0 0 Z " fill="#B7B9C3" transform="translate(83,32)"/>
<path d="M0 0 C2.0625 0.4375 2.0625 0.4375 4 1 C4 2.65 4 4.3 4 6 C2.125 6.625 2.125 6.625 0 7 C-0.66 6.34 -1.32 5.68 -2 5 C-1.46428571 1.46428571 -1.46428571 1.46428571 0 0 Z " fill="#ABACB8" transform="translate(80,44)"/>
<path d="M0 0 C0.33 0 0.66 0 1 0 C1.35789474 5.36842105 1.35789474 5.36842105 -0.0625 7.875 C-3.00227124 9.58196395 -5.67870803 9.18799766 -9 9 C-9 8.34 -9 7.68 -9 7 C-8.071875 6.95875 -7.14375 6.9175 -6.1875 6.875 C-2.71052362 6.31140969 -2.71052362 6.31140969 -1.125 2.9375 C-0.75375 1.968125 -0.3825 0.99875 0 0 Z " fill="#3E425F" transform="translate(101,92)"/>
<path d="M0 0 C2.50037734 2.17424117 3.43628586 3.73045798 4 7 C1.69 7 -0.62 7 -3 7 C-1.125 1.125 -1.125 1.125 0 0 Z " fill="#C3C5CC" transform="translate(48,44)"/>
<path d="M0 0 C0.66 0 1.32 0 2 0 C2.33 0.99 2.66 1.98 3 3 C3.99 2.34 4.98 1.68 6 1 C5.67 2.65 5.34 4.3 5 6 C4.01 6.33 3.02 6.66 2 7 C1.34 4.69 0.68 2.38 0 0 Z " fill="#CCCED4" transform="translate(93,44)"/>
<path d="M0 0 C0.99 0.33 1.98 0.66 3 1 C3 2.32 3 3.64 3 5 C1.35 5 -0.3 5 -2 5 C-1.125 1.125 -1.125 1.125 0 0 Z " fill="#88899A" transform="translate(65,44)"/>
<path d="M0 0 C1.485 0.99 1.485 0.99 3 2 C3.66 1.34 4.32 0.68 5 0 C5 1.98 5 3.96 5 6 C3.33333333 6 1.66666667 6 0 6 C0 4.02 0 2.04 0 0 Z " fill="#E4E5E9" transform="translate(89,32)"/>
<path d="M0 0 C1.98 0 3.96 0 6 0 C5.67 1.98 5.34 3.96 5 6 C4.67 5.01 4.34 4.02 4 3 C1.99983534 1.79117904 1.99983534 1.79117904 0 1 C0 0.67 0 0.34 0 0 Z " fill="#474A66" transform="translate(49,61)"/>
<path d="M0 0 C1.32 0 2.64 0 4 0 C3.67 2.31 3.34 4.62 3 7 C2.34 7 1.68 7 1 7 C0.67 4.69 0.34 2.38 0 0 Z " fill="#C5C8CF" transform="translate(85,44)"/>
<path d="M0 0 C0.66 0.66 1.32 1.32 2 2 C4.57061311 2.64767793 4.57061311 2.64767793 7 3 C7 3.33 7 3.66 7 4 C4.69 4.33 2.38 4.66 0 5 C-0.66 3.68 -1.32 2.36 -2 1 C-1.34 0.67 -0.68 0.34 0 0 Z " fill="#595C74" transform="translate(91,95)"/>
<path d="M0 0 C1.5 1.125 1.5 1.125 3 3 C3.1875 6.1875 3.1875 6.1875 3 9 C0.98863724 6.44008376 -0.62845496 3.95409701 -2 1 C-1.34 0.67 -0.68 0.34 0 0 Z " fill="#555772" transform="translate(100,88)"/>
</svg>
